<svg width="18" height="22" viewBox="0 0 18 22" fill="none" xmlns="http://www.w3.org/2000/svg">
<path d="M15.5007 15.3335V9.91683C15.5007 6.591 13.724 3.80683 10.6257 3.07016V2.3335C10.6257 1.43433 9.89982 0.708496 9.00065 0.708496C8.10148 0.708496 7.37565 1.43433 7.37565 2.3335V3.07016C4.26648 3.80683 2.50065 6.58016 2.50065 9.91683V15.3335L0.333984 17.5002V18.5835H17.6673V17.5002L15.5007 15.3335ZM10.084 15.3335H7.91732V13.1668H10.084V15.3335ZM10.084 11.0002H7.91732V6.66683H10.084V11.0002ZM9.00065 21.8335C10.1923 21.8335 11.1673 20.8585 11.1673 19.6668H6.83398C6.83398 20.8585 7.79815 21.8335 9.00065 21.8335Z" fill="white"/>
</svg>
