<svg width="31" height="29" viewBox="0 0 31 29" fill="none" xmlns="http://www.w3.org/2000/svg">
<path d="M7.76172 22.8691H9.49599V26.7682H7.76172V22.8691Z" fill="white" stroke="black" stroke-width="0.142153"/>
<path d="M20.9844 22.8691H22.7186V26.7682H20.9844V22.8691Z" fill="white" stroke="black" stroke-width="0.142153"/>
<mask id="path-3-outside-1_4979_5718" maskUnits="userSpaceOnUse" x="-0.666992" y="2.12305" width="31" height="21" fill="black">
<rect fill="white" x="-0.666992" y="2.12305" width="31" height="21"/>
<path d="M22.8389 3.12305C23.0127 3.12305 23.1818 3.12804 23.3506 3.13867C23.8229 3.17704 24.2905 3.26239 24.7471 3.39355C27.85 4.28402 29.999 7.21427 30 10.5557V15.4121C30 19.517 26.7937 22.8447 22.8389 22.8447H7.49414C6.8226 22.846 6.15433 22.7476 5.50977 22.5527C2.44454 21.6351 0.333258 18.7232 0.333008 15.4121V10.5557C0.333031 6.45084 3.53932 3.12307 7.49414 3.12305H22.8389Z"/>
</mask>
<path d="M22.8389 3.12305C23.0127 3.12305 23.1818 3.12804 23.3506 3.13867C23.8229 3.17704 24.2905 3.26239 24.7471 3.39355C27.85 4.28402 29.999 7.21427 30 10.5557V15.4121C30 19.517 26.7937 22.8447 22.8389 22.8447H7.49414C6.8226 22.846 6.15433 22.7476 5.50977 22.5527C2.44454 21.6351 0.333258 18.7232 0.333008 15.4121V10.5557C0.333031 6.45084 3.53932 3.12307 7.49414 3.12305H22.8389Z" fill="#6F9DD3"/>
<path d="M23.3506 3.13867L23.3621 2.99696L23.3595 2.9968L23.3506 3.13867ZM24.7471 3.39355L24.7078 3.53018L24.7079 3.53019L24.7471 3.39355ZM30 10.5557H30.1422V10.5556L30 10.5557ZM7.49414 22.8447V22.7026H7.49387L7.49414 22.8447ZM5.50977 22.5527L5.55091 22.4167L5.55054 22.4166L5.50977 22.5527ZM0.333008 15.4121H0.190855V15.4121L0.333008 15.4121ZM0.333008 10.5557L0.190855 10.5557V10.5557H0.333008ZM7.49414 3.12305V2.98089H7.49414L7.49414 3.12305ZM22.8389 3.12305V3.2652C23.0099 3.2652 23.176 3.27012 23.3417 3.28054L23.3506 3.13867L23.3595 2.9968C23.1875 2.98597 23.0155 2.98089 22.8389 2.98089V3.12305ZM23.3506 3.13867L23.3391 3.28036C23.8019 3.31796 24.2603 3.40161 24.7078 3.53018L24.7471 3.39355L24.7863 3.25693C24.3207 3.12316 23.8438 3.03612 23.3621 2.99699L23.3506 3.13867ZM24.7471 3.39355L24.7079 3.53019C27.7469 4.40233 29.8568 7.2746 29.8578 10.5557L30 10.5557L30.1422 10.5556C30.1411 7.15395 27.953 4.16571 24.7863 3.25692L24.7471 3.39355ZM30 10.5557H29.8578V15.4121H30H30.1422V10.5557H30ZM30 15.4121H29.8578C29.8578 19.4435 26.7103 22.7026 22.8389 22.7026V22.8447V22.9869C26.8772 22.9869 30.1422 19.5904 30.1422 15.4121H30ZM22.8389 22.8447V22.7026H7.49414V22.8447V22.9869H22.8389V22.8447ZM7.49414 22.8447L7.49387 22.7026C6.83641 22.7038 6.1821 22.6075 5.55091 22.4167L5.50977 22.5527L5.46862 22.6888C6.12657 22.8878 6.8088 22.9882 7.49441 22.9869L7.49414 22.8447ZM5.50977 22.5527L5.55054 22.4166C2.54832 21.5178 0.475406 18.6634 0.475161 15.4121L0.333008 15.4121L0.190855 15.4121C0.191109 18.783 2.34076 21.7524 5.469 22.6889L5.50977 22.5527ZM0.333008 15.4121H0.475161V10.5557H0.333008H0.190855V15.4121H0.333008ZM0.333008 10.5557L0.475161 10.5557C0.475184 6.52432 3.62277 3.26522 7.49414 3.2652L7.49414 3.12305L7.49414 2.98089C3.45587 2.98091 0.190878 6.37736 0.190855 10.5557L0.333008 10.5557ZM7.49414 3.12305V3.2652H22.8389V3.12305V2.98089H7.49414V3.12305Z" fill="black" mask="url(#path-3-outside-1_4979_5718)"/>
<path d="M7.49512 0.855469H11.5871V2.97905H7.49512V0.855469Z" fill="#6F9DD3" stroke="black" stroke-width="0.142153"/>
<path d="M3.30078 26.168V28.2916H27.0342V26.168H3.30078Z" fill="#6F9DD3" stroke="black" stroke-width="0.142153"/>
<path fill-rule="evenodd" clip-rule="evenodd" d="M20 2.96094V2H24V3H25V23H24V23.5H20V23H19V2.96094H20ZM24 22V21H20V22H24ZM24 19.5V18.5H20V19.5H24ZM24 17V16H20V17H24ZM24 14.5V13.5H20V14.5H24ZM24 12V11H20V12H24ZM24 9.5V8.5H20V9.5H24ZM24 7V6H20V7H24ZM24 4.5V3.5H20V4.5H24Z" fill="white"/>
<path d="M14.147 15.5009C13.7012 15.5009 13.3082 15.4149 12.968 15.2428C12.6317 15.0707 12.3716 14.8244 12.1878 14.5037C12.004 14.1791 11.9121 13.7998 11.9121 13.3657C11.9121 12.9316 12.004 12.5542 12.1878 12.2336C12.3716 11.909 12.6317 11.6606 12.968 11.4886C13.3082 11.3126 13.7012 11.2246 14.147 11.2246C14.4403 11.2246 14.7023 11.2539 14.9331 11.3126C15.1638 11.3713 15.3769 11.4632 15.5725 11.5883V12.5738C15.4004 12.4369 15.2049 12.3372 14.9859 12.2746C14.7708 12.212 14.5225 12.1808 14.2409 12.1808C13.8381 12.1808 13.5272 12.2863 13.3082 12.4975C13.0892 12.7048 12.9797 12.9942 12.9797 13.3657C12.9797 13.7372 13.0892 14.0285 13.3082 14.2397C13.5311 14.4509 13.842 14.5565 14.2409 14.5565C14.5225 14.5565 14.7747 14.5232 14.9976 14.4568C15.2205 14.3903 15.4278 14.2847 15.6194 14.14V15.1196C15.2479 15.3738 14.7571 15.5009 14.147 15.5009Z" fill="#1E196A"/>
<path d="M7.18359 11.3086H8.18081L9.36573 13.8486L10.5565 11.3086H11.5479V15.4089H10.58V13.3499L9.60037 15.4089H9.13109L8.15734 13.3499V15.4089H7.18359V11.3086Z" fill="#1E196A"/>
<path d="M3.12695 11.3086H5.2035C5.59848 11.3086 5.90937 11.4064 6.13619 11.6019C6.36692 11.7974 6.48228 12.077 6.48228 12.4407C6.48228 12.6128 6.44317 12.7731 6.36496 12.9217C6.28675 13.0703 6.1753 13.1877 6.0306 13.2737C6.23004 13.3519 6.37669 13.4653 6.47055 13.6139C6.5644 13.7586 6.61133 13.9483 6.61133 14.1829C6.61133 14.4332 6.55267 14.6522 6.43535 14.8399C6.31803 15.0237 6.15965 15.1645 5.96021 15.2622C5.76468 15.36 5.54568 15.4089 5.30322 15.4089H3.12695V11.3086ZM4.97473 12.9335C5.27976 12.9335 5.43227 12.7907 5.43227 12.5052C5.43227 12.3449 5.39317 12.2354 5.31495 12.1768C5.23674 12.1142 5.11747 12.0829 4.95713 12.0829H4.16523V12.9335H4.97473ZM5.03925 14.6346C5.21523 14.6346 5.34624 14.6014 5.43227 14.5349C5.51831 14.4684 5.56132 14.3511 5.56132 14.1829C5.56132 14.0148 5.51635 13.8935 5.42641 13.8192C5.33646 13.741 5.19959 13.7019 5.01579 13.7019H4.16523V14.6346H5.03925Z" fill="#1E196A"/>
<path d="M12.9805 13.3662C12.9806 13.7375 13.0897 14.0291 13.3086 14.2402C13.5315 14.4513 13.8425 14.5566 14.2412 14.5566C14.5227 14.5566 14.7752 14.5235 14.998 14.457C15.2208 14.3906 15.4286 14.2852 15.6201 14.1406V15.1201C15.2487 15.3741 14.7573 15.501 14.1475 15.501C13.7019 15.501 13.3089 15.4151 12.9688 15.2432C12.6325 15.0711 12.3723 14.8244 12.1885 14.5039C12.0048 14.1795 11.9122 13.8001 11.9121 13.3662C11.9121 13.3477 11.9127 13.3288 11.9131 13.3105C12.2506 13.2857 12.6159 13.2625 12.9844 13.2441C12.9816 13.2836 12.9805 13.3247 12.9805 13.3662ZM6.4707 13.6182C6.56431 13.7627 6.61129 13.9523 6.61133 14.1865C6.61126 14.4366 6.55278 14.6562 6.43555 14.8438C6.31825 15.0274 6.15926 15.1689 5.95996 15.2666C5.76473 15.364 5.5457 15.413 5.30371 15.4131H3.12695V13.7061C3.27572 13.7007 3.61814 13.8597 4.16504 13.9248V14.6387H5.03906C5.21479 14.6387 5.34658 14.6054 5.43262 14.5391C5.51857 14.4726 5.56145 14.3544 5.56152 14.1865C5.56148 14.0464 5.52833 13.9401 5.46582 13.8652C5.64951 13.8288 5.84438 13.7809 6.0498 13.7148C6.18626 13.671 6.3216 13.6317 6.45508 13.5977C6.45986 13.6047 6.46617 13.611 6.4707 13.6182ZM8.1582 15.4131H7.18457V13.4531C7.52504 13.403 7.85089 13.3782 8.1582 13.3701V15.4131ZM8.16602 13.3701C8.52184 13.361 8.85248 13.3726 9.15137 13.3896L9.36719 13.8525L9.57031 13.417C9.90595 13.4398 10.1858 13.4576 10.3965 13.4385C10.4374 13.4348 10.488 13.4302 10.5469 13.4248L9.60156 15.4131H9.13184L8.16602 13.3701ZM11.5488 15.4131H10.5811V13.4219C10.8092 13.4008 11.1488 13.3698 11.5488 13.3379V15.4131Z" fill="#2A2866"/>
</svg>
