<svg width="40" height="40" viewBox="0 0 40 40" fill="none" xmlns="http://www.w3.org/2000/svg">
<rect width="40" height="40" rx="5" fill="white"/>
<path fill-rule="evenodd" clip-rule="evenodd" d="M14.1164 16.1746C13.6651 12.8981 16.293 9.26822 19.1685 9.10925C22.6546 9.0121 25.5833 11.5291 25.8399 14.5584C26.5477 22.7807 15.2754 24.4941 14.1164 16.1746ZM31.5556 14.3111C31.5556 14.108 31.5026 13.9579 31.5026 13.7547C31.4052 12.9952 31.246 12.2887 31.0955 11.6881C30.9982 11.432 30.892 11.1317 30.7947 10.8314C30.6443 10.4782 30.4939 10.0719 30.2904 9.71864C30.1931 9.51551 29.9896 9.21523 29.7861 8.86196C29.1755 7.89931 28.4677 7.19277 27.9634 6.68936C27.7599 6.53922 27.6095 6.38908 27.3529 6.18595C25.8841 5.17914 24.1145 4.32246 22.0972 4.26947C19.2128 4.17233 18.4076 4.77288 16.1868 5.57657C14.9746 5.98283 14.3641 5.62956 13.2581 5.37344C11.2408 4.87003 9.82512 5.62956 9.36502 6.13296C9.16152 6.38908 9.01111 6.53922 8.86069 6.89249C8.20594 8.25257 8.45369 12.4918 8.45369 14.3023V29.8903C8.45369 31.5506 8.30327 33.317 9.06419 34.5799C9.71894 35.7898 13.6651 37.5562 13.9659 31.3033C14.0633 29.59 13.7624 27.9738 14.4703 26.6137C15.5851 24.4411 18.0625 26.4106 20.1772 26.6137C22.7077 26.8168 24.9816 26.2604 26.7955 25.0505C26.8928 24.9975 26.999 24.9003 27.0963 24.8474C27.3971 24.5912 27.7068 24.344 28.0076 24.0878C28.1049 23.9907 28.2642 23.8847 28.3615 23.7876C28.565 23.5844 28.7155 23.3813 28.8659 23.1782C29.2729 22.7277 29.6268 22.1713 29.9807 21.562C30.078 21.4648 30.1311 21.4118 30.1311 21.3058C30.3346 20.8554 30.5824 20.3962 30.7416 19.9458C30.7416 19.8928 30.7947 19.8928 30.7947 19.8486C31.4052 18.2854 31.653 16.4219 31.5556 14.3023V14.3111Z" fill="#343170"/>
<path d="M34.6996 5.44145C35.1032 5.83681 35.3423 6.38882 35.3423 7.0005C35.3423 7.61219 35.0957 8.15673 34.6996 8.55955C34.3035 8.95491 33.7505 9.20107 33.1377 9.20107C32.5249 9.20107 31.9794 8.95491 31.5758 8.55955C31.1797 8.16419 30.9331 7.61219 30.9331 7.0005C30.9331 6.38882 31.1797 5.84427 31.5758 5.44145C31.9719 5.04609 32.5249 4.79993 33.1377 4.79993C33.7505 4.79993 34.2961 5.04609 34.6996 5.44145ZM34.9014 7.0005C34.9014 6.51563 34.7071 6.07551 34.3858 5.76221C34.0644 5.44145 33.631 5.2475 33.1452 5.2475C32.6594 5.2475 32.2185 5.44145 31.9046 5.76221C31.5833 6.08297 31.389 6.51563 31.389 7.0005C31.389 7.48537 31.5833 7.92549 31.9046 8.23879C32.226 8.55955 32.6594 8.7535 33.1452 8.7535C33.631 8.7535 34.0719 8.55955 34.3858 8.23879C34.6996 7.91803 34.9014 7.48537 34.9014 7.0005Z" fill="#343170"/>
<path fill-rule="evenodd" clip-rule="evenodd" d="M32.7717 7.23192V8.10469H32.1738V5.79968H33.0856C33.392 5.79968 33.6162 5.8519 33.7507 5.95633C33.8927 6.06077 33.9674 6.21742 33.9674 6.44121C33.9674 6.5904 33.93 6.71721 33.8553 6.81418C33.7806 6.91116 33.6685 6.98575 33.519 7.03051C33.6012 7.05289 33.676 7.09019 33.7358 7.15733C33.803 7.22446 33.8628 7.32144 33.9301 7.45571L34.2514 8.11215H33.6162L33.3322 7.53776C33.2799 7.42587 33.2201 7.34381 33.1603 7.30652C33.1005 7.26176 33.0258 7.23938 32.9286 7.23938H32.7642L32.7717 7.23192ZM33.0183 6.82164C33.1454 6.82164 33.235 6.79927 33.2874 6.74705C33.3397 6.70229 33.3696 6.6277 33.3696 6.5158C33.3696 6.40391 33.3397 6.33677 33.2874 6.29201C33.235 6.24726 33.1454 6.22488 33.0183 6.22488H32.7717V6.81418H33.0183V6.82164Z" fill="#343170"/>
</svg>
