<svg width="26" height="26" viewBox="0 0 26 26" fill="none" xmlns="http://www.w3.org/2000/svg">
<g id="Icon/cattle">
<g id="Group">
<path id="Vector" d="M8.28368 8.95955C8.6374 8.26119 9.04554 7.61724 9.58518 7.02771C9.67135 6.93248 9.79379 6.87806 9.92076 6.87806H11.5941C11.3855 6.86446 9.60332 6.64225 9.75297 3.72635C9.76204 3.56309 9.68041 3.40891 9.53983 3.31821C9.39925 3.23205 9.22693 3.22751 9.08182 3.30461C9.03647 3.33182 7.97078 3.93041 7.60346 5.2818C7.30416 6.37016 7.53544 7.60817 8.28368 8.95955Z" fill="white"/>
<path id="Vector_2" d="M14.2606 6.87806H15.8251C15.9521 6.87806 16.0745 6.93248 16.1607 7.02771C16.7003 7.62177 17.1447 8.27933 17.5393 9.01397C18.3147 7.63991 18.5551 6.3883 18.2512 5.2818C17.8839 3.93041 16.8182 3.33182 16.7729 3.30461C16.6278 3.22751 16.4554 3.23205 16.3149 3.31821C16.1743 3.40891 16.0926 3.56309 16.1017 3.72635C16.2514 6.64678 14.4646 6.86446 14.2606 6.87806Z" fill="white"/>
<g id="Group_2">
<path id="Vector_3" d="M2.17984 11.0413C2.94623 11.921 3.69902 12.5514 4.48355 12.9731C5.00959 13.2588 5.61725 13.4357 6.28841 13.4946L7.17724 13.5672C7.19538 13.6352 7.21805 13.7032 7.24073 13.7713L7.39038 14.1975C7.73956 15.1725 8.07514 16.1112 8.30188 16.991C9.36303 16.0659 11.0092 15.4945 12.9274 15.4945C14.8457 15.4945 16.4918 16.0659 17.553 16.991C17.7797 16.1112 18.1153 15.1725 18.4645 14.1975L18.6141 13.7713C18.6368 13.7168 18.6504 13.6624 18.664 13.608L19.6118 13.5264C20.2603 13.472 20.8679 13.2996 21.4121 13.0094C22.2012 12.5831 22.954 11.9482 23.7203 11.073C23.8473 10.9279 23.87 10.7193 23.7748 10.5515C23.6841 10.3883 23.4936 10.293 23.3077 10.3248C22.836 10.4019 21.8293 9.98013 20.6185 9.1956C19.8793 8.71944 18.9724 8.597 18.1833 8.86456C17.9838 8.93258 17.7842 9.01874 17.5892 9.1049C17.5711 9.07316 17.5575 9.04595 17.5394 9.0142C17.1448 8.27956 16.7004 7.62201 16.1608 7.02795C16.0746 6.93271 15.9522 6.8783 15.8252 6.8783H9.92082C9.79384 6.8783 9.6714 6.93271 9.58524 7.02795C9.04559 7.61747 8.63746 8.26142 8.28374 8.95979C8.27013 8.987 8.25653 9.01421 8.24293 9.04141C8.06607 8.95979 7.88921 8.89176 7.71688 8.83281C6.91875 8.56526 6.00725 8.6877 5.27714 9.16386C4.07087 9.94385 3.06867 10.3701 2.58798 10.293C2.40205 10.2658 2.21612 10.3565 2.12089 10.5243C2.03019 10.6921 2.05287 10.8962 2.17984 11.0413Z" fill="white"/>
<path id="Vector_4" d="M12.9274 16.4016C15.7254 16.4016 17.9158 17.7938 17.9158 19.576C17.9158 21.3582 15.7254 22.7504 12.9274 22.7504C10.1295 22.7504 7.93912 21.3582 7.93912 19.576C7.93912 17.7938 10.1295 16.4016 12.9274 16.4016ZM14.7414 20.0295H15.6484C15.8978 20.0295 16.1018 19.8254 16.1018 19.576C16.1018 19.3266 15.8978 19.1225 15.6484 19.1225H14.7414C14.492 19.1225 14.2879 19.3266 14.2879 19.576C14.2879 19.8254 14.492 20.0295 14.7414 20.0295ZM10.2065 20.0295H11.1135C11.3629 20.0295 11.567 19.8254 11.567 19.576C11.567 19.3266 11.3629 19.1225 11.1135 19.1225H10.2065C9.95713 19.1225 9.75306 19.3266 9.75306 19.576C9.75306 19.8254 9.95713 20.0295 10.2065 20.0295Z" fill="white"/>
</g>
</g>
</g>
</svg>
