<svg width="22" height="22" viewBox="0 0 22 22" fill="none" xmlns="http://www.w3.org/2000/svg">
<g id="insemination 2" clip-path="url(#clip0_1729_176686)">
<g id="Group">
<path id="Vector" d="M7.94922 9.23828C7.23729 9.23828 6.66016 8.66115 6.66016 7.94922C6.66016 7.23729 7.23729 6.66016 7.94922 6.66016C8.66115 6.66016 9.23828 7.23729 9.23828 7.94922C9.23828 8.66115 8.66115 9.23828 7.94922 9.23828Z" fill="white"/>
<path id="Vector_2" d="M19.2287 15.5826C19.4804 15.3309 19.8885 15.3309 20.1402 15.5826C20.3919 15.8343 20.3919 16.2424 20.1402 16.4941L18.7729 17.8613L20.2921 19.3805L20.8997 18.7728C21.1514 18.5212 21.5595 18.5211 21.8112 18.7728C22.0629 19.0245 22.0629 19.4326 21.8112 19.6843L19.6844 21.8112C19.5585 21.9371 19.3936 22 19.2287 22C19.0638 22 18.8988 21.937 18.7729 21.8112C18.5212 21.5595 18.5212 21.1514 18.7729 20.8997L19.3806 20.292L17.8614 18.7728L16.4941 20.1401C16.2424 20.3918 15.8343 20.3918 15.5826 20.1401C15.3309 19.8884 15.3309 19.4803 15.5826 19.2286L19.2287 15.5826Z" fill="white"/>
<path id="Vector_3" d="M7.94922 0C12.3324 0 15.8984 3.56602 15.8984 7.94922C15.8984 8.95959 15.7104 9.9425 15.348 10.8613L12.685 10.4809C13.0901 9.72615 13.3203 8.86411 13.3203 7.94922C13.3203 4.9876 10.9108 2.57812 7.94922 2.57812C4.9876 2.57812 2.57812 4.9876 2.57812 7.94922C2.57812 10.9108 4.9876 13.3203 7.94922 13.3203C8.86411 13.3203 9.72619 13.0901 10.4809 12.685L10.6315 13.7388L10.782 14.7926L10.8613 15.348C9.9425 15.7104 8.95959 15.8984 7.94922 15.8984C3.56602 15.8984 0 12.3324 0 7.94922C0 3.56602 3.56602 0 7.94922 0Z" fill="white"/>
<path id="Vector_4" d="M10.5273 7.94922C10.5273 6.52764 9.3708 5.37109 7.94922 5.37109C6.52764 5.37109 5.37109 6.52764 5.37109 7.94922C5.37109 9.3708 6.52764 10.5273 7.94922 10.5273C8.42664 10.5273 8.87391 10.3964 9.25779 10.1693L10.3424 11.2539C9.6696 11.7426 8.84254 12.0312 7.94922 12.0312C5.69839 12.0312 3.86719 10.2001 3.86719 7.94922C3.86719 5.69839 5.69839 3.86719 7.94922 3.86719C10.2001 3.86719 12.0312 5.69839 12.0312 7.94922C12.0312 8.84254 11.7426 9.6696 11.2539 10.3424L10.1693 9.25779C10.3964 8.87391 10.5273 8.42664 10.5273 7.94922Z" fill="white"/>
<path id="Vector_5" d="M11.2539 10.3424L12.6961 11.7846L14.6103 12.0581C14.7484 12.0778 14.8763 12.1418 14.9749 12.2404L17.8613 15.1268L15.1268 17.8613L12.2404 14.9749C12.1418 14.8763 12.0778 14.7484 12.0581 14.6103L11.7846 12.6962L10.3424 11.2539C10.6921 11 11 10.692 11.2539 10.3424Z" fill="white"/>
</g>
</g>
<defs>
<clipPath id="clip0_1729_176686">
<rect width="22" height="22" fill="white" transform="matrix(-1 0 0 1 22 0)"/>
</clipPath>
</defs>
</svg>
