<svg width="19" height="19" viewBox="0 0 19 19" fill="none" xmlns="http://www.w3.org/2000/svg">
<path d="M16.1266 2.76603C14.3406 0.982792 11.9701 0 9.44631 0C6.92256 0 4.55191 0.983026 2.76603 2.76603C0.982792 4.55197 0 6.92232 0 9.44631C0 11.9702 0.983026 14.3407 2.76603 16.1266C4.55197 17.9096 6.92232 18.8926 9.44631 18.8926C11.9702 18.8926 14.3407 17.9096 16.1266 16.1266C17.9096 14.3406 18.8926 11.9701 18.8926 9.44631C18.8926 6.92221 17.9096 4.55191 16.1266 2.76603ZM15.2912 15.2916C13.7295 16.8533 11.6542 17.7122 9.44619 17.7122C7.23814 17.7122 5.16287 16.8533 3.60123 15.2916C2.03959 13.73 1.18061 11.6547 1.18061 9.44666C1.18061 7.23861 2.03959 5.16334 3.60123 3.6017C5.16264 2.04006 7.23791 1.18107 9.44619 1.18107C11.6542 1.18107 13.7295 2.04006 15.2912 3.6017C16.8528 5.16311 17.7118 7.23838 17.7118 9.44666C17.7118 11.6547 16.8528 13.73 15.2912 15.2916ZM12.7849 6.94025L10.2816 9.44648L12.7878 11.9527C13.0181 12.183 13.0181 12.5579 12.7878 12.7881C12.6727 12.9033 12.5221 12.9623 12.3715 12.9623C12.2209 12.9623 12.0703 12.9033 11.9552 12.7881L9.44619 10.2819L6.93996 12.7881C6.82484 12.9033 6.67423 12.9623 6.52362 12.9623C6.37302 12.9623 6.22242 12.9033 6.10728 12.7881C5.87703 12.5579 5.87703 12.183 6.10728 11.9527L8.61082 9.44648L6.10459 6.94025C5.87433 6.71 5.87433 6.3351 6.10459 6.10482C6.33484 5.87455 6.70975 5.87457 6.94002 6.10482L9.44625 8.61105L11.9525 6.10482C12.1827 5.87457 12.5576 5.87457 12.7879 6.10482C13.0182 6.33508 13.0152 6.70998 12.7849 6.94025Z" fill="#6699D2"/>
</svg>
