<svg width="100" height="74" viewBox="0 0 100 74" fill="none" xmlns="http://www.w3.org/2000/svg">
<g clip-path="url(#clip0_6254_21739)">
<path d="M3.34145 68.31C4.05893 69.8833 5.15348 70.6764 6.67225 70.9105C7.05717 70.9703 7.4552 70.9573 7.84536 70.9573C35.9372 70.9573 64.0317 70.9547 92.1236 70.9703C93.8806 70.9703 95.3391 70.5152 96.3211 68.9861C96.4206 68.8301 96.4808 68.648 96.6353 68.31H95.3915C83.6656 68.31 71.9371 68.31 60.2112 68.3048C59.7608 68.3048 59.2843 68.2865 58.8653 68.1461C58.1766 67.9147 57.8126 67.3582 57.8886 66.6352C57.9671 65.8785 58.4358 65.4 59.2057 65.2778C59.4937 65.2336 59.7923 65.257 60.0855 65.257C72.6625 65.257 85.2394 65.257 97.8137 65.257C99.6755 65.257 100.123 65.7485 99.9714 67.6078C99.7017 70.8975 96.7087 73.7866 93.3621 73.9791C93.0374 73.9973 92.7101 73.9973 92.3828 73.9973C64.126 73.9973 35.8718 73.9973 7.61493 73.9973C3.81802 73.9973 0.979509 71.857 0.154664 68.3776C0.028973 67.8471 -0.00768676 67.2854 -0.00244965 66.7393C0.00802457 65.8577 0.529117 65.3844 1.388 65.27C1.6132 65.2388 1.84363 65.257 2.07406 65.257C14.7164 65.257 51.7465 65.257 64.3888 65.257C64.6507 65.257 64.9152 65.2336 65.1718 65.2726C65.9731 65.3974 66.4837 65.8421 66.5413 66.6742C66.5989 67.509 66.1642 68.0369 65.3682 68.2319C64.9964 68.323 64.5905 68.3048 64.2003 68.3048C52.4744 68.3074 16.3557 68.3074 4.62977 68.3074C4.2527 68.3074 3.87301 68.3074 3.33883 68.3074L3.34145 68.31Z" fill="#241861"/>
<path d="M95.2552 40.1204C95.2552 47.0923 95.2552 57.7036 95.2552 64.6756C95.2552 65.0006 95.2893 65.3335 95.2264 65.6456C95.0745 66.3893 94.6241 66.8626 93.8307 66.9146C93.0425 66.964 92.4979 66.587 92.2884 65.8432C92.1758 65.4479 92.1837 65.011 92.1837 64.595C92.1784 50.8461 92.1287 33.4579 92.2177 19.709C92.2386 16.5442 90.1438 14.5808 87.0696 14.6094C78.4834 14.6926 69.8945 14.638 61.3083 14.638C60.981 14.638 60.651 14.6562 60.3289 14.6172C59.5486 14.521 59.0851 14.0659 59.0197 13.2857C58.949 12.4666 59.3234 11.9049 60.1404 11.702C60.452 11.624 60.7872 11.6084 61.1093 11.6084C69.8605 11.6032 78.6091 11.5902 87.3603 11.611C91.1415 11.6214 93.9669 13.6108 94.9174 16.9082C95.1479 17.704 95.2395 18.5674 95.2421 19.3995C95.2683 26.3065 95.2552 33.2134 95.2552 40.1204Z" fill="#241861"/>
<path d="M4.7814 40.1864C4.7814 33.2456 4.76831 26.3049 4.78664 19.3641C4.79712 15.5544 7.05693 12.5404 10.5998 11.8435C12.0819 11.5522 13.6531 11.6354 15.1797 11.664C16.07 11.6796 16.6513 12.4286 16.6042 13.2139C16.557 14.0253 15.9443 14.5974 15.033 14.6286C14.2841 14.6546 13.53 14.6364 12.7811 14.639C9.63621 14.652 7.85297 16.4125 7.84773 19.5201C7.83464 33.3028 7.82678 51.9406 7.81369 65.7233C7.81369 66.1107 7.83726 66.5086 7.76394 66.8857C7.60682 67.697 6.92862 68.2041 6.14043 68.1209C5.31035 68.0351 4.85996 67.5358 4.7526 66.7323C4.71332 66.4462 4.73951 66.1497 4.73951 65.8585C4.73951 58.9177 4.73951 47.1245 4.73951 40.1838H4.7814V40.1864Z" fill="#241861"/>
<path d="M56.9509 55.3338C56.8884 55.1177 56.8006 54.9267 56.6875 54.7609C56.5744 54.5922 56.4361 54.4501 56.2724 54.3346C56.1116 54.2162 55.9271 54.1259 55.7188 54.0637C55.5134 54.0015 55.2857 53.9704 55.0357 53.9704C54.5684 53.9704 54.1577 54.0859 53.8035 54.3168C53.4523 54.5478 53.1785 54.8838 52.9821 55.3249C52.7856 55.7631 52.6874 56.299 52.6874 56.9326C52.6874 57.5662 52.7842 58.105 52.9776 58.5491C53.1711 58.9932 53.4449 59.3322 53.7991 59.5661C54.1532 59.797 54.5714 59.9125 55.0536 59.9125C55.4911 59.9125 55.8646 59.8355 56.1741 59.6816C56.4866 59.5247 56.7248 59.3041 56.8884 59.0199C57.0551 58.7356 57.1385 58.3996 57.1385 58.0118L57.5313 58.0695H55.1741V56.6217H59.0001V57.7675C59.0001 58.5669 58.8305 59.2538 58.4912 59.8281C58.1519 60.3995 57.6846 60.8407 57.0893 61.1515C56.4941 61.4595 55.8125 61.6134 55.0446 61.6134C54.1875 61.6134 53.4345 61.4254 52.7856 61.0494C52.1368 60.6704 51.6308 60.1331 51.2677 59.4373C50.9076 58.7386 50.7275 57.9096 50.7275 56.9504C50.7275 56.2131 50.8347 55.5559 51.049 54.9785C51.2662 54.3983 51.5698 53.9068 51.9597 53.5041C52.3496 53.1015 52.8035 52.795 53.3214 52.5848C53.8392 52.3746 54.4003 52.2695 55.0045 52.2695C55.5223 52.2695 56.0045 52.345 56.4509 52.496C56.8974 52.6441 57.2932 52.8543 57.6385 53.1266C57.9867 53.399 58.2709 53.7232 58.4912 54.0992C58.7114 54.4723 58.8528 54.8838 58.9153 55.3338H56.9509Z" fill="#241861"/>
<path d="M49.2998 52.3945V61.4897H47.3667V52.3945H49.2998Z" fill="#241861"/>
<path d="M40.0107 61.4897V52.3945H46.0645V53.98H41.9438V56.1472H45.6627V57.7326H41.9438V61.4897H40.0107Z" fill="#241861"/>
<path d="M38.4137 52.3945V61.4897H36.744L32.7662 55.7653H32.6992V61.4897H30.7661V52.3945H32.4626L36.4091 58.1145H36.4895V52.3945H38.4137Z" fill="#241861"/>
<path d="M29.3338 56.9415C29.3338 57.9333 29.1448 58.7771 28.7668 59.4728C28.3918 60.1686 27.8799 60.7 27.231 61.0672C26.5852 61.4313 25.859 61.6134 25.0524 61.6134C24.2399 61.6134 23.5107 61.4298 22.8648 61.0627C22.219 60.6956 21.7085 60.1642 21.3335 59.4684C20.9585 58.7726 20.771 57.9303 20.771 56.9415C20.771 55.9496 20.9585 55.1059 21.3335 54.4101C21.7085 53.7143 22.219 53.1844 22.8648 52.8202C23.5107 52.4531 24.2399 52.2695 25.0524 52.2695C25.859 52.2695 26.5852 52.4531 27.231 52.8202C27.8799 53.1844 28.3918 53.7143 28.7668 54.4101C29.1448 55.1059 29.3338 55.9496 29.3338 56.9415ZM27.3739 56.9415C27.3739 56.299 27.2772 55.7572 27.0837 55.3161C26.8932 54.8749 26.6239 54.5404 26.2756 54.3124C25.9274 54.0844 25.5197 53.9704 25.0524 53.9704C24.5851 53.9704 24.1774 54.0844 23.8291 54.3124C23.4809 54.5404 23.2101 54.8749 23.0166 55.3161C22.8261 55.7572 22.7309 56.299 22.7309 56.9415C22.7309 57.5839 22.8261 58.1257 23.0166 58.5669C23.2101 59.008 23.4809 59.3426 23.8291 59.5705C24.1774 59.7985 24.5851 59.9125 25.0524 59.9125C25.5197 59.9125 25.9274 59.7985 26.2756 59.5705C26.6239 59.3426 26.8932 59.008 27.0837 58.5669C27.2772 58.1257 27.3739 57.5839 27.3739 56.9415Z" fill="#241861"/>
<path d="M19.5463 55.5781H17.5909C17.5552 55.3264 17.4822 55.1029 17.3721 54.9075C17.262 54.7091 17.1206 54.5404 16.948 54.4012C16.7754 54.2621 16.576 54.1555 16.3498 54.0815C16.1265 54.0074 15.884 53.9704 15.6221 53.9704C15.1488 53.9704 14.7366 54.0874 14.3854 54.3213C14.0342 54.5522 13.7619 54.8897 13.5684 55.3338C13.375 55.775 13.2782 56.3108 13.2782 56.9415C13.2782 57.5899 13.375 58.1346 13.5684 58.5758C13.7649 59.0169 14.0387 59.35 14.3899 59.575C14.7411 59.8 15.1473 59.9125 15.6087 59.9125C15.8676 59.9125 16.1072 59.8785 16.3274 59.8104C16.5507 59.7423 16.7486 59.6431 16.9212 59.5128C17.0938 59.3796 17.2367 59.2182 17.3498 59.0287C17.4659 58.8393 17.5462 58.6231 17.5909 58.3804L19.5463 58.3892C19.4957 58.8067 19.3692 59.2093 19.1668 59.5972C18.9674 59.9821 18.6981 60.327 18.3588 60.6319C18.0224 60.9339 17.6206 61.1737 17.1534 61.3514C16.6891 61.5261 16.1637 61.6134 15.5774 61.6134C14.7619 61.6134 14.0327 61.4298 13.3899 61.0627C12.75 60.6956 12.244 60.1642 11.8719 59.4684C11.5029 58.7726 11.3184 57.9303 11.3184 56.9415C11.3184 55.9496 11.5059 55.1059 11.8809 54.4101C12.2559 53.7143 12.7648 53.1844 13.4077 52.8202C14.0506 52.4531 14.7738 52.2695 15.5774 52.2695C16.1072 52.2695 16.5983 52.3435 17.0507 52.4916C17.5061 52.6396 17.9093 52.8557 18.2605 53.14C18.6117 53.4212 18.8975 53.7662 19.1177 54.1747C19.3409 54.5833 19.4838 55.0511 19.5463 55.5781Z" fill="#241861"/>
<path d="M49.5315 17.9168L49.5382 17.9201C49.6411 17.2926 49.6909 16.6518 49.6909 16.0176C49.6909 15.4498 49.6478 14.8787 49.5681 14.3209C49.6478 14.8754 49.6876 15.4365 49.6876 15.9977C49.6876 16.6418 49.6345 17.2859 49.5315 17.9168ZM24.2872 12.2191C24.2706 12.2059 24.2573 12.1926 24.2407 12.176C24.264 12.1992 24.2872 12.2225 24.3138 12.2457L26.4886 14.1018V14.0984L24.2872 12.2191ZM42.104 5.04727H42.1073L41.5927 2.26484C41.586 2.23164 41.5794 2.20176 41.5694 2.17188C41.5728 2.18848 41.5794 2.2084 41.5827 2.225L42.104 5.04727ZM43.897 23.1928L44.9396 22.3361L48.0208 23.4285C48.5853 22.6682 49.0601 21.8514 49.4353 20.9848L46.955 18.8631L47.1741 17.5316C47.2571 17.0303 47.3003 16.5156 47.3003 16.001C47.3003 15.4863 47.2571 14.9717 47.1741 14.4703L46.9583 13.1455L49.4386 11.0238C49.0601 10.1605 48.5886 9.34043 48.0241 8.58008L44.9429 9.67246L43.9003 8.81582C43.1067 8.16504 42.2202 7.65371 41.2673 7.29512L40.0022 6.82031L39.4079 3.59961C38.4702 3.49336 37.5234 3.49336 36.5856 3.59961L35.9913 6.82695L34.7329 7.30176C33.7866 7.66035 32.9067 8.17168 32.1198 8.81914L31.0772 9.6791L27.9761 8.57676C27.4116 9.33711 26.9368 10.1539 26.5616 11.0205L29.0685 13.1621L28.8526 14.4902C28.7696 14.985 28.7298 15.493 28.7298 16.001C28.7298 16.5057 28.7729 17.017 28.8526 17.5117L29.0685 18.8398L26.5616 20.9814C26.9401 21.8447 27.4116 22.6648 27.9761 23.4252L31.0772 22.3229L32.1198 23.1828C32.9067 23.8303 33.7866 24.3416 34.7329 24.7002L35.988 25.1816L36.5823 28.409C37.5187 28.5152 38.4716 28.5152 39.4046 28.409L39.9989 25.1883L41.264 24.7135C42.2202 24.3549 43.1034 23.8436 43.897 23.1928ZM38.0167 21.5227C37.004 21.5227 36.0511 21.2637 35.2177 20.8088C33.3948 19.8193 32.1563 17.8902 32.1563 15.6689C32.1563 12.4416 34.7728 9.8252 38.0001 9.8252C40.2214 9.8252 42.1505 11.0637 43.1399 12.8865C43.5948 13.7166 43.8538 14.6695 43.8538 15.6855C43.8538 18.9096 41.2407 21.5227 38.0167 21.5227ZM27.8798 25.9885C27.6972 26.0516 27.5079 26.0648 27.3286 26.0283C27.5179 26.0682 27.7171 26.0615 27.9097 25.9951L30.6124 25.0322C30.6091 25.0289 30.6024 25.0256 30.5991 25.0223L27.8798 25.9885ZM51.7063 12.2191L49.5315 14.0785C49.5315 14.0852 49.5349 14.0951 49.5349 14.1018L51.7063 12.2457C51.9421 12.0432 52.0749 11.751 52.0782 11.4488C52.0683 11.741 51.9354 12.0232 51.7063 12.2191Z" fill="#6396D0"/>
<path d="M52.0717 20.4688C52.0883 20.6248 52.0717 20.7842 52.0152 20.9369L51.9854 21.0232C51.3851 22.6959 50.4887 24.2469 49.3391 25.602L49.2793 25.6717C49.14 25.8363 48.9539 25.9547 48.7457 26.011C48.5376 26.0674 48.3172 26.059 48.1139 25.9871L45.4145 25.0275C44.4241 25.8434 43.3056 26.4897 42.1041 26.94L41.5828 29.7623C41.5435 29.9747 41.4405 30.17 41.2875 30.3225C41.1344 30.4749 40.9387 30.5771 40.7262 30.6156L40.6365 30.6322C39.7688 30.7891 38.8887 30.868 38.0068 30.868H38.0168C38.9033 30.868 39.7898 30.7883 40.6531 30.6322L40.7428 30.6156C40.9553 30.5771 41.151 30.4749 41.3041 30.3225C41.4571 30.17 41.5601 29.9747 41.5994 29.7623L42.1207 26.9434C43.3227 26.4918 44.4316 25.851 45.4277 25.0342L48.1238 25.9938C48.3271 26.0657 48.5475 26.074 48.7557 26.0177C48.9639 25.9613 49.15 25.843 49.2893 25.6783L49.349 25.6086C50.5045 24.2439 51.391 22.7066 51.992 21.0365L52.0219 20.9502C52.075 20.7941 52.0916 20.6281 52.0717 20.4688Z" fill="#6396D0"/>
<path d="M43.8438 15.668C43.8438 14.6619 43.5881 13.7123 43.1398 12.8855C42.1504 11.0627 40.2213 9.82422 38 9.82422C34.7727 9.82422 32.1562 12.4406 32.1562 15.668C32.1562 17.8893 33.3947 19.8184 35.2176 20.8078C36.0443 21.2561 36.9906 21.5117 38 21.5117C41.2273 21.5117 43.8438 18.8953 43.8438 15.668ZM34.2812 15.668C34.2812 14.6752 34.6697 13.7422 35.3703 13.0383C36.0742 12.3344 37.0072 11.9492 38 11.9492C38.9928 11.9492 39.9258 12.3344 40.6297 13.0383C40.9756 13.3832 41.2499 13.7931 41.4368 14.2444C41.6237 14.6957 41.7195 15.1795 41.7188 15.668C41.7188 16.6607 41.3303 17.5938 40.6297 18.2977C40.2848 18.6436 39.8749 18.9178 39.4236 19.1047C38.9723 19.2917 38.4885 19.3875 38 19.3867C37.0072 19.3867 36.0742 18.9982 35.3703 18.2977C35.0244 17.9527 34.7501 17.5429 34.5632 17.0916C34.3763 16.6402 34.2805 16.1564 34.2812 15.668Z" fill="#241861"/>
<path d="M40.7258 30.6151C40.9383 30.5766 41.1341 30.4744 41.2871 30.322C41.4401 30.1695 41.5431 29.9742 41.5824 29.7618L42.1037 26.9396C43.3052 26.4892 44.4238 25.8429 45.4141 25.0271L48.1135 25.9866C48.3168 26.0585 48.5372 26.0669 48.7454 26.0105C48.9535 25.9542 49.1396 25.8358 49.2789 25.6712L49.3387 25.6015C50.4941 24.2368 51.384 22.6962 51.985 21.0228L52.0148 20.9364C52.0713 20.7837 52.0879 20.6243 52.0713 20.4683C52.0414 20.206 51.9152 19.9569 51.7061 19.7743L49.5379 17.9183L49.5313 17.9149C49.6342 17.2841 49.6873 16.6399 49.6873 15.9958C49.6873 15.4347 49.6475 14.8702 49.5678 14.319C49.5578 14.246 49.5445 14.1729 49.5346 14.0999C49.5346 14.0933 49.5313 14.0833 49.5313 14.0767L51.7061 12.2173C51.9352 12.0214 52.068 11.7392 52.0779 11.447C52.0813 11.3142 52.0613 11.178 52.0148 11.0485L51.985 10.9622C51.3863 9.28884 50.4897 7.73762 49.3387 6.3835L49.2789 6.31377C49.1393 6.14959 48.9532 6.03156 48.7451 5.97526C48.5371 5.91895 48.3169 5.927 48.1135 5.99834L45.4141 6.95791C44.418 6.14111 43.309 5.49697 42.107 5.04541H42.1037L41.5824 2.22314C41.5791 2.20654 41.5758 2.18662 41.5691 2.17002C41.5212 1.96927 41.416 1.78678 41.2663 1.64472C41.1165 1.50266 40.9288 1.40716 40.7258 1.36982L40.6361 1.35322C38.9063 1.04111 37.0867 1.04111 35.3568 1.35322L35.2672 1.36982C35.0547 1.40833 34.8589 1.51058 34.7059 1.663C34.5529 1.81542 34.4499 2.01078 34.4106 2.22314L33.8859 5.05869C32.6936 5.51037 31.5832 6.15417 30.5988 6.96455L27.8795 5.99834C27.6762 5.92643 27.4558 5.91809 27.2476 5.97443C27.0395 6.03077 26.8534 6.14913 26.7141 6.31377L26.6543 6.3835C25.5046 7.73859 24.6082 9.28955 24.008 10.9622L23.9781 11.0485C23.9089 11.2415 23.8969 11.4503 23.9434 11.65C23.9899 11.8496 24.0931 12.0316 24.2404 12.1741C24.257 12.1874 24.2703 12.204 24.2869 12.2173L26.4883 14.0966V14.0999C26.3854 14.7241 26.3356 15.3583 26.3356 15.9925C26.3356 16.63 26.3854 17.2675 26.4883 17.8884L24.2869 19.7677C24.1229 19.9081 24.0055 20.0951 23.9503 20.3039C23.8952 20.5127 23.9049 20.7333 23.9781 20.9364L24.008 21.0228C24.609 22.6962 25.4988 24.2401 26.6543 25.6015L26.7141 25.6712C26.8768 25.8604 27.0926 25.9833 27.3283 26.0265C27.5076 26.0597 27.6969 26.0497 27.8795 25.9866L30.5988 25.0204C30.6022 25.0237 30.6088 25.0271 30.6121 25.0304C31.5982 25.8372 32.6973 26.478 33.8859 26.9263L34.4106 29.7618C34.4499 29.9742 34.5529 30.1695 34.7059 30.322C34.8589 30.4744 35.0547 30.5766 35.2672 30.6151L35.3568 30.6317C36.2234 30.7878 37.11 30.8675 37.9965 30.8675H38.0065C38.8897 30.8675 39.7762 30.7878 40.6361 30.6317L40.7258 30.6151ZM39.4043 28.4071C38.4665 28.5134 37.5198 28.5134 36.582 28.4071L35.9877 25.1798L34.7326 24.6983C33.7863 24.3397 32.9065 23.8284 32.1195 23.181L31.077 22.321L27.9758 23.4233C27.4113 22.663 26.9399 21.8429 26.5613 20.9796L29.0682 18.838L28.8524 17.5099C28.7727 17.0151 28.7295 16.5038 28.7295 15.9991C28.7295 15.4911 28.7693 14.9831 28.8524 14.4884L29.0682 13.1603L26.5613 11.0187C26.9365 10.1521 27.4113 9.33525 27.9758 8.5749L31.077 9.67725L32.1195 8.81729C32.9065 8.16982 33.7863 7.6585 34.7326 7.2999L35.991 6.8251L36.5854 3.59775C37.5184 3.4915 38.4713 3.4915 39.4076 3.59775L40.002 6.81846L41.267 7.29326C42.2199 7.65186 43.1065 8.16318 43.9 8.81396L44.9426 9.6706L48.0238 8.57822C48.5883 9.33857 49.0598 10.1587 49.4383 11.022L46.958 13.1437L47.1738 14.4685C47.2568 14.9698 47.3 15.4845 47.3 15.9991C47.3 16.5138 47.2568 17.0284 47.1738 17.5298L46.9547 18.8612L49.435 20.9829C49.059 21.8491 48.5844 22.6691 48.0205 23.4267L44.9393 22.3343L43.8967 23.1909C43.1031 23.8417 42.2199 24.353 41.2637 24.7116L39.9986 25.1864L39.4043 28.4071Z" fill="#241861"/>
<path d="M83.6699 42.293C83.6896 42.4778 83.6699 42.6667 83.603 42.8476L83.5676 42.9499C82.8566 44.9315 81.7946 46.7689 80.4326 48.3743L80.3618 48.4569C80.1968 48.6519 79.9763 48.7921 79.7297 48.8589C79.4831 48.9256 79.222 48.9157 78.9811 48.8306L75.7831 47.6938C74.6099 48.6603 73.2847 49.4259 71.8613 49.9595L71.2438 53.303C71.1972 53.5546 71.0751 53.7861 70.8939 53.9666C70.7126 54.1472 70.4807 54.2683 70.2289 54.3139L70.1227 54.3336C69.0947 54.5195 68.052 54.613 67.0073 54.6129H67.0191C68.0694 54.6129 69.1196 54.5185 70.1424 54.3336L70.2486 54.3139C70.5003 54.2683 70.7323 54.1472 70.9135 53.9666C71.0948 53.7861 71.2168 53.5546 71.2634 53.303L71.881 49.9634C73.305 49.4285 74.6188 48.6693 75.7988 47.7016L78.9929 48.8384C79.2338 48.9236 79.4949 48.9335 79.7415 48.8667C79.9881 48.8 80.2086 48.6598 80.3736 48.4647L80.4444 48.3821C81.8133 46.7654 82.8635 44.9442 83.5755 42.9656L83.6109 42.8633C83.6738 42.6785 83.6935 42.4818 83.6699 42.293Z" fill="#6396D0"/>
<path d="M70.2286 54.3149C70.4804 54.2693 70.7123 54.1482 70.8936 53.9676C71.0749 53.787 71.1969 53.5556 71.2435 53.304L71.8611 49.9605C73.2844 49.4269 74.6096 48.6613 75.7828 47.6947L78.9808 48.8315C79.2217 48.9167 79.4828 48.9266 79.7294 48.8599C79.976 48.7931 80.1965 48.6529 80.3615 48.4578L80.4323 48.3752C81.8012 46.7585 82.8554 44.9334 83.5674 42.9509L83.6028 42.8486C83.6696 42.6676 83.6893 42.4788 83.6696 42.2939C83.6342 41.9832 83.4848 41.6882 83.2369 41.4718L80.6683 39.273L80.6605 39.269C80.7824 38.5217 80.8453 37.7585 80.8453 36.9954C80.8453 36.3307 80.7981 35.662 80.7037 35.009C80.6919 34.9224 80.6762 34.8359 80.6644 34.7494C80.6644 34.7415 80.6605 34.7297 80.6605 34.7218L83.2369 32.519C83.5084 32.287 83.6657 31.9526 83.6775 31.6064C83.6814 31.4491 83.6578 31.2878 83.6028 31.1344L83.5674 31.0321C82.8581 29.0497 81.796 27.212 80.4323 25.6078L80.3615 25.5252C80.1961 25.3306 79.9756 25.1908 79.7291 25.1241C79.4827 25.0574 79.2218 25.0669 78.9808 25.1515L75.7828 26.2883C74.6028 25.3206 73.289 24.5575 71.865 24.0225H71.8611L71.2435 20.679C71.2396 20.6593 71.2356 20.6357 71.2278 20.6161C71.171 20.3782 71.0463 20.162 70.8689 19.9937C70.6916 19.8254 70.4691 19.7123 70.2286 19.6681L70.1224 19.6484C68.073 19.2787 65.9174 19.2787 63.8681 19.6484L63.7619 19.6681C63.5101 19.7137 63.2782 19.8348 63.0969 20.0154C62.9156 20.196 62.7936 20.4274 62.747 20.679L62.1255 24.0383C60.7129 24.5734 59.3975 25.3361 58.2313 26.2961L55.0097 25.1515C54.7688 25.0663 54.5077 25.0564 54.2611 25.1231C54.0145 25.1899 53.794 25.3301 53.629 25.5252L53.5582 25.6078C52.1962 27.2131 51.1342 29.0506 50.4231 31.0321L50.3877 31.1344C50.3058 31.363 50.2915 31.6104 50.3466 31.847C50.4017 32.0835 50.5239 32.2991 50.6985 32.4679C50.7182 32.4836 50.7339 32.5033 50.7536 32.519L53.3615 34.7454V34.7494C53.2396 35.4889 53.1806 36.2402 53.1806 36.9915C53.1806 37.7467 53.2396 38.502 53.3615 39.2376L50.7536 41.464C50.5592 41.6303 50.4201 41.8519 50.3548 42.0992C50.2894 42.3466 50.3009 42.6079 50.3877 42.8486L50.4231 42.9509C51.1351 44.9334 52.1893 46.7625 53.5582 48.3752L53.629 48.4578C53.8217 48.6821 54.0774 48.8276 54.3567 48.8787C54.5691 48.9181 54.7933 48.9063 55.0097 48.8315L58.2313 47.6869C58.2352 47.6908 58.2431 47.6947 58.247 47.6987C59.4153 48.6545 60.7173 49.4137 62.1255 49.9447L62.747 53.304C62.7936 53.5556 62.9156 53.787 63.0969 53.9676C63.2782 54.1482 63.5101 54.2693 63.7619 54.3149L63.8681 54.3346C64.8947 54.5195 65.945 54.6139 66.9952 54.6139H67.007C68.0534 54.6139 69.1036 54.5195 70.1224 54.3346L70.2286 54.3149ZM68.6631 51.6991C67.5521 51.825 66.4305 51.825 65.3195 51.6991L64.6154 47.8757L63.1286 47.3053C62.0075 46.8805 60.9651 46.2747 60.0328 45.5077L58.7977 44.4889L55.1237 45.7948C54.455 44.894 53.8965 43.9224 53.448 42.8997L56.4179 40.3626L56.1622 38.7891C56.0678 38.203 56.0167 37.5973 56.0167 36.9994C56.0167 36.3975 56.0639 35.7957 56.1622 35.2096L56.4179 33.6362L53.448 31.099C53.8925 30.0724 54.455 29.1047 55.1237 28.2039L58.7977 29.5099L60.0328 28.4911C60.9651 27.724 62.0075 27.1183 63.1286 26.6934L64.6194 26.1309L65.3235 22.3075C66.4288 22.1816 67.5577 22.1816 68.667 22.3075L69.3711 26.1231L70.8698 26.6856C71.9987 27.1104 73.049 27.7162 73.9891 28.4871L75.2243 29.502L78.8746 28.2078C79.5433 29.1086 80.1019 30.0802 80.5503 31.103L77.6119 33.6165L77.8676 35.186C77.966 35.78 78.0171 36.3897 78.0171 36.9994C78.0171 37.6091 77.966 38.2188 77.8676 38.8127L77.608 40.3901L80.5464 42.9036C80.1009 43.9299 79.5387 44.9013 78.8707 45.7988L75.2203 44.5046L73.9852 45.5195C73.0451 46.2904 71.9987 46.8962 70.8659 47.321L69.3672 47.8835L68.6631 51.6991Z" fill="#241861"/>
<path d="M80.8896 39.1451L80.8977 39.1491C81.0234 38.3861 81.0842 37.6069 81.0842 36.8357C81.0842 36.1453 81.0315 35.4509 80.9342 34.7726C81.0315 35.4469 81.0802 36.1292 81.0802 36.8115C81.0802 37.5947 81.0153 38.378 80.8896 39.1451ZM50.0568 32.217C50.0365 32.2009 50.0203 32.1847 50 32.1645C50.0284 32.1928 50.0568 32.221 50.0892 32.2493L52.7455 34.5062V34.5021L50.0568 32.217ZM71.8177 23.4963H71.8218L71.1932 20.113C71.1851 20.0727 71.177 20.0363 71.1648 20C71.1689 20.0202 71.177 20.0444 71.1811 20.0646L71.8177 23.4963ZM74.0076 45.5604L75.281 44.5188L79.0444 45.8471C79.7338 44.9225 80.3137 43.9293 80.7719 42.8756L77.7426 40.2957L78.0103 38.6768C78.1116 38.0671 78.1644 37.4413 78.1644 36.8155C78.1644 36.1898 78.1116 35.564 78.0103 34.9543L77.7467 33.3434L80.776 30.7636C80.3137 29.7139 79.7378 28.7166 79.0484 27.7921L75.2851 29.1204L74.0117 28.0787C73.0425 27.2874 71.9597 26.6657 70.7958 26.2296L69.2507 25.6523L68.5248 21.7361C67.3795 21.6069 66.2231 21.6069 65.0778 21.7361L64.3519 25.6604L62.8149 26.2377C61.6591 26.6737 60.5844 27.2955 59.6233 28.0828L58.35 29.1284L54.5623 27.788C53.8729 28.7126 53.2929 29.7058 52.8347 30.7595L55.8965 33.3636L55.6329 34.9786C55.5315 35.5801 55.4828 36.1978 55.4828 36.8155C55.4828 37.4292 55.5355 38.051 55.6329 38.6525L55.8965 40.2675L52.8347 42.8716C53.297 43.9213 53.8729 44.9185 54.5623 45.843L58.35 44.5026L59.6233 45.5483C60.5844 46.3356 61.6591 46.9574 62.8149 47.3934L64.3478 47.9788L65.0737 51.9031C66.2173 52.0323 67.3812 52.0323 68.5208 51.9031L69.2467 47.9869L70.7917 47.4095C71.9597 46.9735 73.0384 46.3518 74.0076 45.5604ZM66.8256 43.5296C65.5887 43.5296 64.4249 43.2147 63.407 42.6616C61.1806 41.4585 59.6679 39.1128 59.6679 36.4118C59.6679 32.4875 62.8635 29.3061 66.8053 29.3061C69.5184 29.3061 71.8745 30.812 73.083 33.0285C73.6386 34.0378 73.9549 35.1966 73.9549 36.432C73.9549 40.3523 70.7634 43.5296 66.8256 43.5296ZM54.4447 48.9599C54.2216 49.0366 53.9905 49.0527 53.7715 49.0083C54.0026 49.0568 54.2459 49.0487 54.4812 48.968L57.7822 47.7971C57.7781 47.7931 57.77 47.789 57.766 47.785L54.4447 48.9599ZM83.5458 32.217L80.8896 34.4779C80.8896 34.486 80.8936 34.4981 80.8936 34.5062L83.5458 32.2493C83.8337 32.003 83.9959 31.6477 84 31.2803C83.9878 31.6356 83.8256 31.9788 83.5458 32.217Z" fill="#6396D0"/>
<path d="M74 36.5C74 35.2088 73.6719 33.9901 73.0966 32.929C71.8267 30.5895 69.3509 29 66.5 29C62.358 29 59 32.358 59 36.5C59 39.3509 60.5895 41.8267 62.929 43.0966C63.9901 43.6719 65.2045 44 66.5 44C70.642 44 74 40.642 74 36.5ZM61.7273 36.5C61.7273 35.2259 62.2259 34.0284 63.125 33.125C64.0284 32.2216 65.2259 31.7273 66.5 31.7273C67.7741 31.7273 68.9716 32.2216 69.875 33.125C70.3189 33.5677 70.671 34.0937 70.9108 34.6729C71.1507 35.2522 71.2737 35.8731 71.2727 36.5C71.2727 37.7741 70.7741 38.9716 69.875 39.875C69.4323 40.3189 68.9063 40.671 68.3271 40.9108C67.7478 41.1507 67.1269 41.2737 66.5 41.2727C65.2259 41.2727 64.0284 40.7741 63.125 39.875C62.6811 39.4323 62.329 38.9063 62.0892 38.3271C61.8493 37.7478 61.7263 37.1269 61.7273 36.5Z" fill="#241861"/>
</g>
<defs>
<clipPath id="clip0_6254_21739">
<rect width="100" height="74" fill="white"/>
</clipPath>
</defs>
</svg>
