<svg width="26" height="26" viewBox="0 0 26 26" fill="none" xmlns="http://www.w3.org/2000/svg">
<g clip-path="url(#clip0_2300_6587)">
<path d="M15.32 14.69L13 12.93L10.69 14.69L11.57 11.84L9.25 10H12.09L13 7.19L13.91 10H16.75L14.44 11.84L15.32 14.69ZM5 11C5 6.58 8.58 3 13 3C17.42 3 21 6.58 21 11C21 13.03 20.24 14.87 19 16.28V24L13 22L7 24V16.28C5.76 14.87 5 13.03 5 11ZM13 5C9.69 5 7 7.69 7 11C7 14.31 9.69 17 13 17C16.31 17 19 14.31 19 11C19 7.69 16.31 5 13 5Z" fill="white"/>
</g>
<defs>
<clipPath id="clip0_2300_6587">
<rect width="24" height="24" fill="white" transform="matrix(-1 0 0 1 25 1)"/>
</clipPath>
</defs>
</svg>
