<svg width="26" height="26" viewBox="0 0 26 26" fill="none" xmlns="http://www.w3.org/2000/svg">
<g id="Icon/health_metrics">
<mask id="mask0_1729_176738" style="mask-type:alpha" maskUnits="userSpaceOnUse" x="0" y="0" width="26" height="26">
<rect id="Bounding box" width="26" height="26" transform="matrix(-1 0 0 1 26 0)" fill="#D9D9D9"/>
</mask>
<g mask="url(#mask0_1729_176738)">
<path id="health_metrics" d="M18.4163 23.8333V18.4166H23.833V13.9027H16.7372L14.8413 16.7375C14.7631 16.8578 14.6608 16.9571 14.5344 17.0354C14.408 17.1136 14.2676 17.1527 14.1132 17.1527C13.9125 17.1527 13.7307 17.0925 13.5677 16.9722C13.4048 16.8518 13.2937 16.7013 13.2344 16.5208L11.6455 11.7722L10.508 13.4875C10.4117 13.6078 10.3004 13.7071 10.174 13.7854C10.0476 13.8636 9.90616 13.9027 9.74967 13.9027H2.16634V18.4166H7.58301V23.8333H18.4163ZM14.3538 14.2278L15.5004 12.4944C15.576 12.3767 15.682 12.2811 15.8183 12.2075C15.9545 12.134 16.0983 12.0972 16.2497 12.0972H23.833V7.58329H18.4163V2.16663H7.58301V7.58329H2.16634V12.0972H9.27119L11.167 9.26246C11.2573 9.14208 11.3656 9.04278 11.492 8.96454C11.6184 8.88631 11.7581 8.84719 11.9111 8.84719C12.1099 8.84719 12.2897 8.90737 12.4503 9.02773C12.6109 9.14811 12.7218 9.29857 12.783 9.47913L14.3538 14.2278Z" fill="white"/>
</g>
</g>
</svg>
