<svg width="26" height="26" viewBox="0 0 26 26" fill="none" xmlns="http://www.w3.org/2000/svg">
<g id="Icon/Inventory" clip-path="url(#clip0_1729_176677)">
<path id="Vector" d="M4.33301 2.16663H21.6663C22.7497 2.16663 23.833 3.14163 23.833 4.33329V7.59413C23.833 9.74996 23.833 9.42496 21.6663 9.42496V21.6666C21.6663 22.8583 20.4747 23.8333 19.4997 23.8333H6.49967C5.52467 23.8333 4.33301 22.8583 4.33301 21.6666V9.42496C2.16634 9.42496 2.16634 9.20829 2.16634 7.59413V4.33329C2.16634 3.14163 3.24967 2.16663 4.33301 2.16663ZM9.74967 15.1666H16.2497V13H9.74967V15.1666ZM4.33301 7.58329H21.6663V4.33329L4.33301 4.31163V7.58329Z" fill="white"/>
</g>
<defs>
<clipPath id="clip0_1729_176677">
<rect width="26" height="26" fill="white" transform="matrix(-1 0 0 1 26 0)"/>
</clipPath>
</defs>
</svg>
