<svg width="22" height="19" viewBox="0 0 22 19" fill="none" xmlns="http://www.w3.org/2000/svg">
<path d="M8.83333 8.99992C11.2266 8.99992 13.1667 7.05982 13.1667 4.66659C13.1667 2.27335 11.2266 0.333252 8.83333 0.333252C6.4401 0.333252 4.5 2.27335 4.5 4.66659C4.5 7.05982 6.4401 8.99992 8.83333 8.99992Z" fill="white"/>
<path d="M9.559 10.1049C9.32067 10.0941 9.08234 10.0833 8.83317 10.0833C6.2115 10.0833 3.76317 10.8091 1.67234 12.0549C0.719004 12.6183 0.166504 13.6799 0.166504 14.7958V17.6666H10.1982C9.34234 16.4424 8.83317 14.9474 8.83317 13.3333C8.83317 12.1741 9.104 11.0908 9.559 10.1049Z" fill="white"/>
<path d="M20.4791 13.3332C20.4791 13.0948 20.4466 12.8782 20.4141 12.6507L21.6491 11.5565L20.5657 9.68234L18.9949 10.2132C18.6482 9.92067 18.2582 9.69317 17.8249 9.53067L17.4999 7.9165H15.3332L15.0082 9.53067C14.5749 9.69317 14.1849 9.92067 13.8382 10.2132L12.2674 9.68234L11.1841 11.5565L12.4191 12.6507C12.3866 12.8782 12.3541 13.0948 12.3541 13.3332C12.3541 13.5715 12.3866 13.7882 12.4191 14.0157L11.1841 15.1098L12.2674 16.984L13.8382 16.4532C14.1849 16.7457 14.5749 16.9732 15.0082 17.1357L15.3332 18.7498H17.4999L17.8249 17.1357C18.2582 16.9732 18.6482 16.7457 18.9949 16.4532L20.5657 16.984L21.6491 15.1098L20.4141 14.0157C20.4466 13.7882 20.4791 13.5715 20.4791 13.3332ZM16.4166 15.4998C15.2249 15.4998 14.2499 14.5248 14.2499 13.3332C14.2499 12.1415 15.2249 11.1665 16.4166 11.1665C17.6082 11.1665 18.5832 12.1415 18.5832 13.3332C18.5832 14.5248 17.6082 15.4998 16.4166 15.4998Z" fill="white"/>
</svg>
