<svg width="29" height="28" viewBox="0 0 29 28" fill="none" xmlns="http://www.w3.org/2000/svg">
<g clip-path="url(#clip0_4979_5749)">
<path d="M27.1434 9.74333L3.25745 9.52148L2.17285 22.7832L28.0554 23.0051L27.1434 9.74333Z" fill="#6F9DD3"/>
<path d="M9.54688 5.30142L9.93722 4.39062H20.0861L20.6065 5.17131V8.68437L9.54688 8.55426V5.30142Z" fill="#1E196A"/>
<path d="M20.511 5.365H9.65699C9.57999 5.365 9.52747 5.28621 9.55733 5.21533L9.83759 4.54903C9.86961 4.47312 9.94373 4.42383 10.0261 4.42383H19.9875C20.0566 4.42383 20.1214 4.45873 20.1588 4.51701L20.6017 5.19842C20.6484 5.27038 20.5966 5.365 20.511 5.365Z" stroke="#212121" stroke-width="0.1" stroke-miterlimit="10"/>
<path d="M20.6145 5.2676C20.6145 5.2676 20.6188 5.26724 20.6188 5.2694V7.49244M9.52051 7.49244L9.55073 5.27695" stroke="#212121" stroke-width="0.1" stroke-miterlimit="10"/>
<path fill-rule="evenodd" clip-rule="evenodd" d="M2.22106 22.7969L28.0363 22.9771L28.1341 24.7382C28.1377 24.8134 28.1233 24.8882 28.092 24.9566L27.5535 25.9852C27.3174 26.5054 26.7979 26.8378 26.227 26.8346L4.0426 26.7015C3.50222 26.6983 3.00861 26.3942 2.76252 25.9129L2.27287 24.9544C2.23869 24.8875 2.2207 24.813 2.2207 24.7379V22.7969H2.22106Z" fill="#6F9DD3" stroke="#212121" stroke-width="0.1" stroke-miterlimit="10"/>
<path d="M3.21032 9.57177L5.08402 7.26562L9.52003 7.30268L9.52183 8.37553C9.51032 8.52915 9.55817 8.62989 9.68913 8.63061L20.5082 8.6986C20.6248 8.69932 20.6129 8.58995 20.6284 8.48598L20.6183 7.40666L24.7708 7.40953L27.0192 9.64558L3.20996 9.57177H3.21032Z" fill="#6F9DD3" stroke="#212121" stroke-width="0.1" stroke-miterlimit="10"/>
<path d="M7.35575 26.709H5.04492V27.458H7.35575V26.709Z" fill="#212121" stroke="#212121" stroke-width="0.1" stroke-miterlimit="10"/>
<path d="M24.9671 26.8164H22.6562V27.5655H24.9671V26.8164Z" fill="#212121" stroke="#212121" stroke-width="0.1" stroke-miterlimit="10"/>
<path d="M25.3754 14.7078C25.5779 14.7078 25.742 14.5437 25.742 14.3412C25.742 14.1387 25.5779 13.9746 25.3754 13.9746C25.1729 13.9746 25.0088 14.1387 25.0088 14.3412C25.0088 14.5437 25.1729 14.7078 25.3754 14.7078Z" fill="white"/>
<path d="M25.4428 15.7918C25.6453 15.7918 25.8094 15.6277 25.8094 15.4252C25.8094 15.2227 25.6453 15.0586 25.4428 15.0586C25.2403 15.0586 25.0762 15.2227 25.0762 15.4252C25.0762 15.6277 25.2403 15.7918 25.4428 15.7918Z" fill="white"/>
<path d="M25.5092 16.8758C25.7117 16.8758 25.8758 16.7117 25.8758 16.5092C25.8758 16.3067 25.7117 16.1426 25.5092 16.1426C25.3067 16.1426 25.1426 16.3067 25.1426 16.5092C25.1426 16.7117 25.3067 16.8758 25.5092 16.8758Z" fill="white"/>
<path d="M25.5766 17.9598C25.779 17.9598 25.9432 17.7956 25.9432 17.5932C25.9432 17.3907 25.779 17.2266 25.5766 17.2266C25.3741 17.2266 25.21 17.3907 25.21 17.5932C25.21 17.7956 25.3741 17.9598 25.5766 17.9598Z" fill="white"/>
<path d="M3.31861 9.47852L2.2207 22.7983" stroke="#212121" stroke-width="0.1" stroke-miterlimit="10"/>
<path d="M27.1523 9.74023L28.018 22.9421" stroke="#212121" stroke-width="0.1" stroke-miterlimit="10"/>
<rect x="6.28906" y="11.1973" width="16.8607" height="9.86002" rx="0.508813" fill="white" stroke="#212121" stroke-width="0.1"/>
<g clip-path="url(#clip1_4979_5749)">
<path d="M20.7645 16.3308H21.4348V14.8625H22.0172V14.3423H20.1822V14.8625H20.7645V16.3308ZM19.398 14.7486C19.2306 14.7486 19.0797 14.7995 18.9606 14.9022V14.2232H18.3188V16.3308H18.9606V15.6009C18.9606 15.3706 19.071 15.2886 19.2022 15.2886C19.3186 15.2886 19.3928 15.3628 19.3928 15.5561V16.3316H20.0347V15.4457C20.0347 14.9574 19.756 14.7495 19.398 14.7495V14.7486ZM17.1343 15.7459C16.9833 15.7459 16.8668 15.6467 16.8668 15.4957C16.8668 15.3447 16.9833 15.249 17.1343 15.249C17.2852 15.249 17.3983 15.3456 17.3983 15.4957C17.3983 15.6458 17.2844 15.7459 17.1343 15.7459ZM17.4241 14.7771V14.9531C17.3275 14.8142 17.1774 14.7486 16.9643 14.7486C16.5692 14.7486 16.2172 15.0359 16.2172 15.4957C16.2172 15.9555 16.5692 16.2454 16.9643 16.2454C17.155 16.2454 17.2965 16.191 17.3931 16.0806V16.1091C17.3931 16.3161 17.2878 16.4326 17.0239 16.4326C16.8565 16.4326 16.6486 16.3731 16.5269 16.279L16.3113 16.7164C16.5045 16.8441 16.7832 16.9097 17.0894 16.9097C17.683 16.9097 18.0358 16.6224 18.0358 16.0202V14.7762H17.425L17.4241 14.7771ZM15.3735 16.3308H16.0154V14.7771H15.3735V16.3308ZM15.6944 14.652C15.9299 14.652 16.0809 14.5096 16.0809 14.3138C16.0809 14.1292 15.9299 13.998 15.6944 13.998C15.4589 13.998 15.3079 14.1404 15.3079 14.325C15.3079 14.5096 15.4589 14.652 15.6944 14.652ZM14.4642 15.0919C14.4642 15.2369 14.3762 15.3249 14.1916 15.3249H13.9475V14.859H14.1916C14.3762 14.859 14.4642 14.947 14.4642 15.0919ZM14.4668 16.3308H15.1829L14.7653 15.7174C15.0043 15.5949 15.1406 15.3792 15.1406 15.0928C15.1406 14.633 14.7886 14.3431 14.2347 14.3431H13.2771V16.3316H13.9475V15.8313H14.1295L14.4677 16.3316L14.4668 16.3308ZM12.1427 15.8623H11.739V15.55H12.1427C12.2902 15.55 12.3644 15.6044 12.3644 15.7062C12.3644 15.808 12.2902 15.8623 12.1427 15.8623ZM12.0521 14.8116C12.2031 14.8116 12.2712 14.8625 12.2712 14.9591C12.2712 15.0557 12.2031 15.1066 12.0521 15.1066H11.7398V14.8116H12.0521ZM12.6715 15.2921C12.8536 15.2015 12.9467 15.048 12.9467 14.8633C12.9467 14.5623 12.6914 14.3431 12.1427 14.3431H11.0799V16.3316H12.1988C12.7475 16.3316 13.0399 16.1298 13.0399 15.783C13.0399 15.5475 12.9036 15.3766 12.6707 15.2912L12.6715 15.2921ZM10.7572 16.3316L10.7512 14.3431H10.1999L9.56927 15.4025L8.92138 14.3423H8.37012V16.3308H8.98091V15.456L9.41312 16.1522H9.70816L10.1404 15.4249L10.1464 16.3308H10.7572V16.3316Z" fill="#1E196A"/>
<path d="M21.2042 17.4146C21.268 17.4146 21.3206 17.4335 21.3595 17.4724C21.3992 17.5112 21.419 17.5681 21.419 17.644V17.9408H21.2689V17.6673C21.2689 17.6259 21.2603 17.5957 21.2421 17.575C21.224 17.5552 21.1981 17.5448 21.1645 17.5448C21.1265 17.5448 21.0963 17.5569 21.0739 17.5802C21.0515 17.6035 21.0403 17.6389 21.0403 17.6846V17.9408H20.8902V17.4223H21.0334V17.4827C21.0532 17.4612 21.0782 17.4439 21.1076 17.4318C21.1369 17.4197 21.1697 17.4137 21.205 17.4137M20.5054 17.8244C20.5442 17.8244 20.5753 17.8114 20.6003 17.7855C20.6253 17.7596 20.6374 17.7243 20.6374 17.6811C20.6374 17.638 20.6253 17.6026 20.6003 17.5768C20.5753 17.5509 20.5442 17.5379 20.5054 17.5379C20.4666 17.5379 20.4355 17.5509 20.4096 17.5768C20.3846 17.6026 20.3717 17.638 20.3717 17.6811C20.3717 17.7243 20.3846 17.7596 20.4096 17.7855C20.4347 17.8114 20.4666 17.8244 20.5054 17.8244ZM20.5054 17.9477C20.451 17.9477 20.4019 17.9365 20.3587 17.9132C20.3156 17.8908 20.2811 17.8589 20.2569 17.8183C20.2328 17.7778 20.2207 17.732 20.2207 17.6803C20.2207 17.6285 20.2328 17.5828 20.2569 17.5422C20.2811 17.5017 20.3156 17.4698 20.3587 17.4474C20.4019 17.4249 20.451 17.4128 20.5054 17.4128C20.5597 17.4128 20.6089 17.4241 20.6521 17.4474C20.6952 17.4698 20.7288 17.5017 20.753 17.5422C20.7771 17.5828 20.7892 17.6285 20.7892 17.6803C20.7892 17.732 20.7771 17.7778 20.753 17.8183C20.7288 17.8589 20.6952 17.8908 20.6521 17.9132C20.6089 17.9356 20.5606 17.9477 20.5054 17.9477ZM20.0439 17.3499C20.0162 17.3499 19.9938 17.3421 19.9766 17.3257C19.9593 17.3093 19.9507 17.2895 19.9507 17.2662C19.9507 17.2429 19.9593 17.2222 19.9766 17.2067C19.9938 17.1903 20.0162 17.1825 20.0439 17.1825C20.0715 17.1825 20.0939 17.1903 20.1111 17.2058C20.1284 17.2213 20.137 17.2403 20.137 17.2636C20.137 17.2886 20.1284 17.3093 20.1111 17.3257C20.0939 17.3421 20.0715 17.3499 20.0439 17.3499ZM19.9688 17.4223H20.1189V17.9408H19.9688V17.4223ZM19.8843 17.9158C19.8696 17.927 19.8515 17.9348 19.8299 17.94C19.8083 17.9451 19.7859 17.9477 19.7617 17.9477C19.7005 17.9477 19.6522 17.9322 19.6185 17.9003C19.5849 17.8692 19.5676 17.8226 19.5676 17.7614V17.5483H19.4874V17.4327H19.5676V17.3067H19.7178V17.4327H19.8472V17.5483H19.7178V17.7596C19.7178 17.7812 19.7238 17.7985 19.735 17.8105C19.7462 17.8226 19.7618 17.8287 19.7825 17.8287C19.8066 17.8287 19.8265 17.8226 19.8428 17.8097L19.8834 17.9158H19.8843ZM19.4106 17.4223V17.9408H19.2683V17.8796C19.2484 17.902 19.2243 17.9192 19.1967 17.9313C19.1691 17.9434 19.1389 17.9494 19.107 17.9494C19.0388 17.9494 18.9853 17.9296 18.9448 17.8908C18.9051 17.852 18.8852 17.7933 18.8852 17.7165V17.4241H19.0354V17.6949C19.0354 17.7786 19.0707 17.82 19.1406 17.82C19.1768 17.82 19.2053 17.808 19.2269 17.7847C19.2484 17.7614 19.2597 17.726 19.2597 17.6803V17.4241H19.4098L19.4106 17.4223ZM18.5988 17.2256H18.7489V17.9408H18.5988V17.2256ZM18.2141 17.8252C18.2529 17.8252 18.2839 17.8123 18.309 17.7864C18.334 17.7605 18.3461 17.7251 18.3461 17.682C18.3461 17.6389 18.334 17.6035 18.309 17.5776C18.2839 17.5517 18.2529 17.5388 18.2141 17.5388C18.1752 17.5388 18.1433 17.5517 18.1183 17.5776C18.0933 17.6035 18.0803 17.6389 18.0803 17.682C18.0803 17.7251 18.0933 17.7605 18.1183 17.7864C18.1433 17.8123 18.1752 17.8252 18.2141 17.8252ZM18.2141 17.9486C18.1597 17.9486 18.1105 17.9374 18.0674 17.9141C18.0243 17.8916 17.9898 17.8597 17.9656 17.8192C17.9415 17.7786 17.9294 17.7329 17.9294 17.6811C17.9294 17.6294 17.9415 17.5837 17.9656 17.5431C17.9898 17.5026 18.0243 17.4706 18.0674 17.4482C18.1105 17.4258 18.1597 17.4137 18.2141 17.4137C18.2684 17.4137 18.3176 17.4249 18.3607 17.4482C18.4039 17.4706 18.4375 17.5026 18.4617 17.5431C18.4858 17.5837 18.4979 17.6294 18.4979 17.6811C18.4979 17.7329 18.4858 17.7786 18.4617 17.8192C18.4375 17.8597 18.4039 17.8916 18.3607 17.9141C18.3176 17.9365 18.2693 17.9486 18.2141 17.9486ZM17.5852 17.952C17.5317 17.952 17.4799 17.9451 17.4307 17.9305C17.3807 17.9158 17.341 17.8968 17.3108 17.8744L17.3634 17.7571C17.3919 17.7786 17.4264 17.795 17.4661 17.808C17.5058 17.8209 17.5455 17.8269 17.5852 17.8269C17.6292 17.8269 17.6619 17.82 17.6835 17.8071C17.7051 17.7942 17.7154 17.776 17.7154 17.7545C17.7154 17.7381 17.7094 17.7251 17.6964 17.7148C17.6835 17.7044 17.668 17.6958 17.6481 17.6889C17.6283 17.6829 17.6024 17.6751 17.5688 17.6673C17.517 17.6553 17.4756 17.6432 17.4428 17.6311C17.41 17.619 17.3816 17.5992 17.3583 17.5724C17.335 17.5457 17.3229 17.5095 17.3229 17.4646C17.3229 17.4258 17.3333 17.3896 17.3548 17.3585C17.3764 17.3266 17.4083 17.3016 17.4506 17.2826C17.4929 17.2636 17.5455 17.255 17.6067 17.255C17.6499 17.255 17.6921 17.2601 17.7327 17.2705C17.7741 17.2809 17.8095 17.2955 17.8405 17.3145L17.7922 17.4327C17.7301 17.3973 17.668 17.3801 17.605 17.3801C17.561 17.3801 17.5291 17.387 17.5084 17.4016C17.4877 17.4154 17.4773 17.4344 17.4773 17.4577C17.4773 17.481 17.4894 17.4983 17.5136 17.5095C17.5377 17.5207 17.5748 17.5319 17.624 17.5431C17.6757 17.5552 17.7172 17.5673 17.7499 17.5793C17.7827 17.5914 17.8112 17.6104 17.8345 17.6371C17.8578 17.6639 17.8699 17.6993 17.8699 17.7441C17.8699 17.7829 17.8595 17.8174 17.8379 17.8494C17.8164 17.8813 17.7844 17.9063 17.7413 17.9253C17.6982 17.9443 17.6455 17.9529 17.5843 17.9529L17.5852 17.952ZM16.6353 17.393H16.4197V17.2662H17.0072V17.393H16.7915V17.94H16.6353V17.393ZM16.2238 17.5103C16.2238 17.4724 16.2117 17.443 16.1876 17.4232C16.1634 17.4034 16.1272 17.393 16.0806 17.393H15.9538V17.6277H16.0806C16.1272 17.6277 16.1634 17.6173 16.1876 17.5966C16.2117 17.5759 16.2238 17.5474 16.2238 17.5103ZM16.2264 17.94L16.0961 17.7519H15.9529V17.94H15.7968V17.2653H16.0884C16.1479 17.2653 16.1997 17.2757 16.2437 17.2955C16.2877 17.3154 16.3213 17.3438 16.3455 17.3801C16.3696 17.4163 16.3808 17.4603 16.3808 17.5103C16.3808 17.5604 16.3688 17.6035 16.3446 17.6397C16.3204 17.676 16.2859 17.7036 16.2419 17.7234L16.3929 17.94H16.2255H16.2264ZM15.3974 17.8226C15.4388 17.8226 15.4698 17.8157 15.4905 17.8028C15.5112 17.789 15.5216 17.7683 15.5216 17.7398C15.5216 17.6837 15.4802 17.6561 15.3974 17.6561H15.2153V17.8226H15.3974ZM15.2153 17.3835V17.5422H15.3706C15.4094 17.5422 15.4388 17.5353 15.4586 17.5224C15.4784 17.5086 15.4888 17.4888 15.4888 17.4629C15.4888 17.437 15.4784 17.4172 15.4586 17.4034C15.4388 17.3904 15.4094 17.3835 15.3706 17.3835H15.2153ZM15.5552 17.5897C15.5941 17.6018 15.6242 17.6225 15.6458 17.6509C15.6674 17.6794 15.6786 17.7148 15.6786 17.7562C15.6786 17.8149 15.6553 17.8606 15.6096 17.8925C15.5639 17.9244 15.4966 17.94 15.4086 17.94H15.06V17.2653H15.3896C15.4715 17.2653 15.5345 17.2809 15.5785 17.3128C15.6225 17.3438 15.6441 17.387 15.6441 17.4413C15.6441 17.4741 15.6363 17.5034 15.6208 17.5293C15.6053 17.5552 15.5828 17.575 15.5544 17.5897H15.5552ZM14.7538 17.94V17.5353L14.5545 17.8683H14.4846L14.2871 17.544V17.94H14.1404V17.2653H14.2698L14.5226 17.6846L14.771 17.2653H14.8996L14.9013 17.94H14.7546H14.7538ZM13.4433 17.7364L13.3709 17.808V17.94H13.2208V17.2248H13.3709V17.6294L13.5909 17.4215H13.7703L13.5546 17.6415L13.7893 17.94H13.6073L13.4433 17.7364ZM12.9309 17.2248H13.081V17.94H12.9309V17.2248ZM12.7161 17.349C12.6885 17.349 12.6661 17.3412 12.6488 17.3248C12.6315 17.3085 12.6229 17.2886 12.6229 17.2653C12.6229 17.242 12.6315 17.2213 12.6488 17.2058C12.6661 17.1894 12.6885 17.1816 12.7161 17.1816C12.7437 17.1816 12.7661 17.1894 12.7834 17.2049C12.8006 17.2205 12.8093 17.2394 12.8093 17.2627C12.8093 17.2878 12.8006 17.3085 12.7834 17.3248C12.7661 17.3412 12.7437 17.349 12.7161 17.349ZM12.641 17.4215H12.7911V17.94H12.641V17.4215ZM12.3451 17.94V17.5353L12.1458 17.8683H12.0751L11.8775 17.544V17.94H11.7309V17.2653H11.8603L12.1131 17.6846L12.3615 17.2653H12.4901L12.4918 17.94H12.3451ZM11.3634 17.9149C11.3487 17.9261 11.3306 17.9339 11.309 17.9391C11.2875 17.9443 11.265 17.9469 11.2409 17.9469C11.1796 17.9469 11.1313 17.9313 11.0977 17.8994C11.064 17.8683 11.0468 17.8218 11.0468 17.7605V17.5474H10.9665V17.4318H11.0468V17.3059H11.1969V17.4318H11.3263V17.5474H11.1969V17.7588C11.1969 17.7804 11.2029 17.7976 11.2141 17.8097C11.2253 17.8218 11.2409 17.8278 11.2616 17.8278C11.2857 17.8278 11.3056 17.8218 11.322 17.8088L11.3625 17.9149H11.3634ZM10.7431 17.4905C10.7612 17.4655 10.7854 17.4465 10.8156 17.4335C10.8458 17.4206 10.8811 17.4146 10.9208 17.4146V17.5535C10.9044 17.5526 10.8932 17.5517 10.8872 17.5517C10.844 17.5517 10.8104 17.5638 10.7862 17.588C10.7621 17.6121 10.75 17.6484 10.75 17.6967V17.9417H10.5999V17.4232H10.7431V17.4913V17.4905ZM10.203 17.8468C10.2289 17.8468 10.2514 17.8407 10.2712 17.8287C10.291 17.8166 10.3048 17.7993 10.3135 17.776V17.7234H10.2108C10.1496 17.7234 10.1185 17.7433 10.1185 17.7838C10.1185 17.8028 10.1263 17.8183 10.1409 17.8295C10.1556 17.8407 10.1763 17.8468 10.203 17.8468ZM10.2143 17.4146C10.2945 17.4146 10.3566 17.4335 10.3989 17.4715C10.442 17.5095 10.4636 17.5673 10.4636 17.644V17.94H10.323V17.8752C10.2945 17.9236 10.2419 17.9477 10.1651 17.9477C10.1254 17.9477 10.0909 17.9408 10.0616 17.9279C10.0322 17.9141 10.0098 17.896 9.99427 17.8718C9.97874 17.8476 9.97098 17.8209 9.97098 17.7907C9.97098 17.7424 9.9891 17.7044 10.0253 17.6768C10.0616 17.6492 10.1176 17.6354 10.1936 17.6354H10.3126C10.3126 17.6026 10.3023 17.5776 10.2824 17.5595C10.2626 17.5422 10.2324 17.5328 10.1927 17.5328C10.1651 17.5328 10.1383 17.5371 10.1116 17.5457C10.0849 17.5543 10.0624 17.5664 10.0434 17.5811L9.9891 17.4758C10.0176 17.456 10.0512 17.4404 10.0909 17.4292C10.1306 17.418 10.1711 17.4128 10.2125 17.4128L10.2143 17.4146ZM9.65868 17.4146C9.72339 17.4146 9.77515 17.4335 9.81311 17.4715C9.85106 17.5095 9.87004 17.5673 9.87004 17.6432V17.94H9.71993V17.6665C9.71993 17.6251 9.71131 17.5949 9.69405 17.5742C9.6768 17.5543 9.65264 17.544 9.62159 17.544C9.58622 17.544 9.55861 17.5552 9.5379 17.5785C9.5172 17.6009 9.50685 17.6354 9.50685 17.6803V17.94H9.35674V17.6665C9.35674 17.5845 9.32396 17.544 9.25839 17.544C9.22388 17.544 9.19628 17.5552 9.17557 17.5785C9.15487 17.6009 9.14451 17.6354 9.14451 17.6803V17.94H8.9944V17.4215H9.13761V17.481C9.15659 17.4594 9.18075 17.4422 9.20835 17.431C9.23596 17.4197 9.26702 17.4137 9.30066 17.4137C9.3369 17.4137 9.37054 17.4206 9.39987 17.4353C9.4292 17.4499 9.45336 17.4706 9.47148 17.4983C9.49304 17.4715 9.51979 17.4508 9.55171 17.4353C9.58449 17.4206 9.61986 17.4128 9.65782 17.4128L9.65868 17.4146ZM8.61223 17.952C8.55874 17.952 8.50698 17.9451 8.45781 17.9305C8.40777 17.9158 8.36809 17.8968 8.33789 17.8744L8.39052 17.7571C8.41898 17.7786 8.45349 17.795 8.49318 17.808C8.53286 17.8209 8.57254 17.8269 8.61223 17.8269C8.65623 17.8269 8.68901 17.82 8.71058 17.8071C8.73214 17.7942 8.7425 17.776 8.7425 17.7545C8.7425 17.7381 8.73646 17.7251 8.72352 17.7148C8.71058 17.7044 8.69505 17.6958 8.67521 17.6889C8.65536 17.6829 8.62948 17.6751 8.59584 17.6673C8.54408 17.6553 8.50267 17.6432 8.46988 17.6311C8.4371 17.619 8.40863 17.5992 8.38534 17.5724C8.36205 17.5457 8.34997 17.5095 8.34997 17.4646C8.34997 17.4258 8.36032 17.3896 8.38189 17.3585C8.40346 17.3266 8.43538 17.3016 8.47765 17.2826C8.51992 17.2636 8.57254 17.255 8.6338 17.255C8.67693 17.255 8.7192 17.2601 8.75975 17.2705C8.80116 17.2809 8.83653 17.2955 8.86759 17.3145L8.81928 17.4327C8.75716 17.3973 8.69505 17.3801 8.63207 17.3801C8.58807 17.3801 8.55615 17.387 8.53545 17.4016C8.51474 17.4154 8.50439 17.4344 8.50439 17.4577C8.50439 17.481 8.51647 17.4983 8.54062 17.5095C8.56478 17.5207 8.60188 17.5319 8.65105 17.5431C8.70281 17.5552 8.74422 17.5673 8.777 17.5793C8.80979 17.5914 8.83826 17.6104 8.86155 17.6371C8.88484 17.6639 8.89692 17.6993 8.89692 17.7441C8.89692 17.7829 8.88657 17.8174 8.865 17.8494C8.84343 17.8813 8.81151 17.9063 8.76838 17.9253C8.72524 17.9443 8.67262 17.9529 8.61137 17.9529L8.61223 17.952Z" fill="#1E196A"/>
</g>
</g>
<defs>
<clipPath id="clip0_4979_5749">
<rect width="26.3756" height="23.9409" fill="white" transform="translate(2 4)"/>
</clipPath>
<clipPath id="clip1_4979_5749">
<rect width="13.6798" height="3.95288" fill="white" transform="translate(8.33691 13.998)"/>
</clipPath>
</defs>
</svg>
