<svg width="24" height="25" viewBox="0 0 24 25" fill="none" xmlns="http://www.w3.org/2000/svg">
<path d="M11.9997 2.5C10.1432 2.5 8.36269 3.2375 7.04994 4.55025C5.73718 5.86301 4.99969 7.64348 4.99969 9.5V13.028C4.99983 13.1831 4.96388 13.3362 4.89469 13.475L3.17769 16.908C3.09381 17.0757 3.05421 17.2621 3.06263 17.4494C3.07106 17.6368 3.12724 17.8188 3.22583 17.9783C3.32442 18.1379 3.46216 18.2695 3.62595 18.3608C3.78975 18.4521 3.97416 18.5 4.16169 18.5H19.8377C20.0252 18.5 20.2096 18.4521 20.3734 18.3608C20.5372 18.2695 20.6749 18.1379 20.7735 17.9783C20.8721 17.8188 20.9283 17.6368 20.9367 17.4494C20.9452 17.2621 20.9056 17.0757 20.8217 16.908L19.1057 13.475C19.0361 13.3362 18.9999 13.1832 18.9997 13.028V9.5C18.9997 7.64348 18.2622 5.86301 16.9494 4.55025C15.6367 3.2375 13.8562 2.5 11.9997 2.5ZM11.9997 21.5C11.379 21.5003 10.7736 21.3081 10.2667 20.9499C9.75985 20.5917 9.37657 20.0852 9.16969 19.5H14.8297C14.6228 20.0852 14.2395 20.5917 13.7327 20.9499C13.2258 21.3081 12.6203 21.5003 11.9997 21.5Z" fill="#707070"/>
</svg>
