<svg width="42" height="40" viewBox="0 0 42 40" fill="none" xmlns="http://www.w3.org/2000/svg">
<path d="M3.40486 33.4451C2.93202 33.09 2.65332 32.5332 2.65332 31.942V29.75L4.12007 30.4834C4.75637 30.8015 5.15845 31.4522 5.15845 32.1637V34.7603L3.40486 33.4451Z" fill="white"/>
<path d="M21.4431 28.5078C21.4431 30.237 19.7609 31.6392 17.6854 31.6392C15.6099 31.6392 13.9277 30.237 13.9277 28.5078" fill="white"/>
<path d="M31.4619 35.4742V35.3859L31.6673 34.5642C32.3625 31.7823 32.7144 28.9258 32.7144 26.058V25.9453C32.1107 26.9098 31.3166 27.7584 30.3414 28.4085L30.2093 28.4968L30.1692 28.5281C30.1028 30.5967 29.9557 32.6622 29.7271 34.7195L29.6162 35.7153C29.9782 35.5118 30.3903 35.3859 30.8356 35.3859C31.0529 35.3859 31.2608 35.4222 31.4619 35.4742Z" fill="white"/>
<path d="M12.07 35.4821L12.0474 35.3863L12.3192 33.4824C12.5553 31.8309 12.6737 30.165 12.6737 28.4972V28.2585C12.4482 28.1922 12.2203 28.1371 11.9973 28.0631L11.5026 27.8984C10.5249 30.2921 9.86483 32.8072 9.54355 35.3794L9.5423 35.3863H8.91602C9.37633 35.3863 9.80346 35.514 10.1717 35.732C10.5406 35.5178 10.964 35.3863 11.4211 35.3863C11.6472 35.3863 11.862 35.4257 12.07 35.4821Z" fill="white"/>
<path d="M11.4226 35.3906C12.8061 35.3906 13.9277 36.5123 13.9277 37.8958V39.1483H8.91748V37.8958C8.91748 36.5123 10.0392 35.3906 11.4226 35.3906Z" fill="white"/>
<path d="M30.8367 35.3906C32.2201 35.3906 33.3418 36.5123 33.3418 37.8958V39.1483H28.3315V37.8958C28.3315 36.5123 29.4532 35.3906 30.8367 35.3906Z" fill="white"/>
<path d="M8.91577 35.3906C10.2992 35.3906 11.4209 36.5123 11.4209 37.8958V39.1483H6.41064V37.8958C6.41064 36.5123 7.53231 35.3906 8.91577 35.3906Z" fill="white"/>
<path d="M28.3303 35.3906C29.7138 35.3906 30.8354 36.5123 30.8354 37.8958V39.1483H25.8252V37.8958C25.8252 36.5123 26.9469 35.3906 28.3303 35.3906Z" fill="white"/>
<path d="M33.968 21.6141V21.6411C33.968 24.3635 32.6077 26.9056 30.3425 28.4156L30.2103 28.5032L30.1703 28.5345C30.1039 30.6031 29.9567 32.6686 29.7281 34.726L29.5841 36.0186H27.0789L26.8961 35.1957C26.3625 32.7945 26.0274 30.3533 25.894 27.897L25.8928 27.8769H25.8264L25.2502 28.0692C23.1428 28.7713 20.9364 29.1295 18.7149 29.1295H18.5333C16.3119 29.1295 14.1049 28.7713 11.9975 28.0692L11.5027 27.9045C10.5251 30.2982 9.86496 32.8133 9.54368 35.3854L9.54305 35.3923H7.66421L5.78536 27.8769L5.21795 19.3658C5.17912 18.7808 5.23173 18.1928 5.3739 17.6241L5.44091 17.3567C6.0221 15.0307 9.61006 15.7167 11.9975 15.5L19.5 15L20.1898 10.3411C20.1898 8.95761 21.3115 7.83594 22.695 7.83594H24.5738" fill="white"/>
<path d="M23.9461 18.4813L23.3324 9.8856C23.3242 9.77099 23.3198 9.65576 23.3198 9.54115C23.3198 6.86881 25.4855 4.70312 28.1572 4.70312H32.26C34.9323 4.70312 37.098 6.86881 37.098 9.54052C37.098 9.65576 37.0936 9.77037 37.0855 9.88498L36.4717 18.4813" fill="white"/>
<path d="M26.453 5.328L26.2426 5.01236C25.5631 3.9934 25.2004 2.79532 25.2004 1.57031L23.7913 2.62685C23.1011 3.14478 22.6953 3.95707 22.6953 4.81946C22.6953 5.54595 22.984 6.243 23.4982 6.75718L23.9479 7.20685" fill="white"/>
<path d="M33.9678 5.328L34.1782 5.01236C34.8577 3.9934 35.2203 2.79532 35.2203 1.57031L36.6295 2.62685C37.3196 3.14478 37.7255 3.95707 37.7255 4.81946C37.7255 5.54595 37.4367 6.243 36.9226 6.75718L36.4729 7.20685" fill="white"/>
<path d="M23.3213 7.83594H22.8848C21.9836 7.83594 21.1425 8.28623 20.6427 9.03589C20.3471 9.47867 20.1899 9.99849 20.1899 10.5308V12.2199H20.9528C21.6673 12.2199 22.3531 11.9362 22.8585 11.4308L23.3213 10.9673" fill="white"/>
<path d="M37.0986 7.83594H37.5352C38.4364 7.83594 39.2775 8.28623 39.7772 9.03589C40.0728 9.47867 40.23 9.99849 40.23 10.5308V12.2199H39.4672C38.7526 12.2199 38.0669 11.9362 37.5615 11.4308L37.0986 10.9673" fill="white"/>
<path d="M28.3322 15.3516C29.0055 15.3516 29.6411 15.463 30.2111 15.6572C30.781 15.463 31.4166 15.3516 32.0899 15.3516C34.5111 15.3516 36.4739 16.7538 36.4739 18.483C36.4739 20.2121 34.5111 21.6144 32.0899 21.6144C31.4166 21.6144 30.781 21.5029 30.2111 21.3088C29.6411 21.5029 29.0055 21.6144 28.3322 21.6144C25.911 21.6144 23.9482 20.2121 23.9482 18.483C23.9482 16.7538 25.911 15.3516 28.3322 15.3516Z" fill="white"/>
<path d="M32.2621 4.70312H31.907C30.8668 5.62125 30.2104 6.96463 30.2104 8.46081C30.2104 11.2277 32.4538 13.4711 35.2207 13.4711C35.7925 13.4711 36.3392 13.3702 36.8509 13.1943L37.087 9.88561C37.0952 9.771 37.0995 9.65576 37.0995 9.54115C37.0995 6.86881 34.9339 4.70312 32.2621 4.70312Z" fill="white"/>
<path d="M17.6833 19.1094C19.0668 19.1094 20.1885 20.231 20.1885 21.6145C20.1885 21.6458 20.1803 21.6746 20.1791 21.7059C20.3832 21.6521 20.5937 21.6145 20.8148 21.6145C22.1982 21.6145 23.3199 22.7362 23.3199 24.1196C23.3199 25.5031 22.1982 26.6248 20.8148 26.6248C19.4313 26.6248 18.3096 25.5031 18.3096 24.1196C18.3096 24.0883 18.3178 24.0595 18.319 24.0282C18.1149 24.0821 17.9044 24.1196 17.6833 24.1196C16.2999 24.1196 15.1782 22.998 15.1782 21.6145C15.1782 20.231 16.2999 19.1094 17.6833 19.1094Z" fill="white"/>
<path d="M5.78516 26.6222C7.51432 26.6222 8.91656 25.2199 8.91656 23.4908C8.91656 21.7616 7.51432 20.3594 5.78516 20.3594" fill="white"/>
<path d="M32.0878 22.2341C31.4421 22.2341 30.8114 22.1421 30.2089 21.9598C29.6064 22.1421 28.9758 22.2341 28.3301 22.2341C25.5675 22.2341 23.3198 20.5488 23.3198 18.4764C23.3198 16.4041 25.5675 14.7188 28.3301 14.7188C28.9758 14.7188 29.6064 14.8108 30.2089 14.9931C30.8114 14.8108 31.4421 14.7188 32.0878 14.7188C34.8503 14.7188 37.098 16.4041 37.098 18.4764C37.098 20.5488 34.8503 22.2341 32.0878 22.2341ZM30.2089 20.6766C30.2766 20.6766 30.3448 20.6878 30.41 20.7098C30.9423 20.8901 31.5066 20.9816 32.0878 20.9816C34.1244 20.9816 35.8455 19.8342 35.8455 18.4764C35.8455 17.1187 34.1244 15.9713 32.0878 15.9713C31.5066 15.9713 30.9423 16.0627 30.41 16.2437C30.2791 16.2876 30.1382 16.2876 30.0073 16.2437C29.4755 16.0627 28.9113 15.9713 28.3301 15.9713C26.2934 15.9713 24.5724 17.1187 24.5724 18.4764C24.5724 19.8342 26.2934 20.9816 28.3301 20.9816C28.9113 20.9816 29.4755 20.8901 30.0079 20.7091C30.073 20.6872 30.1413 20.6766 30.2089 20.6766Z" fill="#2A2867"/>
<path d="M33.6543 19.1054C33.1363 19.1054 32.7148 18.6839 32.7148 18.166C32.7148 17.648 33.1363 17.2266 33.6543 17.2266C34.1722 17.2266 34.5937 17.648 34.5937 18.166C34.5937 18.6839 34.1722 19.1054 33.6543 19.1054Z" fill="#2A2867"/>
<path d="M26.7646 19.1054C26.2467 19.1054 25.8252 18.6839 25.8252 18.166C25.8252 17.648 26.2467 17.2266 26.7646 17.2266C27.2826 17.2266 27.704 17.648 27.704 18.166C27.704 18.6839 27.2826 19.1054 26.7646 19.1054Z" fill="#2A2867"/>
<path d="M37.0984 18.5271L35.8496 18.4375L36.4633 9.84117C36.4702 9.74347 36.474 9.64264 36.474 9.54243C36.474 7.22018 34.5845 5.33069 32.2623 5.33069H28.1595C25.8379 5.33069 23.9484 7.22018 23.9484 9.54243C23.9484 9.64264 23.9521 9.74347 23.9596 9.84305L24.5728 18.4381L23.324 18.5277L22.7102 9.93135C22.7008 9.80109 22.6958 9.67207 22.6958 9.54243C22.6958 6.52939 25.1471 4.07812 28.1601 4.07812H32.2629C35.2753 4.07812 37.7266 6.52939 37.7266 9.54243C37.7266 9.67207 37.7215 9.80109 37.7134 9.9301L37.0984 18.5271Z" fill="#2A2867"/>
<path d="M34.2822 11.5898C33.7643 11.5898 33.3428 11.1683 33.3428 10.6504C33.3428 10.1324 33.7643 9.71094 34.2822 9.71094C34.8001 9.71094 35.2216 10.1324 35.2216 10.6504C35.2216 11.1683 34.8001 11.5898 34.2822 11.5898Z" fill="#2A2867"/>
<path d="M26.1382 11.5898C25.6202 11.5898 25.1987 11.1683 25.1987 10.6504C25.1987 10.1324 25.6202 9.71094 26.1382 9.71094C26.6561 9.71094 27.0776 10.1324 27.0776 10.6504C27.0776 11.1683 26.6561 11.5898 26.1382 11.5898Z" fill="#2A2867"/>
<path d="M23.5049 7.65064L23.0546 7.20034C22.4189 6.56529 22.0688 5.71919 22.0688 4.82047C22.0688 3.76644 22.5724 2.76001 23.4154 2.12746L24.8245 1.0703C25.0136 0.927508 25.2685 0.906214 25.4802 1.0108C25.6925 1.11727 25.8265 1.33396 25.8265 1.57133C25.8265 2.67609 26.151 3.7464 26.7635 4.66578L26.9739 4.98143L25.9318 5.67597L25.7213 5.36033C25.1909 4.56432 24.8376 3.67688 24.6754 2.74748L24.1669 3.12889C23.6377 3.52595 23.3214 4.15849 23.3214 4.82047C23.3214 5.37724 23.5469 5.9221 23.9402 6.31541L24.3905 6.7657L23.5049 7.65064Z" fill="#2A2867"/>
<path d="M36.9153 7.65064L36.0297 6.76508L36.48 6.31478C36.8733 5.92148 37.0988 5.37661 37.0988 4.82047C37.0988 4.15849 36.7825 3.52658 36.2533 3.12951L35.7447 2.74873C35.5825 3.67814 35.2293 4.56558 34.6989 5.36158L34.4884 5.67723L33.4463 4.98268L33.6567 4.66703C34.2692 3.7464 34.5936 2.67609 34.5936 1.57133C34.5936 1.33396 34.7277 1.11727 34.94 1.0108C35.1517 0.906214 35.4059 0.927508 35.5957 1.0703L37.0048 2.12746C37.8484 2.76001 38.3513 3.76644 38.3513 4.82047C38.3513 5.71981 38.0012 6.56529 37.3656 7.20097L36.9153 7.65064Z" fill="#2A2867"/>
<path d="M20.9535 12.8397H20.1907C19.8444 12.8397 19.5645 12.5597 19.5645 12.2134V10.5243C19.5645 9.86607 19.7573 9.22915 20.1225 8.6824C20.7394 7.75613 21.7721 7.20312 22.8856 7.20312H23.3221V8.45569H22.8856C22.1923 8.45569 21.5485 8.80014 21.1646 9.37695C20.9366 9.71765 20.817 10.1141 20.817 10.5243V11.5871H20.9535C21.5059 11.5871 22.0251 11.3717 22.4159 10.9815L22.8794 10.518L23.7649 11.4036L23.3015 11.867C22.6746 12.494 21.8404 12.8397 20.9535 12.8397Z" fill="#2A2867"/>
<path d="M40.23 12.8475H39.4671C38.5803 12.8475 37.7461 12.5018 37.1192 11.8749L36.6558 11.4114L37.5413 10.5258L38.0048 10.9893C38.3956 11.3795 38.9148 11.5949 39.4671 11.5949H39.6037V10.5321C39.6037 10.1225 39.484 9.72546 39.2561 9.38476C38.8722 8.80796 38.229 8.4635 37.5351 8.4635H37.0985V7.21094H37.5351C38.648 7.21094 39.6813 7.76394 40.2982 8.68959C40.6633 9.23633 40.8562 9.87389 40.8562 10.5321V12.2212C40.8562 12.5675 40.5763 12.8475 40.23 12.8475Z" fill="#2A2867"/>
<path d="M35.2191 14.0983C32.1108 14.0983 29.5825 11.57 29.5825 8.46178C29.5825 6.84534 30.2777 5.30469 31.4908 4.23438L32.32 5.1738C31.3762 6.00613 30.8351 7.20483 30.8351 8.46178C30.8351 10.8786 32.8022 12.8457 35.2191 12.8457C35.7883 12.8457 36.3413 12.7387 36.8624 12.527L37.3334 13.6881C36.662 13.9599 35.9505 14.0983 35.2191 14.0983Z" fill="#2A2867"/>
<path d="M7.05678 35.5421L5.17793 28.0268C5.16854 27.9904 5.1629 27.9541 5.1604 27.9165L4.59299 19.4054C4.54977 18.754 4.60739 18.1027 4.76647 17.4695L4.83222 17.2027C5.47792 14.6206 7.69183 12.7248 10.3416 12.4837L20.1329 11.5938L20.2469 12.8413L10.4556 13.7312C8.33564 13.9241 6.56452 15.4404 6.04784 17.5052L5.98145 17.7733C5.85432 18.2806 5.80797 18.8016 5.84242 19.3227L6.40607 27.7775L8.27114 35.239L7.05678 35.5421Z" fill="#2A2867"/>
<path d="M11.4217 39.7759H6.41144C6.0651 39.7759 5.78516 39.4959 5.78516 39.1496V37.897C5.78516 36.1704 7.18991 34.7656 8.91656 34.7656C10.6432 34.7656 12.048 36.1704 12.048 37.897V39.1496C12.048 39.4959 11.768 39.7759 11.4217 39.7759ZM7.03772 38.5233H10.7954V37.897C10.7954 36.8612 9.95243 36.0182 8.91656 36.0182C7.88069 36.0182 7.03772 36.8612 7.03772 37.897V38.5233Z" fill="#2A2867"/>
<path d="M13.9266 39.7759H11.4214V38.5233H13.3003V37.897C13.3003 36.8612 12.4573 36.0182 11.4214 36.0182C11.0908 36.0182 10.7657 36.1052 10.4833 36.2687L9.85449 35.1852C10.3286 34.9103 10.8697 34.7656 11.4214 34.7656C13.1481 34.7656 14.5529 36.1704 14.5529 37.897V39.1496C14.5529 39.4959 14.2729 39.7759 13.9266 39.7759Z" fill="#2A2867"/>
<path d="M10.1646 35.4572L8.91895 35.335L8.91957 35.3275C9.34607 31.9124 10.3356 28.6438 11.8637 25.5863L12.1136 25.0859L13.234 25.6465L12.9841 26.1469C11.5193 29.0766 10.5711 32.2093 10.1646 35.4572Z" fill="#2A2867"/>
<path d="M12.6687 35.4858L11.4287 35.3086L11.7011 33.4047C11.9316 31.7858 12.0487 30.1386 12.0487 28.5078H13.3013C13.3013 30.1969 13.1804 31.9041 12.9412 33.5819L12.6687 35.4858Z" fill="#2A2867"/>
<path d="M18.7141 29.7544H18.5331C16.2409 29.7544 13.9757 29.3868 11.7993 28.6616L11.2231 28.4693L11.6196 27.2819L12.1958 27.4741C14.2431 28.1555 16.3749 28.5019 18.5325 28.5019H18.7135C20.871 28.5019 23.0035 28.1555 25.0508 27.4735L25.627 27.2812L26.0234 28.4687L25.4473 28.661C23.2715 29.3868 21.0063 29.7544 18.7141 29.7544Z" fill="#2A2867"/>
<path d="M8.29102 37.2656H9.54358V39.1445H8.29102V37.2656Z" fill="#2A2867"/>
<path d="M30.8353 39.7759H25.825C25.4787 39.7759 25.1987 39.4959 25.1987 39.1496V37.897C25.1987 36.1704 26.6035 34.7656 28.3301 34.7656C30.0568 34.7656 31.4615 36.1704 31.4615 37.897V39.1496C31.4615 39.4959 31.1816 39.7759 30.8353 39.7759ZM26.4513 38.5233H30.209V37.897C30.209 36.8612 29.366 36.0182 28.3301 36.0182C27.2943 36.0182 26.4513 36.8612 26.4513 37.897V38.5233Z" fill="#2A2867"/>
<path d="M33.3401 39.7759H30.835V38.5233H32.7139V37.897C32.7139 36.8612 31.8709 36.0182 30.835 36.0182C30.5043 36.0182 30.1793 36.1052 29.8969 36.2687L29.2681 35.1852C29.7422 34.9103 30.2833 34.7656 30.835 34.7656C32.5617 34.7656 33.9664 36.1704 33.9664 37.897V39.1496C33.9664 39.4959 33.6865 39.7759 33.3401 39.7759Z" fill="#2A2867"/>
<path d="M27.7061 37.2656H28.9586V39.1445H27.7061V37.2656Z" fill="#2A2867"/>
<path d="M26.4657 36.1499L26.2872 35.3457C25.5651 32.0935 25.1987 28.7572 25.1987 25.4279L26.4513 25.3672C26.4513 28.6658 26.8076 31.9112 27.5103 35.0739L27.6888 35.8781L26.4657 36.1499Z" fill="#2A2867"/>
<path d="M30.2055 36.0816L28.9604 35.9432L29.1039 34.6505C29.422 31.7934 29.583 28.885 29.583 26.0053L30.8355 25.9922C30.8355 28.9307 30.6714 31.8861 30.3495 34.7889L30.2055 36.0816Z" fill="#2A2867"/>
<path d="M30.5583 29.0195L29.8638 27.9774L29.9959 27.8891C32.0908 26.4925 33.3421 24.1546 33.3421 21.6363L34.5947 21.6094V21.6363C34.5947 24.5742 33.1348 27.3017 30.6905 28.9312L30.5583 29.0195Z" fill="#2A2867"/>
<path d="M32.0693 35.5386L30.855 35.2342L31.0604 34.4125C31.7418 31.6832 32.0881 28.8725 32.0881 26.0586V25.9922H33.3407V26.0586C33.3407 28.9739 32.9825 31.8874 32.2748 34.7163L32.0693 35.5386Z" fill="#2A2867"/>
<path d="M5.15924 35.3962C5.02647 35.3962 4.8937 35.3542 4.78347 35.2709L3.02988 33.9557C2.40235 33.4848 2.02783 32.7357 2.02783 31.9516V20.5408C2.02783 17.5785 5.15924 15 8.15617 14.7969L8.5 16.0018C5.78552 16.0018 3.2804 18.1346 3.2804 20.5408V29.3726L4.40081 29.9331C5.25444 30.3596 5.78552 31.2182 5.78552 32.1733V34.7699C5.78552 35.0072 5.6515 35.2239 5.43919 35.3304C5.35088 35.3743 5.25444 35.3962 5.15924 35.3962ZM3.2804 30.773V31.9516C3.2804 32.3437 3.46765 32.7188 3.78205 32.9543L4.53296 33.5173V32.1733C4.53296 31.6955 4.26742 31.2665 3.84092 31.0529L3.2804 30.773Z" fill="white"/>
<path d="M13.9266 18.4817C11.8543 18.4817 10.1689 16.7964 10.1689 14.724C10.1689 13.9036 10.4289 13.1238 10.9205 12.4688L11.9225 13.2209C11.5944 13.6574 11.4215 14.1772 11.4215 14.724C11.4215 16.1056 12.5451 17.2291 13.9266 17.2291C15.3082 17.2291 16.4318 16.1056 16.4318 14.724C16.4318 14.1766 16.2589 13.6568 15.9314 13.2215L16.9322 12.4694C17.4244 13.1226 17.6843 13.9023 17.6843 14.724C17.6843 16.7964 15.999 18.4817 13.9266 18.4817Z" fill="#2A2867"/>
<path d="M20.8151 27.2523C19.3026 27.2523 18.0369 26.1745 17.7469 24.7466C17.725 24.7472 17.7043 24.7472 17.6837 24.7472C15.957 24.7472 14.5522 23.3424 14.5522 21.6158C14.5522 19.8891 15.957 18.4844 17.6837 18.4844C19.1961 18.4844 20.4618 19.5622 20.7518 20.9901C20.7737 20.9895 20.7944 20.9895 20.8151 20.9895C22.5417 20.9895 23.9465 22.3943 23.9465 24.1209C23.9465 25.8476 22.5417 27.2523 20.8151 27.2523ZM18.3193 23.4032C18.4609 23.4032 18.5993 23.4508 18.712 23.5416C18.8667 23.6662 18.9531 23.8566 18.945 24.0545C18.9444 24.0758 18.9375 24.1384 18.9343 24.1597C18.9362 25.1568 19.7792 25.9998 20.8151 25.9998C21.8509 25.9998 22.6939 25.1568 22.6939 24.1209C22.6939 23.085 21.8509 22.2421 20.8151 22.2421C20.6741 22.2421 20.5232 22.2646 20.3391 22.3128C20.1462 22.3629 19.942 22.3197 19.7873 22.1957C19.6326 22.0717 19.5456 21.8807 19.5537 21.6828C19.5544 21.6615 19.5612 21.5976 19.5644 21.577C19.5625 20.5799 18.7195 19.7369 17.6837 19.7369C16.6478 19.7369 15.8048 20.5799 15.8048 21.6158C15.8048 22.6517 16.6478 23.4946 17.6837 23.4946C17.8239 23.4946 17.9755 23.4721 18.1615 23.4239C18.2135 23.4101 18.2667 23.4032 18.3193 23.4032Z" fill="#2A2867"/>
<path d="M5.78516 27.2498V25.9972C7.16673 25.9972 8.29028 24.8736 8.29028 23.4921C8.29028 22.1105 7.16673 20.9869 5.78516 20.9869V19.7344C7.85752 19.7344 9.54285 21.4197 9.54285 23.4921C9.54285 25.5644 7.85752 27.2498 5.78516 27.2498Z" fill="#2A2867"/>
<path d="M17.6852 32.2655C15.2684 32.2655 13.3013 30.5802 13.3013 28.5078H14.5538C14.5538 29.8894 15.9586 31.0129 17.6852 31.0129C19.4119 31.0129 20.8166 29.8894 20.8166 28.5078H22.0692C22.0692 30.5802 20.1021 32.2655 17.6852 32.2655Z" fill="#2A2867"/>
<path d="M15.8062 31.6328H17.0587V33.5117H15.8062V31.6328Z" fill="#2A2867"/>
<path d="M18.3105 31.6328H19.5631V33.5117H18.3105V31.6328Z" fill="#2A2867"/>
<path d="M13.3787 18.754C16.8514 18.754 19.6666 15.9388 19.6666 12.4661C19.6666 8.99345 16.8514 6.17827 13.3787 6.17827C9.90604 6.17827 7.09086 8.99345 7.09086 12.4661C7.09086 15.9388 9.90604 18.754 13.3787 18.754Z" stroke="#2A2867" stroke-width="0.909091"/>
<path d="M8.72668 5.5C8.15268 5.66056 7.62926 5.97613 7.20908 6.41499C6.78889 6.85384 6.48674 7.4005 6.33301 8M17.2727 5.5C17.8467 5.66056 18.3701 5.97613 18.7903 6.41499C19.2105 6.85384 19.5126 7.4005 19.6663 8" stroke="white" stroke-width="1.25" stroke-linecap="round"/>
<path fill-rule="evenodd" clip-rule="evenodd" d="M19.2121 12.474C19.2121 15.6956 16.6004 18.3073 13.3787 18.3073C10.1571 18.3073 7.54541 15.6956 7.54541 12.474C7.54541 9.2523 10.1571 6.64062 13.3787 6.64062C16.6004 6.64062 19.2121 9.2523 19.2121 12.474ZM13.4162 9.5C13.4162 9.26988 13.2296 9.08333 12.9995 9.08333C12.7694 9.08333 12.5828 9.26988 12.5828 9.5V12.625C12.5828 12.9701 12.8627 13.25 13.2078 13.25H15.4995C15.7296 13.25 15.9162 13.0635 15.9162 12.8333C15.9162 12.6032 15.7296 12.4167 15.4995 12.4167H13.4162V9.5Z" fill="white"/>
</svg>
