<svg width="26" height="27" viewBox="0 0 26 27" fill="none" xmlns="http://www.w3.org/2000/svg">
<g clip-path="url(#clip0_1_2)">
<path d="M9.34893 0.275513C8.40851 0.275513 7.68936 0.991839 7.57872 1.87347H11.0638C11.0085 0.991839 10.2894 0.275513 9.34893 0.275513Z" fill="white"/>
<path d="M5.97448 5.67551H12.7787C12.8894 5.67551 12.9447 5.62041 12.9447 5.51021V3.80204V3.52653C12.8894 3.08572 12.5575 2.7551 12.1702 2.7551H11.5617H7.13618H6.52767C6.14043 2.7551 5.80852 3.08572 5.80852 3.47143V3.74694V5.51021C5.80852 5.62041 5.86384 5.67551 5.97448 5.67551Z" fill="white"/>
<path d="M10.234 20.002H3.92766C3.65107 20.002 3.48511 19.7816 3.48511 19.5612C3.48511 19.2857 3.70639 19.1204 3.92766 19.1204H9.73616C9.45957 18.4041 9.23829 17.6878 9.12765 16.9163H3.87234C3.59575 16.9163 3.42979 16.6959 3.42979 16.4755C3.42979 16.2 3.65107 16.0347 3.87234 16.0347H9.01701C9.01701 15.9245 9.01701 15.7592 9.01701 15.649C9.01701 15.0429 9.07233 14.4367 9.18297 13.8306H3.87234C3.59575 13.8306 3.42979 13.6101 3.42979 13.3897C3.42979 13.1142 3.65107 12.949 3.87234 12.949H9.40425C9.68084 12.1775 10.0128 11.4061 10.4553 10.7449H3.81703C3.54043 10.7449 3.37447 10.5245 3.37447 10.3041C3.37447 10.0286 3.59575 9.86326 3.81703 9.86326H11.1191C12.7787 7.98979 15.1574 6.77755 17.8681 6.77755C17.9234 6.77755 18.034 6.77755 18.0894 6.77755V6.28163C18.0894 5.23466 17.2042 4.35303 16.1532 4.35303H13.8298V5.51018C13.8298 6.11633 13.3319 6.55714 12.7787 6.55714H5.97446C5.36596 6.55714 4.92341 6.06122 4.92341 5.51018V4.24283H2.43405C1.38298 4.24283 0.497879 5.12446 0.497879 6.17143V24.7959C0.497879 25.8429 1.38298 26.7245 2.43405 26.7245H16.3191C17.3702 26.7245 18.2553 25.8429 18.2553 24.7959V24.5204C18.2 24.5204 18.0894 24.5204 18.034 24.5204C14.6596 24.5204 11.783 22.702 10.234 20.002ZM11.5617 23.0878H3.92766C3.65107 23.0878 3.48511 22.8673 3.48511 22.6469C3.48511 22.3714 3.70639 22.2061 3.92766 22.2061H11.5617C11.8383 22.2061 12.0042 22.4265 12.0042 22.6469C12.0042 22.8673 11.8383 23.0878 11.5617 23.0878Z" fill="white"/>
<path d="M21.2979 12.7837C21.0766 12.2878 20.8 11.902 20.4128 11.4612C20.3574 11.4061 20.2468 11.351 20.1915 11.351H19.0298C19.1957 11.351 20.3574 11.1857 20.3021 9.20204C20.3021 9.09184 20.3574 8.98164 20.4681 8.92653C20.5787 8.87143 20.6894 8.87143 20.8 8.92653C20.8553 8.92653 21.5745 9.36735 21.7957 10.249C21.9617 11.0204 21.7957 11.8469 21.2979 12.7837Z" fill="white"/>
<path d="M17.2596 11.351H16.2085C16.0979 11.351 16.0426 11.4061 15.9872 11.4612C15.6 11.8469 15.3234 12.2878 15.0468 12.7837C14.4936 11.8469 14.383 11.0204 14.5489 10.249C14.8255 9.31225 15.5447 8.92653 15.5447 8.92653C15.6553 8.87143 15.766 8.87143 15.8766 8.92653C15.9872 8.98164 16.0426 9.09184 16.0426 9.20204C15.8766 11.1857 17.0936 11.351 17.2596 11.351Z" fill="white"/>
<path d="M25.4468 14.1612C24.9489 14.7674 24.3957 15.2082 23.8979 15.4837C23.566 15.7041 23.1234 15.8143 22.6808 15.8143L22.0723 15.8693C22.0723 15.9245 22.017 15.9796 22.017 16.0347L21.9064 16.3102C21.6851 16.9714 21.4638 17.6327 21.2979 18.1837C20.5787 17.5776 19.4723 17.1918 18.1447 17.1918C16.817 17.1918 15.7106 17.5776 14.9915 18.1837C14.8255 17.5776 14.6042 16.9714 14.383 16.3102L14.2723 16.0347C14.2723 15.9796 14.2723 15.9796 14.217 15.9245L13.5532 15.8693C13.1106 15.8142 12.7234 15.7041 12.3362 15.5388C11.783 15.2633 11.2851 14.8224 10.7872 14.2163C10.6766 14.1061 10.6766 13.9959 10.7319 13.8857C10.7872 13.7755 10.8979 13.7204 11.0638 13.7204C11.3957 13.7755 12.0596 13.5 12.8894 12.949C13.3872 12.6184 13.9957 12.5633 14.5489 12.7286C14.6596 12.7837 14.8255 12.8388 14.9362 12.8939C14.9362 12.8939 14.9362 12.8387 14.9915 12.8387C15.2681 12.3428 15.1021 12.2327 15.4894 11.8469C15.5447 11.7918 15.9872 11.2959 16.0425 11.2959H20.1915C20.3021 11.2959 20.4684 11.351 20.5237 11.4061C20.9109 11.7918 21.0766 12.1776 21.2979 12.6735C21.2979 12.6735 21.2979 12.8939 21.3532 12.8939C21.4638 12.8388 21.5745 12.7837 21.6851 12.7286C22.2383 12.5633 22.8468 12.6184 23.3447 12.949C24.1745 13.5 24.8383 13.7755 25.1702 13.7204C25.2808 13.7204 25.4468 13.7755 25.5021 13.8857C25.5574 13.9408 25.5574 14.051 25.4468 14.1612Z" fill="white"/>
<path d="M18.1447 17.798C16.2638 17.798 14.7702 18.7347 14.7702 19.947C14.7702 21.1592 16.2638 22.0959 18.1447 22.0959C20.0255 22.0959 21.5192 21.1592 21.5192 19.947C21.5192 18.7347 20.0255 17.798 18.1447 17.798ZM16.9277 20.2776H16.3192C16.1532 20.2776 15.9872 20.1123 15.9872 19.947C15.9872 19.7817 16.1532 19.6163 16.3192 19.6163H16.9277C17.0936 19.6163 17.2596 19.7817 17.2596 19.947C17.2596 20.1123 17.0936 20.2776 16.9277 20.2776ZM19.9702 20.2776H19.3617C19.1957 20.2776 19.0298 20.1123 19.0298 19.947C19.0298 19.7817 19.1957 19.6163 19.3617 19.6163H19.9702C20.1362 19.6163 20.3021 19.7817 20.3021 19.947C20.3021 20.1123 20.1362 20.2776 19.9702 20.2776Z" fill="white"/>
</g>
<defs>
<clipPath id="clip0_1_2">
<rect width="26" height="27" fill="white"/>
</clipPath>
</defs>
</svg>
