<svg width="107" height="30" viewBox="0 0 107 30" fill="none" xmlns="http://www.w3.org/2000/svg">
<path id="Combined Shape" fill-rule="evenodd" clip-rule="evenodd" d="M73.4712 24.5671H72.383L73.8562 28.4424C73.7954 28.6587 73.707 28.8374 73.5928 28.9778C73.4785 29.1182 73.3022 29.1877 73.0637 29.1877C72.9346 29.1877 72.7893 29.1716 72.6289 29.1406L72.7183 29.938C72.9084 29.979 73.102 30 73.2983 30C73.4934 30 73.6687 29.979 73.8225 29.938C73.9778 29.897 74.1082 29.8398 74.2139 29.7654C74.3196 29.6921 74.4138 29.5952 74.4946 29.477C74.5767 29.3579 74.6624 29.1865 74.7532 28.9617L74.9988 28.2898L76.3628 24.5671L75.3045 24.5671L74.3989 27.3108L73.4712 24.5671ZM72.2892 25.379V24.5667H71.5888V23.1953L70.5678 23.7989V24.5667H70.0983V25.379H70.5678V27.0721C70.5678 27.4359 70.579 27.6768 70.6 27.7962C70.6273 27.9652 70.6747 28.098 70.744 28.1974C70.8124 28.2955 70.9206 28.3763 71.0683 28.4383C71.2162 28.5003 71.3813 28.5316 71.5651 28.5316C71.8659 28.5316 72.1342 28.4806 72.3713 28.3788L72.2856 27.5838C72.1056 27.6495 71.9687 27.682 71.8732 27.682C71.8049 27.682 71.7477 27.6644 71.7006 27.6309C71.6523 27.596 71.6225 27.5526 71.6086 27.5006C71.5951 27.4483 71.5888 27.2633 71.5888 26.9454V25.379H72.2892ZM69.7587 24.5674H68.7377V28.4353H69.7587V24.5674ZM69.7587 23.099H68.7377V24.0455H69.7587V23.099ZM66.073 28.4353H67.094V27.2427C67.094 26.5857 67.1228 26.1536 67.18 25.9473C67.2371 25.7412 67.3152 25.5996 67.4146 25.52C67.5139 25.4419 67.6358 25.4018 67.7798 25.4018C67.9275 25.4018 68.0879 25.4577 68.2605 25.5696L68.5772 24.6779C68.3611 24.5498 68.1363 24.4853 67.9026 24.4853C67.7376 24.4853 67.5899 24.5251 67.4595 24.6057C67.3289 24.6865 67.1824 24.8567 67.0196 25.1162V24.5674H66.073V28.4353ZM64.5523 27.8558V28.4347H65.4986V24.5667H64.4778V26.2012C64.4778 26.7564 64.4517 27.1043 64.4007 27.2472C64.3497 27.39 64.2552 27.5091 64.1163 27.6048C63.9771 27.7005 63.8206 27.7489 63.6453 27.7489C63.4915 27.7489 63.3648 27.713 63.2654 27.641C63.1648 27.5702 63.0965 27.4718 63.0594 27.349C63.0205 27.2262 63.002 26.8931 63.002 26.3477V24.5667H61.981V27.0199C61.981 27.3848 62.0269 27.6707 62.1201 27.878C62.2119 28.0843 62.3611 28.2457 62.5684 28.3602C62.7747 28.4742 63.0083 28.5316 63.2691 28.5316C63.5237 28.5316 63.7659 28.4708 63.9957 28.349C64.2254 28.2259 64.4107 28.0619 64.5523 27.8558ZM59.1076 27.4071C58.9348 27.1983 58.8491 26.8768 58.8491 26.4408C58.8491 26.0606 58.9311 25.7738 59.0961 25.5799C59.2602 25.3863 59.4677 25.2891 59.7175 25.2891C59.9572 25.2891 60.1584 25.3873 60.3198 25.5848C60.4826 25.7823 60.5632 26.0843 60.5632 26.4918C60.5632 26.9276 60.4851 27.2408 60.3274 27.432C60.1694 27.6234 59.9719 27.7191 59.7348 27.7191C59.489 27.7191 59.279 27.6146 59.1076 27.4071ZM58.7969 24.5664H57.8427V29.9024H58.8638V27.9674C59.0552 28.1734 59.239 28.3189 59.4116 28.4034C59.5854 28.4889 59.7793 28.5313 59.9929 28.5313C60.4426 28.5313 60.8252 28.3524 61.1406 27.9935C61.4561 27.6343 61.614 27.1326 61.614 26.4854C61.614 25.857 61.4575 25.365 61.1445 25.0135C60.8313 24.6607 60.4502 24.4844 60.0017 24.4844C59.7446 24.4844 59.5098 24.544 59.2986 24.6631C59.0874 24.7837 58.9211 24.9402 58.7969 25.1341V24.5664ZM53.7213 24.5674H53.1551V25.3721H53.7213V28.4353H54.7426V25.3721H55.5102V24.5674H54.7426V24.2915C54.7426 24.0927 54.776 23.9585 54.8419 23.8891C54.9076 23.8195 55.0158 23.7846 55.1674 23.7846C55.3214 23.7846 55.4816 23.8044 55.6478 23.843L55.7785 23.1328C55.4977 23.0456 55.2106 23.0021 54.9188 23.0021C54.6332 23.0021 54.3971 23.0529 54.2096 23.1535C54.0233 23.2543 53.8954 23.3847 53.8258 23.5461C53.7562 23.7065 53.7213 23.9499 53.7213 24.2754V24.5674ZM50.4184 27.3904C50.237 27.1865 50.1464 26.8923 50.1464 26.5085C50.1464 26.1247 50.237 25.8303 50.4184 25.6267C50.6008 25.4216 50.8244 25.3198 51.0915 25.3198C51.3574 25.3198 51.581 25.4216 51.761 25.6267C51.9411 25.8303 52.032 26.1223 52.032 26.501C52.032 26.8899 51.9411 27.1865 51.761 27.3904C51.581 27.5955 51.3574 27.6973 51.0915 27.6973C50.8244 27.6973 50.6008 27.5955 50.4184 27.3904ZM49.3449 25.4659C49.1772 25.784 49.0939 26.1131 49.0939 26.4534C49.0939 26.898 49.1772 27.2757 49.3449 27.585C49.5126 27.8956 49.7573 28.1302 50.0778 28.2906C50.3996 28.4508 50.7372 28.5316 51.0913 28.5316C51.664 28.5316 52.1384 28.339 52.5161 27.9539C52.8923 27.5689 53.0813 27.0833 53.0813 26.4969C53.0813 25.9156 52.895 25.4361 52.521 25.0547C52.1472 24.6746 51.6689 24.4847 51.0839 24.4847C50.705 24.4847 50.3635 24.5691 50.0566 24.7369C49.7497 24.9046 49.5126 25.1468 49.3449 25.4659ZM46.8285 25.379V24.5667H46.1279V23.1953L45.1068 23.7989V24.5667H44.6374V25.379H45.1068V27.0721C45.1068 27.4359 45.1181 27.6768 45.1391 27.7962C45.1667 27.9652 45.2135 28.098 45.2834 28.1974C45.3515 28.2955 45.4596 28.3763 45.6073 28.4383C45.7553 28.5003 45.9203 28.5316 46.1042 28.5316C46.405 28.5316 46.673 28.4806 46.9103 28.3788L46.8246 27.5838C46.6447 27.6495 46.508 27.682 46.4123 27.682C46.3439 27.682 46.2868 27.6644 46.2397 27.6309C46.1911 27.596 46.1613 27.5526 46.1479 27.5006C46.1342 27.4483 46.1279 27.2633 46.1279 26.9454V25.379H46.8285ZM44.2926 24.5674H43.2716V28.4353H44.2926V24.5674ZM44.2926 23.099H43.2716V24.0455H44.2926V23.099ZM41.5556 27.8558V28.4347H42.5024V24.5667H41.4811V26.2012C41.4811 26.7564 41.4552 27.1043 41.4042 27.2472C41.3532 27.39 41.2587 27.5091 41.1198 27.6048C40.9806 27.7005 40.8241 27.7489 40.6488 27.7489C40.4948 27.7489 40.3683 27.713 40.2689 27.641C40.1684 27.5702 40.1 27.4718 40.0626 27.349C40.0241 27.2262 40.0055 26.8931 40.0055 26.3477V24.5667L38.9845 24.5667V27.0199C38.9845 27.3848 39.0304 27.6707 39.1237 27.878C39.2155 28.0843 39.3646 28.2457 39.5722 28.3602C39.7782 28.4742 40.0116 28.5316 40.2726 28.5316C40.5272 28.5316 40.7694 28.4708 40.9992 28.349C41.2289 28.2259 41.4142 28.0619 41.5556 27.8558ZM35.3767 28.2123C35.07 27.9998 34.8686 27.7118 34.7744 27.3465L35.8027 27.19C35.8462 27.3875 35.9346 27.5377 36.0686 27.6397C36.2014 27.7428 36.3889 27.7935 36.6287 27.7935C36.8933 27.7935 37.092 27.7454 37.2263 27.6483C37.3157 27.5799 37.3604 27.4881 37.3604 27.3739C37.3604 27.297 37.3355 27.232 37.2871 27.1812C37.2363 27.1329 37.1218 27.087 36.9456 27.046C36.1196 26.8634 35.5967 26.6969 35.3755 26.5465C35.0686 26.3367 34.916 26.046 34.916 25.6746C34.916 25.3379 35.0488 25.056 35.3135 24.8274C35.5779 24.5989 35.9878 24.4847 36.5432 24.4847C37.0723 24.4847 37.4661 24.5716 37.7232 24.7442C37.9802 24.918 38.158 25.1739 38.2549 25.513L37.2935 25.692C37.2524 25.5403 37.1729 25.4236 37.0574 25.3428C36.9419 25.2623 36.7766 25.2225 36.5618 25.2225C36.291 25.2225 36.0972 25.2598 35.9792 25.3355C35.9009 25.389 35.8625 25.4586 35.8625 25.543C35.8625 25.6163 35.896 25.6783 35.9643 25.7293C36.0576 25.7977 36.3767 25.8931 36.9231 26.0174C37.4697 26.1417 37.8511 26.2933 38.0672 26.4732C38.282 26.6546 38.3889 26.9093 38.3889 27.2347C38.3889 27.5887 38.241 27.8941 37.9444 28.149C37.6487 28.4037 37.2102 28.5316 36.6287 28.5316C36.1023 28.5316 35.6848 28.4247 35.3767 28.2123ZM32.4742 28.4353H33.4952V27.2427C33.4952 26.5857 33.5238 26.1536 33.5809 25.9473C33.6381 25.7412 33.7162 25.5996 33.8156 25.52C33.9152 25.4419 34.0367 25.4018 34.1808 25.4018C34.3287 25.4018 34.4889 25.4577 34.6615 25.5696L34.9782 24.6779C34.7621 24.5498 34.5372 24.4853 34.3038 24.4853C34.1386 24.4853 33.9908 24.5251 33.8605 24.6057C33.7301 24.6865 33.5836 24.8567 33.4208 25.1162V24.5674H32.4742V28.4353ZM30.8046 27.8558V28.4347H31.7509V24.5667H30.7299V26.2012C30.7299 26.7564 30.704 27.1043 30.653 27.2472C30.602 27.39 30.5075 27.5091 30.3686 27.6048C30.2294 27.7005 30.0729 27.7489 29.8976 27.7489C29.7438 27.7489 29.6169 27.713 29.5177 27.641C29.4172 27.5702 29.3488 27.4718 29.3114 27.349C29.2729 27.2262 29.2543 26.8931 29.2543 26.3477V24.5667H28.2333V27.0199C28.2333 27.3848 28.2792 27.6707 28.3722 27.878C28.4643 28.0843 28.6134 28.2457 28.8207 28.3602C29.0268 28.4742 29.2607 28.5316 29.5214 28.5316C29.776 28.5316 30.0182 28.4708 30.248 28.349C30.4777 28.2259 30.663 28.0619 30.8046 27.8558ZM25.211 27.4071C25.0384 27.1983 24.9525 26.8768 24.9525 26.4408C24.9525 26.0606 25.0345 25.7738 25.1998 25.5799C25.3639 25.3863 25.5714 25.2891 25.8209 25.2891C26.0607 25.2891 26.2621 25.3873 26.4235 25.5848C26.5861 25.7823 26.6669 26.0843 26.6669 26.4918C26.6669 26.9276 26.5887 27.2408 26.4308 27.432C26.2731 27.6234 26.0756 27.7191 25.8382 27.7191C25.5924 27.7191 25.3824 27.6146 25.211 27.4071ZM24.9 24.5664H23.9462V29.9024H24.9672V27.9674C25.1583 28.1734 25.3422 28.3189 25.515 28.4034C25.6889 28.4889 25.8825 28.5313 26.0961 28.5313C26.5458 28.5313 26.9286 28.3524 27.2441 27.9935C27.5595 27.6343 27.7172 27.1326 27.7172 26.4854C27.7172 25.857 27.5607 25.365 27.2477 25.0135C26.9347 24.6607 26.5534 24.4844 26.1049 24.4844C25.8478 24.4844 25.6129 24.544 25.402 24.6631C25.1906 24.7837 25.0243 24.9402 24.9 25.1341V24.5664ZM20.1076 25.5003C20.2529 25.6543 20.3288 25.8804 20.3361 26.1775H18.8119C18.8097 25.898 18.8803 25.6756 19.0256 25.5127C19.1711 25.3501 19.3549 25.2681 19.5773 25.2681C19.7858 25.2681 19.9623 25.3452 20.1076 25.5003ZM21.2989 27.3839L20.2779 27.2122C20.222 27.4061 20.14 27.5465 20.0306 27.6334C19.9227 27.7203 19.7887 27.7638 19.6283 27.7638C19.3949 27.7638 19.1986 27.6795 19.0418 27.5106C18.8841 27.3416 18.8021 27.1055 18.7948 26.8023H21.3512C21.3661 26.0174 21.2071 25.4349 20.8753 25.0547C20.5426 24.6746 20.089 24.4847 19.5152 24.4847C19.0035 24.4847 18.5799 24.6661 18.2457 25.0298C17.9117 25.3926 17.744 25.8956 17.744 26.5367C17.744 27.0743 17.8719 27.5191 18.1265 27.8719C18.4483 28.3116 18.9464 28.5316 19.6182 28.5316C20.0421 28.5316 20.3958 28.4334 20.6791 28.2384C20.961 28.0421 21.1686 27.7577 21.2989 27.3839ZM14.7756 25.0764V23.0991H13.7546V28.4353H14.7756V26.5C14.7756 26.1758 14.8066 25.9299 14.8701 25.7646C14.9321 25.5984 15.0303 25.4741 15.1655 25.3921C15.301 25.3088 15.4539 25.2678 15.6252 25.2678C15.7754 25.2678 15.8997 25.3 15.999 25.3647C16.0986 25.428 16.1682 25.5149 16.2078 25.6243C16.2463 25.7336 16.2664 25.991 16.2664 26.3957V28.4353H17.2871V26.1697C17.2871 25.8232 17.2698 25.5671 17.2337 25.4018C17.199 25.2368 17.1331 25.0864 17.0364 24.9511C16.9395 24.8144 16.7966 24.7038 16.6067 24.6157C16.4165 24.5288 16.2029 24.4853 15.9656 24.4853C15.5046 24.4853 15.1074 24.6828 14.7756 25.0764ZM10.7085 24.0009V28.4353H11.7893V24.0009H13.3616V23.0991H9.12862V24.0009H10.7085ZM4.41515 13.3766C4.05992 10.8488 6.08338 8.01816 8.33195 7.92392C11.0188 7.81113 13.2893 9.76135 13.4944 12.1134C14.0479 18.469 5.32043 19.8198 4.41515 13.3766ZM17.8879 11.9248C17.882 11.8146 17.8708 11.704 17.8595 11.5931L17.8501 11.499C17.7881 10.9086 17.6777 10.3657 17.53 9.86786C17.5106 9.81098 17.4902 9.75144 17.4693 9.69058L17.4692 9.69039C17.4168 9.53787 17.3615 9.37704 17.3137 9.22894C17.1972 8.9262 17.072 8.63737 16.9345 8.37321C16.8998 8.31422 16.8627 8.24949 16.8225 8.17956L16.8225 8.17947C16.7399 8.03555 16.6446 7.86961 16.5319 7.68643C16.0524 6.9479 15.5339 6.39979 15.1166 6.02943L15.0931 6.00925L15.093 6.00922C14.9549 5.89089 14.8162 5.77204 14.6547 5.65515C13.5209 4.83288 12.1613 4.19053 10.5863 4.14C8.81382 4.08325 8.054 4.37496 6.94042 4.80248C6.65987 4.91019 6.35687 5.02652 6.00957 5.14807C5.24137 5.4173 4.79555 5.28855 4.18629 5.1126C4.04968 5.07315 3.90487 5.03132 3.74636 4.99108C2.18041 4.59313 1.10081 5.20105 0.751683 5.58093C0.582003 5.76575 0.468965 5.90491 0.346648 6.15882C-0.0604736 7.00501 -0.0121038 9.30379 0.0215976 10.9055C0.0296302 11.2872 0.0368295 11.6294 0.0368295 11.9028L0.0368295 23.9743C0.0368295 24.1455 0.0350415 24.3184 0.0332487 24.4918C0.0215779 25.6205 0.00969949 26.7693 0.489473 27.6054C1.03684 28.56 4.05569 29.9023 4.31375 25.0959C4.33403 24.718 4.33059 24.3489 4.32724 23.9896C4.31874 23.0771 4.31083 22.2273 4.69339 21.4559C5.26862 20.2956 6.35988 20.6581 7.51512 21.0419C8.04757 21.2188 8.59361 21.4002 9.10898 21.4391C11.0695 21.587 12.8136 21.1546 14.237 20.2325C14.319 20.18 14.4006 20.1263 14.4826 20.068C14.7302 19.8929 14.9621 19.6951 15.1874 19.4886C15.2226 19.4558 15.2583 19.4252 15.2939 19.3946L15.2939 19.3946L15.2939 19.3946L15.294 19.3946L15.294 19.3946L15.294 19.3946C15.3478 19.3483 15.4016 19.3021 15.454 19.2484C15.5525 19.1489 15.642 19.038 15.7315 18.927C15.772 18.8767 15.8125 18.8264 15.8539 18.7772C16.1613 18.407 16.4526 18.0003 16.7116 17.5381C16.7268 17.5112 16.7428 17.4851 16.7588 17.459C16.7791 17.4259 16.7995 17.3927 16.8181 17.3577C16.9934 17.0257 17.1521 16.6702 17.2922 16.2937C17.2974 16.28 17.3028 16.2665 17.3082 16.253L17.3083 16.2527C17.3143 16.238 17.3202 16.2232 17.3259 16.208C17.7614 15.0007 17.99 13.5686 17.8879 11.9248ZM38.7064 17.4547C36.1294 17.4547 34.0405 15.3658 34.0405 12.7889C34.0405 10.2119 36.1294 8.12304 38.7064 8.12304C41.2833 8.12304 43.3722 10.2119 43.3722 12.7889C43.3722 15.3658 41.2833 17.4547 38.7064 17.4547ZM38.7064 4.13352C33.926 4.13352 30.051 8.00882 30.051 12.7889C30.051 17.569 33.926 21.4441 38.7064 21.4441C43.4867 21.4441 47.3618 17.569 47.3618 12.7889C47.3618 8.00882 43.4867 4.13352 38.7064 4.13352ZM20.4901 7.08498C20.3919 8.22586 20.4044 12.5211 20.4044 12.5211C20.4044 12.5211 20.3734 16.4782 20.4156 18.028C20.4581 19.5781 20.69 21.5495 22.5956 21.4397C24.5009 21.3298 24.8764 19.133 24.8781 17.1591C24.8782 16.87 24.8765 16.5832 24.8748 16.2974C24.8647 14.631 24.8549 12.9995 25.225 11.1715C25.6586 9.02983 28.0248 8.15652 29.4226 8.05057C30.8205 7.94436 31.4455 6.99928 31.3703 5.92603C31.2949 4.85277 29.7778 3.47653 27.9015 4.4846C26.3475 5.31966 25.579 5.17599 24.252 4.92791C23.9771 4.87651 23.6782 4.82063 23.3434 4.76805C21.3924 4.4614 20.588 5.94434 20.4901 7.08498ZM76.107 9.94003C76.0812 5.13935 71.7503 4.32931 71.7013 4.32015L71.7009 4.32007C70.9392 4.13233 70.0717 4.08911 69.0895 4.21558C68.2563 4.323 67.3727 4.72633 66.786 5.13039C65.2179 6.21069 64.3409 5.80361 62.9828 5.17325L62.9827 5.17323C62.6871 5.03603 62.3687 4.88825 62.0155 4.74293C59.3997 3.66685 57.9846 4.24208 56.7352 4.74999C55.9116 5.0848 55.16 5.39035 54.1838 5.17433C54.0477 5.14425 53.9127 5.11185 53.7783 5.07956C53.0024 4.89325 52.2416 4.71057 51.3581 4.99855C50.5456 5.26344 50.1886 5.91336 50.0011 6.80107C49.7593 7.9461 49.7998 10.0081 49.8326 11.6757C49.8428 12.1934 49.8522 12.6731 49.8522 13.0756C49.8522 13.4898 49.8507 13.9045 49.8491 14.3191V14.3192C49.8427 16.0507 49.8363 17.7805 49.942 19.466C50.1791 20.6372 50.9172 21.5945 52.2346 21.4104C53.4052 21.2471 53.9858 20.154 54.0822 18.8923C54.1533 17.9597 54.1384 16.9618 54.1235 15.9571V15.957V15.957V15.9569C54.0964 14.1367 54.0689 12.2942 54.5512 10.7774C54.8283 9.49715 55.8555 8.11261 57.3477 8.08185C57.4746 8.0794 57.7239 8.09625 57.7239 8.09625C57.7239 8.09625 60.9141 7.91241 60.7635 12.9625C60.7635 12.9662 60.7632 12.9693 60.7629 12.9724L60.7624 12.9774L60.7623 12.9804C60.8156 13.9621 60.8009 14.9417 60.787 15.8683V15.8684V15.8685V15.8686C60.7515 18.2333 60.7212 20.253 61.8399 21.0837C62.5494 21.6106 64.0216 21.6416 64.6796 20.479C65.2782 19.4212 65.2241 17.029 65.178 14.9913V14.9912V14.9911V14.991C65.1599 14.1911 65.143 13.4458 65.1674 12.8573C65.2572 10.6981 66.0163 7.81964 68.5358 8.13312C70.8877 8.4256 71.771 10.474 71.8442 12.9315C71.8714 13.8432 71.871 14.7635 71.8706 15.6815V15.6816V15.6817V15.6818C71.8704 16.1065 71.8702 16.5307 71.8728 16.9533C71.8741 17.1554 71.873 17.3521 71.8719 17.5437V17.5442V17.5446V17.5451C71.8655 18.6996 71.8601 19.6679 72.3811 20.5146C73.3359 22.0662 76.1514 21.9649 76.1499 17.9587L76.107 9.94003ZM86.9624 7.92392C84.7138 8.01816 82.6903 10.8488 83.0456 13.3766C83.9509 19.8198 92.6783 18.469 92.1248 12.1134C91.9197 9.76135 89.6489 7.81113 86.9624 7.92392ZM96.4891 11.5857C96.5007 11.699 96.5123 11.8121 96.5183 11.9248C96.6204 13.5686 96.3919 15.0007 95.9561 16.208C95.95 16.2245 95.9436 16.2405 95.9372 16.2566C95.9323 16.2689 95.9274 16.2812 95.9226 16.2937C95.7825 16.6702 95.624 17.0257 95.4485 17.3577C95.4296 17.3932 95.4089 17.4268 95.3882 17.4605C95.3725 17.4861 95.3568 17.5117 95.3418 17.5381C95.083 18.0003 94.7917 18.407 94.4844 18.7772C94.4431 18.8262 94.4027 18.8763 94.3624 18.9264C94.2727 19.0376 94.183 19.1487 94.0842 19.2484C94.0318 19.3023 93.9778 19.3487 93.9238 19.3951L93.9237 19.3952C93.8883 19.4256 93.8529 19.456 93.8178 19.4886C93.5925 19.6951 93.3606 19.8929 93.113 20.068C93.031 20.1263 92.9494 20.18 92.8674 20.2325C91.444 21.1546 89.6999 21.587 87.7394 21.4391C87.224 21.4002 86.678 21.2188 86.1455 21.0419C84.9903 20.6581 83.899 20.2956 83.3238 21.4559C82.9413 22.2272 82.9492 23.0767 82.9576 23.989V23.9891V23.9892C82.9609 24.3486 82.9643 24.7179 82.9439 25.0959C82.6863 29.9023 79.6673 28.56 79.1199 27.6054C78.6401 26.7693 78.652 25.6205 78.6637 24.4918C78.6655 24.3184 78.6672 24.1455 78.6672 23.9743V11.9028C78.6672 11.6295 78.66 11.2876 78.652 10.9062V10.9058V10.9055C78.6183 9.3038 78.5699 7.00501 78.9771 6.15882C79.0994 5.90491 79.2124 5.76575 79.3821 5.58093C79.731 5.20105 80.8108 4.59313 82.3768 4.99108C82.5353 5.03132 82.6801 5.07315 82.8167 5.1126C83.426 5.28855 83.8718 5.4173 84.64 5.14807C84.9873 5.02652 85.2903 4.91019 85.5708 4.80248L85.5709 4.80246C86.6844 4.37494 87.4442 4.08325 89.2165 4.14C90.7917 4.19053 92.1513 4.83288 93.2854 5.65515C93.4465 5.77199 93.5852 5.89079 93.7233 6.00908L93.747 6.02943C94.164 6.39979 94.6829 6.9479 95.1621 7.68643C95.2755 7.87048 95.3712 8.03711 95.4541 8.18151C95.4938 8.25069 95.5305 8.31477 95.5649 8.37321C95.7022 8.63737 95.8276 8.9262 95.9441 9.22894C95.9919 9.37706 96.0472 9.53791 96.0996 9.69045C96.1206 9.75136 96.141 9.81094 96.1604 9.86786C96.3081 10.3657 96.4185 10.9086 96.4802 11.499L96.4891 11.5857ZM103.458 14.4696C103.455 13.776 103.456 13.0817 103.456 12.3877V12.3876C103.457 12.1223 103.457 11.8572 103.457 11.5921C103.457 11.4229 103.455 11.2651 103.453 11.1163V11.1161C103.44 10.3049 103.432 9.75951 103.85 9.0862C104.171 8.57152 104.782 8.20772 105.373 7.85571C106.112 7.41591 106.82 6.99453 106.891 6.32029C107.023 5.05797 106.469 4.78551 105.712 4.41364C105.237 4.17984 104.681 3.90674 104.166 3.32367C103.806 2.91643 103.596 2.40503 103.391 1.9064C103.035 1.04395 102.696 0.219707 101.628 0.0387077C99.9598 -0.2442 99.4886 1.09218 99.1581 2.02973C99.1407 2.07927 99.1236 2.1277 99.1067 2.17472H99.1072C99.1072 2.17472 99.0884 2.22892 99.0574 2.30925C98.9966 2.47111 98.9366 2.61125 98.8702 2.7116C98.8162 2.8156 98.7549 2.91741 98.6824 3.02581C98.6329 3.11004 98.5701 3.19207 98.5013 3.27362C98.4947 3.28094 98.4905 3.28973 98.4839 3.29705C98.4718 3.31071 98.4572 3.32578 98.4428 3.34071L98.4427 3.34081L98.4192 3.36517C98.3868 3.40057 98.3543 3.43573 98.3189 3.47088C97.8885 3.90522 97.2129 4.46577 97.1309 4.5334C96.5611 5.09493 96.137 5.75803 96.4412 6.69334C96.5827 7.12842 96.9868 7.46094 97.4369 7.8312C98.1126 8.38718 98.8918 9.02827 99.0406 10.2295C99.1551 11.1539 99.1332 12.3 99.1113 13.4474C99.0938 14.3626 99.0763 15.2787 99.128 16.0839C99.2205 17.5214 99.6055 18.9115 100.506 19.9667L100.515 19.9777C100.812 20.3161 101.493 20.954 102.611 21.2531C104.254 21.6662 106.742 21.5053 106.85 19.8017C106.918 18.735 106.265 18.3462 105.514 17.8995C104.569 17.3372 103.469 16.683 103.458 14.4696Z" fill="url(#paint0_linear_558_75274)"/>
<defs>
<linearGradient id="paint0_linear_558_75274" x1="-48.3302" y1="66.3332" x2="-54.3118" y2="-11.749" gradientUnits="userSpaceOnUse">
<stop stop-color="#6699D2"/>
<stop stop-color="#6699D2"/>
<stop offset="1" stop-color="#9FC9EB"/>
</linearGradient>
</defs>
</svg>
