<svg width="2238" height="637" viewBox="0 0 2238 637" fill="none" xmlns="http://www.w3.org/2000/svg">
<g clip-path="url(#clip0_193_20)">
<path d="M2224.79 12.0958C2232.4 19.5502 2236.91 29.9583 2236.91 41.4915C2236.91 53.0247 2232.26 63.2921 2224.79 70.8872C2217.32 78.3416 2206.89 82.983 2195.34 82.983C2183.78 82.983 2173.5 78.3416 2165.89 70.8872C2158.42 63.4328 2153.77 53.0247 2153.77 41.4915C2153.77 29.9583 2158.42 19.6909 2165.89 12.0958C2173.36 4.64142 2183.78 0 2195.34 0C2206.89 0 2217.18 4.64142 2224.79 12.0958ZM2228.59 41.4915C2228.59 32.3493 2224.93 24.051 2218.87 18.1437C2212.81 12.0958 2204.64 8.43895 2195.48 8.43895C2186.32 8.43895 2178.01 12.0958 2172.09 18.1437C2166.03 24.1917 2162.37 32.3493 2162.37 41.4915C2162.37 50.6337 2166.03 58.932 2172.09 64.8392C2178.15 70.8872 2186.32 74.544 2195.48 74.544C2204.64 74.544 2212.95 70.8872 2218.87 64.8392C2224.79 58.7913 2228.59 50.6337 2228.59 41.4915Z" fill="#343170"/>
<path fill-rule="evenodd" clip-rule="evenodd" d="M2188.43 45.8517V62.3076H2177.16V18.847H2194.35C2200.13 18.847 2204.36 19.8316 2206.89 21.8007C2209.57 23.7698 2210.98 26.7234 2210.98 30.9429C2210.98 33.7559 2210.28 36.1469 2208.87 37.9753C2207.46 39.8038 2205.34 41.2103 2202.53 42.0542C2204.08 42.4761 2205.48 43.1793 2206.61 44.4452C2207.88 45.711 2209.01 47.5395 2210.28 50.0712L2216.33 62.4483H2204.36L2199 51.6183C2198.02 49.5086 2196.89 47.9614 2195.76 47.2582C2194.63 46.4143 2193.23 45.9923 2191.39 45.9923H2188.29L2188.43 45.8517ZM2193.08 38.116C2195.48 38.116 2197.17 37.694 2198.16 36.7095C2199.14 35.8656 2199.71 34.4591 2199.71 32.3494C2199.71 30.2396 2199.14 28.9738 2198.16 28.1299C2197.17 27.286 2195.48 26.864 2193.08 26.864H2188.43V37.9753H2193.08V38.116Z" fill="#343170"/>
<path fill-rule="evenodd" clip-rule="evenodd" d="M90.8853 294.8C83.699 242.62 125.549 184.813 171.344 182.281C226.861 180.734 273.501 220.819 277.588 269.062C288.86 400.006 109.344 427.292 90.8853 294.8ZM368.614 265.123C368.614 261.889 367.769 259.497 367.769 256.263C366.219 244.167 363.682 232.915 361.287 223.351C359.737 219.272 358.046 214.49 356.496 209.708C354.101 204.082 351.705 197.612 348.464 191.986C346.914 188.751 343.673 183.969 340.432 178.343C330.71 163.012 319.437 151.76 311.406 143.743C308.165 141.352 305.769 138.961 301.683 135.726C278.292 119.692 250.111 106.049 217.984 105.205C172.048 103.658 159.225 113.222 123.858 126.021C104.553 132.491 94.8307 126.865 77.2173 122.786C45.0904 114.769 22.5452 126.865 15.218 134.882C11.9771 138.961 9.5817 141.352 7.18628 146.978C-3.24088 168.638 0.704531 236.15 0.704531 264.983V513.229C0.704531 539.671 -1.6909 567.8 10.4271 587.913C20.8543 607.182 83.6991 635.312 88.4899 535.732C90.0399 508.446 85.249 482.708 96.5216 461.048C114.276 426.448 153.73 457.813 187.407 461.048C227.706 464.283 263.92 455.422 292.806 436.153C294.356 435.309 296.047 433.762 297.597 432.918C302.387 428.839 307.319 424.901 312.11 420.822C313.66 419.275 316.196 417.587 317.746 416.04C320.987 412.805 323.383 409.57 325.778 406.335C332.26 399.162 337.896 390.301 343.532 380.596C345.082 379.049 345.928 378.205 345.928 376.518C349.169 369.344 353.114 362.031 355.651 354.858C355.651 354.014 356.496 354.014 356.496 353.31C366.219 328.416 370.164 298.739 368.614 264.983V265.123Z" fill="#343170"/>
<path fill-rule="evenodd" clip-rule="evenodd" d="M797.537 379.049C744.415 379.049 701.72 336.432 701.72 283.408C701.72 230.383 744.415 187.766 797.537 187.766C850.659 187.766 893.354 230.383 893.354 283.408C893.354 336.432 850.659 379.049 797.537 379.049ZM797.537 105.065C699.324 105.065 618.866 184.531 618.866 283.408C618.866 382.284 698.479 461.751 797.537 461.751C896.595 461.751 976.208 382.284 976.208 283.408C975.362 184.531 895.749 105.065 797.537 105.065Z" fill="#343170"/>
<path fill-rule="evenodd" clip-rule="evenodd" d="M420.045 277.923C420.045 277.923 420.045 189.595 421.595 166.248C423.991 142.9 440.054 112.379 480.354 118.849C520.653 125.319 535.871 134.18 574.48 113.223C613.089 92.2661 644.511 120.396 646.061 142.9C647.611 164.56 634.789 184.673 605.762 186.22C576.735 188.611 528.544 206.333 519.667 250.496C509.944 293.816 512.481 332.495 512.481 372.58C512.481 412.665 504.449 458.516 465.84 460.908C426.386 463.299 421.595 422.37 419.905 391.005C419.059 358.937 419.905 277.782 419.905 277.782" fill="#343170"/>
<path fill-rule="evenodd" clip-rule="evenodd" d="M1567.74 224.054C1566.89 124.475 1476.85 108.441 1476.85 108.441C1461.63 104.362 1443.03 103.658 1422.88 106.049C1405.98 108.441 1387.52 116.458 1375.4 124.475C1335.94 151.76 1317.49 133.335 1277.19 116.457C1187.85 79.4668 1166.15 136.57 1115.42 125.318C1096.12 121.24 1078.37 114.91 1057.51 122.083C1040.6 127.709 1033.42 140.509 1029.33 159.074C1022.85 189.595 1026.09 253.028 1026.09 288.471C1026.09 332.635 1025.24 376.799 1027.64 420.26C1032.43 444.311 1047.79 464.423 1075.12 460.485C1099.22 457.25 1111.34 434.746 1112.89 409.008C1116.97 355.139 1107.25 290.862 1122.61 241.917C1128.25 215.334 1149.1 187.345 1180.52 186.501H1188.55C1188.55 186.501 1254.5 182.422 1251.4 286.924C1255.49 358.374 1241.82 429.964 1273.94 453.172C1288.46 463.58 1319.04 464.423 1332.7 441.076C1349.61 410.555 1340.73 327.009 1343.13 284.393C1343.98 240.229 1360.04 180.734 1411.61 187.204C1459.94 192.83 1478.4 235.447 1479.95 286.08C1480.8 313.366 1480.8 341.496 1480.8 368.782C1480.8 397.756 1478.4 421.807 1491.22 441.92C1510.53 473.988 1569.29 471.597 1568.44 389.739L1567.6 224.195L1567.74 224.054Z" fill="#343170"/>
<path fill-rule="evenodd" clip-rule="evenodd" d="M1711.04 294.8C1703.85 242.619 1745.7 184.813 1791.5 182.281C1847.02 180.734 1893.66 220.819 1897.74 269.061C1909.01 400.006 1729.5 427.292 1711.04 294.8ZM1988.77 265.123C1988.77 261.888 1987.92 259.497 1987.92 256.262C1986.37 244.167 1984.68 232.915 1981.44 222.507C1979.89 218.428 1978.2 213.646 1976.65 209.708C1974.26 203.238 1971.86 197.612 1968.62 191.986C1966.22 187.907 1963.83 183.125 1960.59 177.499C1951.01 163.012 1939.59 151.76 1931.56 143.743C1928.32 141.352 1925.92 138.961 1921.84 135.726C1898.45 118.848 1870.41 106.049 1838.14 104.361C1792.2 102.814 1779.38 112.378 1744.01 125.177C1724.71 131.647 1714.99 126.725 1697.37 121.942C1665.1 113.925 1642.7 126.021 1635.37 134.038C1632.13 138.117 1629.74 140.508 1627.34 146.134C1616.91 167.794 1620.86 235.306 1620.86 264.279V512.525C1620.86 538.967 1618.46 567.097 1630.44 587.21C1641.71 606.479 1703.71 634.609 1709.35 535.732C1710.9 508.446 1706.11 482.707 1717.38 461.048C1735.14 426.448 1774.45 457.813 1808.27 461.048C1848.57 464.282 1884.78 455.422 1913.66 436.153C1915.21 435.309 1916.91 433.762 1918.46 432.918C1923.25 428.839 1928.18 424.901 1932.97 420.822C1934.52 419.275 1937.06 417.587 1938.61 416.04C1941.85 412.805 1944.24 409.57 1946.64 406.335C1953.12 399.162 1958.76 390.301 1964.39 380.596C1965.24 379.049 1966.08 378.205 1966.79 376.517C1970.87 369.344 1973.97 362.031 1976.37 354.857C1976.37 354.014 1977.21 354.014 1977.21 353.31C1985.25 328.415 1990.04 298.738 1988.49 264.983L1988.77 265.123Z" fill="#343170"/>
<path fill-rule="evenodd" clip-rule="evenodd" d="M2131.09 317.305V257.81C2131.09 235.306 2128.69 222.507 2139.12 206.332C2153.63 182.281 2199.43 174.264 2201.96 149.229C2206.05 106.612 2172.93 118.708 2145.6 87.3432C2125.45 64.8393 2127.84 25.4576 2093.32 19.8316C2057.11 13.3618 2048.23 44.7265 2041.05 63.9954C2041.05 63.9954 2041.05 64.8393 2040.2 66.3865C2038.65 69.6214 2037.8 72.8563 2036.11 74.4035C2035.27 76.7945 2033.72 78.3417 2032.03 80.8733C2031.18 82.4205 2029.63 84.1083 2027.94 85.6554V86.4993C2027.94 87.3432 2027.1 87.3432 2026.25 88.1871C2025.4 89.031 2024.7 89.7342 2023.85 90.5781C2014.98 99.439 2001.31 110.691 1999.76 112.238C1987.64 123.49 1979.61 137.133 1985.25 156.402C1992.43 178.906 2033.58 187.767 2039.21 229.539C2043.3 264.139 2038.37 312.241 2040.76 350.076C2042.45 379.753 2050.49 407.883 2068.95 429.543C2075.43 436.716 2089.09 449.655 2112.49 455.985C2146.3 464.845 2197.73 460.767 2200.27 426.308C2204.22 377.362 2131.79 399.022 2131.09 317.023" fill="#343170"/>
<path fill-rule="evenodd" clip-rule="evenodd" d="M1491.22 525.325H1513.77L1533.07 581.584L1551.53 525.325H1573.23L1545.05 601.697L1540.26 615.34C1538.71 620.122 1536.17 623.357 1534.62 625.748C1533.07 628.983 1530.54 630.53 1528.99 632.218C1526.59 633.765 1524.2 634.609 1520.96 635.453C1517.71 636.297 1514.47 637 1510.53 637C1506.58 637 1502.5 636.156 1498.41 635.453L1496.86 619.419C1500.1 620.263 1503.34 620.263 1505.74 620.263C1510.53 620.263 1514.61 618.716 1517.01 616.184C1519.41 612.949 1521.1 609.714 1522.65 604.932L1491.22 525.465V525.325ZM1488.83 525.325V542.202H1474.31V574.27C1474.31 580.74 1474.32 584.678 1475.16 585.522C1475.16 586.366 1476.01 587.069 1476.71 587.913C1477.56 588.757 1479.11 588.757 1479.95 588.757C1481.5 588.757 1484.74 587.913 1488.83 586.366L1490.38 602.4C1485.59 605.635 1480.66 606.479 1474.31 606.479C1470.23 606.479 1467.13 605.635 1463.89 604.932C1460.65 603.385 1458.25 601.697 1457.41 600.15C1455.86 597.759 1455.01 595.368 1454.17 592.133C1453.32 589.742 1453.32 584.96 1453.32 576.802V542.202H1443.6V525.325H1453.32V509.291L1474.31 497.195V525.325H1488.83ZM1415.56 604.791V525.325H1436.55V604.791H1415.56ZM1415.56 514.776V494.663H1436.55V513.932H1415.56V514.776ZM1381.74 604.791H1360.88V525.325H1380.19V536.576C1383.43 530.951 1386.67 527.716 1389.07 526.168C1391.46 524.621 1394.7 523.777 1397.94 523.777C1402.73 523.777 1407.67 525.325 1411.61 527.856L1405.13 546.281C1401.89 543.89 1397.94 543.046 1395.41 543.046C1392.17 543.046 1389.77 543.89 1388.22 545.437C1385.83 546.984 1384.28 550.219 1383.43 554.298C1382.58 558.377 1381.74 567.097 1381.74 580.881V604.932V604.791ZM1329.46 604.791V592.695C1326.22 596.774 1322.98 599.869 1318.19 603.104C1313.4 605.495 1308.61 607.182 1302.83 607.182C1297.05 607.182 1292.4 606.338 1288.32 603.947C1284.23 601.556 1281.13 598.321 1279.44 594.243C1277.75 590.164 1276.2 583.835 1276.2 576.521V525.043H1297.19V562.034C1297.19 573.286 1297.19 579.756 1298.04 582.85C1298.89 585.241 1300.44 587.632 1302.13 588.476C1304.52 590.023 1306.92 590.867 1310.16 590.867C1313.4 590.867 1317.34 590.023 1319.74 587.632C1322.98 586.085 1324.53 582.85 1325.38 580.459C1326.22 577.224 1326.93 570.051 1326.93 558.799V525.043H1347.92V604.51H1329.46V604.791ZM1211.95 563.862C1211.95 572.723 1213.5 579.193 1217.58 583.975C1220.82 588.054 1225.61 590.445 1230.4 590.445C1235.19 590.445 1239.28 588.898 1242.52 584.819C1245.76 580.74 1247.31 574.411 1247.31 565.55C1247.31 557.533 1245.62 551.063 1242.52 547.125C1239.28 543.046 1235.34 540.655 1230.4 540.655C1225.47 540.655 1220.82 542.202 1217.58 546.281C1213.5 550.36 1211.95 555.986 1211.95 564.003V563.862ZM1191.8 525.325H1211.1V537.42C1213.5 533.342 1216.74 530.247 1221.53 527.716C1225.61 525.325 1230.4 523.637 1236.04 523.637C1244.92 523.637 1252.95 527.716 1259.43 534.889C1265.91 542.062 1269.15 552.61 1269.15 565.41C1269.15 579.053 1265.91 588.757 1259.43 596.774C1252.95 603.947 1244.92 608.026 1236.04 608.026C1232.09 608.026 1228.01 607.182 1223.92 605.635C1220.68 604.088 1216.74 600.853 1212.65 596.774V637H1191.65V525.325H1191.8ZM1095.27 525.325H1107.39V518.855C1107.39 512.385 1108.24 506.759 1109.79 503.524C1111.34 500.289 1113.87 497.898 1117.82 495.507C1121.91 493.116 1126.7 492.272 1132.33 492.272C1137.97 492.272 1144.45 493.116 1150.09 494.663L1146 509.994C1142.76 509.15 1139.52 508.447 1136.28 508.447C1133.04 508.447 1130.64 509.291 1129.8 510.838C1128.25 512.385 1127.4 514.916 1127.4 518.855V524.481H1143.46V541.359H1127.4V603.947H1106.41V541.359H1094.29V525.325H1095.13H1095.27ZM1032.43 565.55C1032.43 573.567 1033.98 579.193 1038.07 583.975C1042.01 588.054 1046.1 590.445 1051.73 590.445C1057.37 590.445 1062.16 588.054 1065.4 583.975C1069.49 579.896 1071.04 573.567 1071.04 565.55C1071.04 557.533 1069.49 551.907 1065.4 547.828C1061.32 543.75 1057.37 541.359 1051.73 541.359C1046.1 541.359 1041.31 543.75 1038.07 547.828C1034.82 551.063 1032.43 557.533 1032.43 565.55ZM1011.43 564.003C1011.43 556.83 1012.98 550.36 1016.22 543.89C1019.47 537.42 1024.26 532.638 1030.74 528.559C1037.22 525.325 1044.41 523.777 1051.73 523.777C1063.85 523.777 1073.43 527.856 1081.46 535.873C1089.5 543.89 1092.74 553.595 1092.74 565.55C1092.74 577.505 1088.65 587.21 1081.46 595.227C1073.43 603.244 1063.71 607.323 1052.44 607.323C1045.25 607.323 1037.92 605.776 1031.58 602.541C1025.1 599.306 1020.31 594.524 1016.22 588.054C1012.98 580.881 1011.43 573.567 1011.43 564.003ZM964.793 525.465V542.343H950.28V574.411C950.28 580.881 950.28 584.819 951.125 585.663C951.125 586.507 951.971 587.21 952.675 588.054C953.521 588.898 955.071 588.898 955.916 588.898C957.466 588.898 960.707 588.054 964.793 586.507L966.343 602.541C961.553 605.776 955.916 606.62 949.435 606.62C945.348 606.62 942.248 605.776 939.007 605.073C935.766 603.525 933.371 601.838 932.526 600.291C930.976 597.899 930.13 595.508 929.285 592.274C928.439 589.882 928.439 585.1 928.439 576.943V542.343H918.717V525.465H928.439V509.431L949.435 497.335V525.465H964.653H964.793ZM891.522 604.932V525.465H912.517V604.932H891.522ZM891.522 514.916V494.804H912.517V514.073H891.522V514.916ZM856.154 604.932V592.836C852.913 596.915 849.672 600.009 844.881 603.244C840.09 605.635 835.159 607.323 829.663 607.323C824.168 607.323 819.236 606.479 815.15 604.088C811.063 601.697 807.963 598.462 806.273 594.383C803.877 588.757 803.032 583.131 803.032 575.958V525.325H824.027V562.315C824.027 573.567 824.027 580.037 824.872 583.131C825.718 585.522 827.268 587.913 828.959 588.757C831.354 590.304 833.75 591.148 836.99 591.148C840.231 591.148 844.177 590.304 846.713 587.913C849.954 586.366 851.504 583.131 852.349 580.74C853.195 577.505 853.899 570.332 853.899 559.08V525.325H874.894V604.791H856.436L856.154 604.932ZM716.092 582.428C717.642 589.601 722.573 596.071 728.21 600.15C734.692 604.932 743.428 606.62 753.996 606.62C766.114 606.62 774.991 604.229 781.332 598.603C787.814 592.977 790.209 587.351 790.209 580.178C790.209 573.708 787.814 568.082 783.727 564.847C779.641 560.768 771.609 557.674 760.337 555.142C749.064 552.751 742.582 550.36 740.187 549.516C739.341 547.969 738.637 547.125 738.637 545.437C738.637 543.75 739.482 542.202 741.032 541.359C743.428 539.811 747.514 538.967 753.15 538.967C757.941 538.967 761.182 539.811 763.578 541.359C765.973 542.906 767.523 545.437 768.368 548.532L788.518 544.453C786.968 537.28 782.882 532.357 777.246 528.419C771.609 525.184 763.578 522.793 753.15 522.793C741.878 522.793 733.001 525.184 728.21 529.966C722.573 534.748 720.178 540.374 720.178 547.688C720.178 555.001 723.419 561.331 729.901 565.41C734.691 568.644 745.119 571.879 762.028 575.818C764.423 576.661 766.818 578.209 767.664 579.052C768.509 579.896 769.214 581.444 769.214 583.131C769.214 585.522 768.368 587.21 766.818 588.757C763.578 590.304 759.632 591.148 753.855 591.148C749.064 591.148 744.978 590.304 742.582 587.913C740.187 586.366 737.791 583.131 736.946 579.052L715.951 582.287L716.092 582.428ZM689.46 604.932H668.465V525.465H687.769V536.717C691.856 531.091 694.251 527.856 697.351 526.309C699.746 524.762 702.987 523.918 706.228 523.918C711.019 523.918 715.81 525.465 719.896 527.997L713.414 546.422C710.174 544.031 706.933 542.343 703.692 542.343C700.451 542.343 698.056 543.187 696.506 544.734C694.11 546.281 692.56 549.516 690.869 553.595C690.024 558.377 689.319 567.238 689.319 580.178V605.073L689.46 604.932ZM633.943 604.932V592.836C631.547 596.915 627.461 600.853 622.67 603.244C617.879 605.635 612.947 606.479 608.157 606.479C602.52 606.479 597.729 605.635 593.643 603.244C589.557 600.853 585.611 597.618 583.92 593.539C582.37 588.757 581.525 583.131 581.525 575.818V525.184H602.52V562.175C602.52 573.427 602.52 579.896 603.366 582.991C604.211 585.382 605.761 587.773 607.452 588.617C609.847 589.461 612.243 590.164 615.484 590.164C618.725 590.164 621.966 589.32 625.065 586.929C628.306 585.382 629.856 582.147 630.702 579.756C631.547 576.521 632.252 569.348 632.252 558.096V525.184H653.247V604.651H633.943V604.932ZM514.03 564.003C514.03 572.864 515.58 579.334 519.667 584.116C522.908 588.195 526.853 590.586 531.785 590.586C536.716 590.586 540.662 589.039 543.903 584.96C547.144 580.178 548.694 573.708 548.694 564.847C548.694 556.83 547.144 550.36 543.903 546.422C540.662 542.343 536.716 539.952 531.785 539.952C526.853 539.952 522.062 541.499 518.962 545.578C515.721 550.36 514.171 555.986 514.171 564.003H514.03ZM493.176 525.465H512.48V537.561C514.876 532.779 518.962 529.544 522.908 527.153C526.994 524.762 531.785 523.074 537.421 523.074C546.298 523.074 554.33 527.153 560.812 534.326C567.293 541.499 570.534 552.048 570.534 564.847C570.534 578.49 567.293 588.195 560.812 596.212C554.33 603.385 546.298 606.62 537.421 606.62C533.335 606.62 529.389 605.776 525.303 604.229C522.062 602.682 518.117 599.447 514.03 595.368V635.593H493.176V525.465ZM418.354 558.377C418.354 551.907 416.804 547.969 413.563 544.734C411.168 541.499 407.082 539.952 403.136 539.952C398.345 539.952 395.104 541.499 391.864 544.734C388.623 547.969 387.073 552.751 387.073 558.377H418.495H418.354ZM417.509 580.037L438.504 583.272C436.109 591.289 431.318 596.915 425.681 600.994C420.045 605.073 412.859 606.62 403.982 606.62C390.314 606.62 379.886 601.838 373.405 592.977C367.768 585.804 365.373 576.943 365.373 565.691C365.373 552.892 368.614 542.343 375.8 534.326C382.986 527.153 391.159 523.074 402.432 523.074C414.55 523.074 423.427 527.153 430.613 535.17C437.095 543.187 441.04 555.283 440.336 571.317H387.214C387.214 577.787 388.764 582.569 392.004 585.804C395.245 589.039 399.191 590.586 404.123 590.586C407.363 590.586 410.604 589.742 412.154 588.195C414.55 586.648 416.241 584.116 417.791 580.178L417.509 580.037ZM304.078 494.944V535.873C310.56 527.856 319.437 523.777 328.173 523.777C332.964 523.777 337.896 524.621 340.996 526.168C345.787 527.716 349.028 530.247 350.719 533.341C352.269 535.733 353.959 538.967 354.805 542.202C355.65 545.437 355.65 551.063 355.65 558.236V604.791H334.655V563.018C334.655 555.001 333.81 549.376 333.81 546.984C332.964 544.593 331.414 542.906 329.019 541.359C327.469 540.515 324.932 539.811 321.833 539.811C318.733 539.811 315.351 540.655 312.11 542.202C309.714 543.75 307.319 546.281 306.474 550.219C304.924 553.454 304.078 558.236 304.078 564.706V604.932H283.083V494.804H304.078V494.944ZM220.379 605.073V513.51H188.252V495.085H275.192V513.51H243.065V604.229H220.52V605.073H220.379Z" fill="#343170"/>
</g>
<defs>
<clipPath id="clip0_193_20">
<rect width="2237.05" height="637" fill="white"/>
</clipPath>
</defs>
</svg>
