<svg width="26" height="26" viewBox="0 0 26 26" fill="none" xmlns="http://www.w3.org/2000/svg">
<g id="Icon/description">
<mask id="mask0_1729_176745" style="mask-type:alpha" maskUnits="userSpaceOnUse" x="0" y="0" width="26" height="26">
<rect id="Bounding box" width="26" height="26" transform="matrix(-1 0 0 1 26 0)" fill="#D9D9D9"/>
</mask>
<g mask="url(#mask0_1729_176745)">
<path id="description" d="M17.3337 19.5H8.66699V17.3333H17.3337V19.5ZM17.3337 15.1666H8.66699V13H17.3337V15.1666ZM19.5003 23.8333C20.0962 23.8333 20.6062 23.6211 21.0305 23.1968C21.4548 22.7725 21.667 22.2625 21.667 21.6666V4.33329C21.667 3.73746 21.4548 3.22739 21.0305 2.80308C20.6062 2.37878 20.0962 2.16663 19.5003 2.16663H10.8337L4.33366 8.66663V21.6666C4.33366 22.2625 4.54581 22.7725 4.97012 23.1968C5.39442 23.6211 5.90449 23.8333 6.50033 23.8333H19.5003ZM11.917 9.74996H6.50033L11.917 4.33329V9.74996Z" fill="white"/>
</g>
</g>
</svg>
