<svg width="39" height="39" viewBox="0 0 39 39" fill="none" xmlns="http://www.w3.org/2000/svg">
<g clip-path="url(#clip0_20774_29313)">
<path d="M23.9636 26.6172V31.494C25.4532 30.0325 27.8417 30.0485 29.3121 31.5334C30.034 29.9743 31.6113 28.8922 33.4427 28.8922C35.955 28.8922 37.9927 30.9291 37.9927 33.4422C37.9927 35.9553 35.955 37.9921 33.4427 37.9921H5.38446C2.87135 37.9921 0.834473 35.9553 0.834473 33.4422C0.834473 30.9291 2.87135 28.8922 5.38446 28.8922C7.21507 28.8922 8.79239 29.9743 9.51432 31.5334C10.9828 30.0505 13.372 30.0306 14.8636 31.494V26.6172H23.9636Z" fill="white"/>
<path d="M34.2016 25.8578H26.6183L24.1704 22.2558L26.6183 14.1484C34.2016 17.2887 34.2016 25.8578 34.2016 25.8578Z" fill="white"/>
<path d="M12.2103 25.8656H4.62695C4.62695 25.8656 4.62695 17.2965 12.2103 14.1562L14.5525 22.7817L12.2103 25.8656Z" fill="white"/>
<path d="M26.6178 19.7937V23.5854L19.7336 25.14L12.2095 23.5854V19.7937L19.2028 18.6562L26.6178 19.7937Z" fill="white"/>
<path d="M21.6279 2.70067L19.4136 0.835938L17.1985 2.70067C14.0355 5.36469 12.2095 9.28981 12.2095 13.4257V14.1515V19.7942H26.6178C26.6178 18.8305 26.6178 14.1942 26.6178 13.4257C26.6178 9.28981 24.7917 5.36469 21.6279 2.70067Z" fill="white"/>
<path d="M19.4137 15.2463C21.089 15.2463 22.447 13.8883 22.447 12.213C22.447 10.5378 21.089 9.17969 19.4137 9.17969C17.7384 9.17969 16.3804 10.5378 16.3804 12.213C16.3804 13.8883 17.7384 15.2463 19.4137 15.2463Z" fill="white"/>
<path d="M26.6178 27.3776C23.3281 27.3776 15.2215 27.3776 12.2095 27.3776C12.2095 25.751 12.2095 25.3633 12.2095 23.5859H26.6178V27.3776Z" fill="white"/>
<path d="M19.4142 16.0052C21.5049 16.0052 23.2059 14.3042 23.2059 12.2135C23.2059 10.1228 21.5049 8.42188 19.4142 8.42188C17.3235 8.42188 15.6226 10.1228 15.6226 12.2135C15.6226 14.3042 17.3235 16.0052 19.4142 16.0052ZM19.4142 9.93854C20.6686 9.93854 21.6892 10.9591 21.6892 12.2135C21.6892 13.468 20.6686 14.4885 19.4142 14.4885C18.1598 14.4885 17.1392 13.468 17.1392 12.2135C17.1392 10.9591 18.1598 9.93854 19.4142 9.93854Z" fill="#2A2867"/>
<path d="M33.4432 28.1364C31.7049 28.1364 30.087 28.9972 29.1033 30.3901C27.7619 29.5114 26.0891 29.4376 24.7224 30.065V28.1364H26.6182C27.0371 28.1364 27.3766 27.7969 27.3766 27.378V26.6148C27.4619 26.6242 27.0255 26.6177 34.2015 26.6197C34.6204 26.6197 34.9599 26.2802 34.9599 25.8614C34.9599 25.7683 34.9486 23.5517 33.9639 20.9187C32.7113 17.5687 30.4392 15.0685 27.3766 13.6572V13.4264C27.3766 9.05647 25.4595 4.93593 22.117 2.12124L19.9025 0.256427C19.6202 0.0186908 19.2079 0.0186908 18.9256 0.256427L16.7111 2.12124C13.3687 4.93601 11.4516 9.05655 11.4516 13.4264V13.6572C8.38902 15.0686 6.11699 17.5688 4.86423 20.9187C3.87961 23.5517 3.86831 25.7683 3.86831 25.8614C3.86831 26.2802 4.20782 26.6197 4.62664 26.6197C11.7946 26.6177 11.3666 26.6242 11.4516 26.6148V27.378C11.4516 27.7969 11.7911 28.1364 12.2099 28.1364H14.1058V30.065C12.7384 29.4373 11.0657 29.5119 9.7249 30.3901C8.74119 28.9972 7.1233 28.1364 5.38497 28.1364C2.45797 28.1364 0.0766602 30.5177 0.0766602 33.4447C0.0766602 36.3717 2.45797 38.753 5.38497 38.753H33.4432C36.3702 38.753 38.7515 36.3717 38.7515 33.4447C38.7515 30.5177 36.3702 28.1364 33.4432 28.1364ZM12.9683 20.5531H25.8599V22.8281H12.9683V20.5531ZM32.5253 21.402C33.0963 22.9119 33.3122 24.2904 33.3938 25.1031C27.0687 25.105 27.4619 25.0986 27.3766 25.108V15.3485C29.7577 16.6248 31.487 18.6563 32.5253 21.402ZM17.6881 3.28133L19.4141 1.82784L21.14 3.28133C24.1395 5.80718 25.8599 9.50495 25.8599 13.4264V19.0364H12.9683C12.9683 17.9283 12.9683 14.6514 12.9683 13.4264C12.9683 9.50495 14.6886 5.80726 17.6881 3.28133ZM5.43442 25.1031C5.51601 24.29 5.73191 22.9117 6.30286 21.402C7.34116 18.6563 9.07046 16.6248 11.4516 15.3485V25.108C11.3662 25.0986 11.7498 25.105 5.43442 25.1031ZM12.9683 24.3447H25.8599V26.6197C24.2295 26.6197 14.9166 26.6197 12.9683 26.6197V24.3447ZM33.4432 37.2363H5.38497C3.29426 37.2363 1.59332 35.5354 1.59332 33.4447C1.59332 31.354 3.29426 29.653 5.38497 29.653C6.85689 29.653 8.20801 30.5172 8.82704 31.8547C9.04908 32.3343 9.68266 32.4451 10.0542 32.0696C11.2325 30.879 13.142 30.8695 14.3331 32.0376C14.5511 32.2515 14.8762 32.3136 15.1577 32.1954C15.4392 32.0771 15.6224 31.8016 15.6224 31.4962V28.1364H17.5183V32.6864C17.5183 33.1052 17.8578 33.4447 18.2766 33.4447C18.6954 33.4447 19.0349 33.1052 19.0349 32.6864V28.1364H23.2057V31.4962C23.2057 31.8016 23.389 32.0772 23.6704 32.1954C23.952 32.3136 24.277 32.2515 24.4951 32.0377C25.6863 30.8696 27.5956 30.879 28.774 32.0696C29.1458 32.4452 29.7793 32.3341 30.0011 31.8547C30.6202 30.5172 31.9713 29.653 33.4432 29.653C35.5339 29.653 37.2349 31.354 37.2349 33.4447C37.2349 35.5354 35.5339 37.2363 33.4432 37.2363Z" fill="#2A2867"/>
<path d="M21.3101 31.9297C20.8913 31.9297 20.5518 32.2692 20.5518 32.688V34.2047C20.5518 34.6235 20.8913 34.963 21.3101 34.963C21.7289 34.963 22.0684 34.6235 22.0684 34.2047V32.688C22.0684 32.2692 21.7289 31.9297 21.3101 31.9297Z" fill="#2A2867"/>
</g>
<defs>
<clipPath id="clip0_20774_29313">
<rect width="38.8265" height="38.8265" fill="white"/>
</clipPath>
</defs>
</svg>
