<svg width="26" height="26" viewBox="0 0 26 26" fill="none" xmlns="http://www.w3.org/2000/svg">
<g id="Icon/route">
<g id="mode_of_travel">
<mask id="mask0_1729_176661" style="mask-type:alpha" maskUnits="userSpaceOnUse" x="2" y="0" width="24" height="24">
<rect id="Bounding box" width="24" height="24" transform="matrix(-1 0 0 1 26 0)" fill="#D9D9D9"/>
</mask>
<g mask="url(#mask0_1729_176661)">
<path id="mode_of_travel_2" d="M13.0003 23.8333C15.9073 21.3597 18.0785 19.0621 19.5139 16.9406C20.9493 14.8191 21.667 12.8555 21.667 11.05C21.667 8.34163 20.7958 6.18399 19.0535 4.57704C17.3111 2.9701 15.2934 2.16663 13.0003 2.16663C10.7073 2.16663 8.68956 2.9701 6.9472 4.57704C5.20484 6.18399 4.33366 8.34163 4.33366 11.05L2.05866 8.77496L0.541991 10.2916L5.41699 15.1666L10.292 10.2916L8.77532 8.77496L6.50032 11.05C6.50032 9.0819 7.12776 7.47045 8.38262 6.21558C9.63748 4.96072 11.1767 4.33329 13.0003 4.33329C14.8239 4.33329 16.3632 4.96072 17.618 6.21558C18.8729 7.47045 19.5003 9.0819 19.5003 11.05C19.5003 12.3319 18.9677 13.7989 17.9024 15.451C16.8371 17.1031 15.2031 18.9402 13.0003 20.9625C12.6392 20.6375 12.3052 20.3215 11.9982 20.0145L11.0774 19.0937C11.1677 18.9132 11.2399 18.7191 11.2941 18.5114C11.3482 18.3038 11.3753 18.0916 11.3753 17.875C11.3753 17.1166 11.1135 16.4757 10.5899 15.952C10.0663 15.4284 9.42533 15.1666 8.66699 15.1666C7.90866 15.1666 7.26769 15.4284 6.74407 15.952C6.22046 16.4757 5.95866 17.1166 5.95866 17.875C5.95866 18.6333 6.22046 19.2743 6.74407 19.7979C7.26769 20.3215 7.90866 20.5833 8.66699 20.5833C8.81144 20.5833 8.94234 20.5743 9.0597 20.5562C9.17706 20.5382 9.29894 20.5111 9.42532 20.475C9.94894 21.0166 10.5041 21.5673 11.091 22.127C11.6778 22.6868 12.3142 23.2555 13.0003 23.8333Z" fill="white"/>
</g>
</g>
</g>
</svg>
