<svg width="100" height="56" viewBox="0 0 100 56" fill="none" xmlns="http://www.w3.org/2000/svg">
<g clip-path="url(#clip0_6254_21689)">
<path d="M12.6193 28.0062L12.5826 21.9463L9.71399 26.8072H7.75158L4.88298 22.1528V28.0031H0.82959V14.709H4.48805L8.78942 21.7922L12.9775 14.709H16.636L16.6727 28.0031H12.6163L12.6193 28.0062Z" fill="#6699D1"/>
<path d="M18.4482 14.709H22.8996V28.0031H18.4482V14.709Z" fill="#6699D1"/>
<path d="M24.6753 14.709H29.1267V24.5293H35.0874V28.0062H24.6753V14.7121V14.709Z" fill="#6699D1"/>
<path d="M41.3116 23.5993L40.3105 24.7213V28.007H35.9326V14.7129H40.3105V19.5368L44.6486 14.7129H49.498L44.217 20.5632L49.7644 28.007H44.615L41.3147 23.5993H41.3116Z" fill="#6699D1"/>
<path d="M2.55633 43.4034C1.51849 43.1568 0.667401 42.8239 0 42.4078L1.43277 39.1405C2.06037 39.5073 2.76451 39.8032 3.54519 40.0252C4.32586 40.2471 5.07286 40.358 5.78925 40.358C6.4046 40.358 6.84546 40.2995 7.10874 40.1762C7.37203 40.056 7.50367 39.8741 7.50367 39.6337C7.50367 39.3563 7.32917 39.1467 6.98322 39.008C6.63728 38.8693 6.06784 38.7182 5.27492 38.5518C4.25545 38.336 3.40742 38.1049 2.72777 37.8583C2.04813 37.6117 1.45726 37.2048 0.95518 36.6438C0.453098 36.0798 0.202057 35.3184 0.202057 34.3567C0.202057 33.5214 0.434729 32.7601 0.900073 32.0789C1.36542 31.3946 2.06037 30.8583 2.98494 30.4637C3.9095 30.0723 5.03306 29.875 6.35256 29.875C7.25876 29.875 8.14658 29.9736 9.02216 30.1678C9.89468 30.3651 10.6662 30.6518 11.3336 31.0309L9.99571 34.2797C8.70071 33.62 7.47306 33.2933 6.31582 33.2933C5.15858 33.2933 4.59833 33.5707 4.59833 34.1286C4.59833 34.3937 4.76672 34.5941 5.10654 34.7266C5.44636 34.8591 6.00661 35.0009 6.78423 35.1551C7.79145 35.3462 8.63948 35.5619 9.33137 35.8116C10.0233 36.0582 10.6233 36.462 11.1315 37.0168C11.6397 37.5747 11.8969 38.333 11.8969 39.2946C11.8969 40.13 11.6642 40.8882 11.1989 41.5632C10.7335 42.2414 10.0386 42.7777 9.11401 43.1784C8.18944 43.576 7.06588 43.7764 5.74639 43.7764C4.65344 43.7764 3.58499 43.6531 2.55021 43.4065L2.55633 43.4034Z" fill="#2A2866"/>
<path d="M21.8437 41.152H16.8259L15.9381 43.4699H11.4102L17.1841 30.1758H21.562L27.3329 43.4699H22.7315L21.8437 41.152ZM20.616 37.9217L19.3333 34.5804L18.0505 37.9217H20.616Z" fill="#2A2866"/>
<path d="M41.0666 30.1738V43.468H37.4081L32.3904 37.4297V43.468H28.0522V30.1738H31.7107L36.7285 36.2121V30.1738H41.0666Z" fill="#2A2866"/>
<path d="M51.5736 36.4611H55.4402V42.0833C54.6596 42.6289 53.7534 43.045 52.7247 43.3378C51.693 43.6307 50.6796 43.7755 49.6877 43.7755C48.2794 43.7755 47.0151 43.4796 45.8946 42.8909C44.7741 42.3022 43.8985 41.4792 43.2617 40.422C42.628 39.3647 42.3096 38.1657 42.3096 36.8218C42.3096 35.4779 42.628 34.2788 43.2617 33.2216C43.8954 32.1644 44.7832 31.3414 45.9221 30.7526C47.061 30.1639 48.3468 29.8711 49.7796 29.8711C51.0746 29.8711 52.2349 30.0899 53.2605 30.5276C54.2861 30.9653 55.1372 31.6003 55.8168 32.4356L52.9696 34.9631C52.14 33.9891 51.1511 33.5021 50.0092 33.5021C49.0295 33.5021 48.2488 33.8011 47.6702 34.396C47.0916 34.9909 46.8038 35.8015 46.8038 36.8279C46.8038 37.8544 47.0885 38.6311 47.661 39.2414C48.2335 39.8486 48.9958 40.1538 49.9541 40.1538C50.5204 40.1538 51.0593 40.0459 51.5767 39.8301V36.4673L51.5736 36.4611Z" fill="#2A2866"/>
<path d="M62.6288 40.1267H61.4226V43.468H56.9712V30.1738H63.3299C64.5483 30.1738 65.6137 30.3773 66.5169 30.7811C67.4231 31.1848 68.1211 31.7674 68.6109 32.5287C69.1008 33.287 69.3457 34.1747 69.3457 35.1888C69.3457 36.1382 69.1314 36.9673 68.7058 37.6763C68.2772 38.3852 67.6619 38.9493 66.8567 39.3654L69.6304 43.468H64.8759L62.6319 40.1267H62.6288ZM64.4014 34.0391C64.0983 33.7678 63.6483 33.6322 63.0421 33.6322H61.4195V36.7485H63.0421C63.6452 36.7485 64.0983 36.6128 64.4014 36.3416C64.7045 36.0704 64.8545 35.6851 64.8545 35.1919C64.8545 34.6987 64.7045 34.3165 64.4014 34.0422V34.0391Z" fill="#2A2866"/>
<path d="M80.7768 41.152H75.759L74.8712 43.4699H70.3433L76.1172 30.1758H80.4951L86.266 43.4699H81.6646L80.7768 41.152ZM79.5491 37.9217L78.2664 34.5804L76.9836 37.9217H79.5491Z" fill="#2A2866"/>
<path d="M100 30.1738V43.468H95.5488V38.567H91.4372V43.468H86.9858V30.1738H91.4372V34.8836H95.5488V30.1738H100Z" fill="#2A2866"/>
<path d="M2.84101 51.8736C3.07674 52.0924 3.19614 52.4223 3.19614 52.8569V54.8142H2.64507V54.3857C2.5471 54.5367 2.40934 54.6508 2.22871 54.7309C2.04808 54.8111 1.83378 54.8511 1.58886 54.8511C1.22761 54.8511 0.93983 54.7648 0.722465 54.5892C0.505101 54.4135 0.397949 54.1823 0.397949 53.8987C0.397949 53.6151 0.502039 53.384 0.707158 53.2113C0.912277 53.0387 1.23985 52.9524 1.68989 52.9524H2.61139V52.8353C2.61139 52.5825 2.53792 52.3884 2.39403 52.2558C2.25014 52.1233 2.03278 52.0555 1.75112 52.0555C1.56131 52.0555 1.37456 52.0863 1.19393 52.151C1.01331 52.2157 0.85717 52.299 0.73165 52.4038L0.489793 51.963C0.655113 51.8274 0.854109 51.7257 1.08372 51.6548C1.31333 51.5839 1.55825 51.5469 1.81847 51.5469C2.26239 51.5469 2.60527 51.6578 2.84101 51.8767V51.8736ZM2.26239 54.247C2.42465 54.1484 2.54098 54.0066 2.61446 53.8216V53.3685H1.71438C1.22149 53.3685 0.973506 53.535 0.973506 53.871C0.973506 54.0343 1.0378 54.1638 1.16332 54.2563C1.28884 54.3487 1.46334 54.398 1.68683 54.398C1.91032 54.398 2.10013 54.3487 2.26239 54.247Z" fill="#2A2866"/>
<path d="M7.27389 51.5742V54.8138H6.72283V54.3237C6.60649 54.4901 6.45036 54.6196 6.25748 54.712C6.06461 54.8045 5.85643 54.8507 5.62988 54.8507C5.20127 54.8507 4.86145 54.7305 4.61653 54.4932C4.36855 54.2559 4.24609 53.9045 4.24609 53.439V51.5742H4.82777V53.3712C4.82777 53.6856 4.90125 53.923 5.05126 54.0832C5.20127 54.2435 5.41558 54.3237 5.69417 54.3237C6.00032 54.3237 6.24524 54.2312 6.4228 54.0432C6.60037 53.8552 6.68915 53.5901 6.68915 53.2479V51.5742H7.27083H7.27389Z" fill="#2A2866"/>
<path d="M10.1948 54.6246C10.1091 54.6985 10.005 54.754 9.87949 54.7941C9.75397 54.8342 9.62539 54.8527 9.49068 54.8527C9.16617 54.8527 8.91513 54.7664 8.73756 54.5907C8.56 54.415 8.47121 54.1653 8.47121 53.8386V52.0601H7.92627V51.5761H8.47121V50.8672H9.05289V51.5761H9.9744V52.0601H9.05289V53.8139C9.05289 53.9896 9.09575 54.1252 9.18454 54.2177C9.27332 54.3102 9.39578 54.3595 9.55804 54.3595C9.7356 54.3595 9.88867 54.3102 10.0142 54.2054L10.1979 54.6276L10.1948 54.6246Z" fill="#2A2866"/>
<path d="M11.3059 54.6385C11.0518 54.4967 10.8528 54.2994 10.7089 54.0497C10.565 53.8001 10.4946 53.5134 10.4946 53.1959C10.4946 52.8784 10.565 52.5949 10.7089 52.3421C10.8528 52.0925 11.0518 51.8952 11.3059 51.7565C11.56 51.6147 11.8478 51.5469 12.1693 51.5469C12.4907 51.5469 12.7754 51.6178 13.0295 51.7565C13.2836 51.8983 13.4796 52.0925 13.6235 52.3421C13.7673 52.5918 13.8378 52.8784 13.8378 53.1959C13.8378 53.5134 13.7673 53.797 13.6235 54.0497C13.4796 54.2994 13.2806 54.4967 13.0295 54.6385C12.7785 54.7803 12.4907 54.8511 12.1693 54.8511C11.8478 54.8511 11.5631 54.7803 11.3059 54.6385ZM12.7234 54.1946C12.8887 54.0991 13.0142 53.9634 13.1091 53.7908C13.201 53.6182 13.25 53.4179 13.25 53.1959C13.25 52.974 13.204 52.7736 13.1091 52.601C13.0173 52.4284 12.8887 52.2959 12.7234 52.2003C12.5581 52.1079 12.3744 52.0585 12.1693 52.0585C11.9641 52.0585 11.7774 52.1048 11.6151 52.2003C11.4498 52.2928 11.3212 52.4284 11.2263 52.601C11.1314 52.7736 11.0824 52.974 11.0824 53.1959C11.0824 53.4179 11.1314 53.6182 11.2263 53.7908C11.3212 53.9634 11.4498 54.0991 11.6151 54.1946C11.7804 54.2902 11.9641 54.3395 12.1693 54.3395C12.3744 54.3395 12.5611 54.2932 12.7234 54.1946Z" fill="#2A2866"/>
<path d="M19.6332 51.8974C19.869 52.1348 19.9884 52.4831 19.9884 52.9485V54.8133H19.4067V53.0163C19.4067 52.7019 19.3363 52.4677 19.1924 52.3074C19.0485 52.1471 18.8434 52.07 18.577 52.07C18.2801 52.07 18.0474 52.1625 17.8729 52.3475C17.6984 52.5324 17.6127 52.7975 17.6127 53.1458V54.8133H17.031V53.0163C17.031 52.7019 16.9606 52.4677 16.8167 52.3074C16.6728 52.1471 16.4677 52.07 16.2013 52.07C15.9044 52.07 15.6717 52.1625 15.4972 52.3475C15.3227 52.5324 15.237 52.7975 15.237 53.1458V54.8133H14.6553V51.5738H15.2125V52.0577C15.3288 51.8913 15.4849 51.7618 15.6747 51.6755C15.8646 51.5892 16.0819 51.543 16.3238 51.543C16.5656 51.543 16.7983 51.5954 16.9912 51.6971C17.1841 51.7988 17.3341 51.9468 17.4412 52.144C17.5637 51.956 17.7321 51.8111 17.9494 51.7033C18.1668 51.5985 18.4086 51.543 18.6811 51.543C19.0852 51.543 19.4067 51.6601 19.6424 51.8974H19.6332Z" fill="#2A2866"/>
<path d="M23.258 51.8736C23.4937 52.0924 23.6131 52.4223 23.6131 52.8569V54.8142H23.0621V54.3857C22.9641 54.5367 22.8263 54.6508 22.6457 54.7309C22.4651 54.8111 22.2508 54.8511 22.0059 54.8511C21.6446 54.8511 21.3568 54.7648 21.1395 54.5892C20.9221 54.4135 20.8149 54.1823 20.8149 53.8987C20.8149 53.6151 20.919 53.384 21.1242 53.2113C21.3293 53.0387 21.6568 52.9524 22.1069 52.9524H23.0284V52.8353C23.0284 52.5825 22.9549 52.3884 22.811 52.2558C22.6671 52.1233 22.4498 52.0555 22.1681 52.0555C21.9783 52.0555 21.7916 52.0863 21.6109 52.151C21.4303 52.2157 21.2742 52.299 21.1486 52.4038L20.9068 51.963C21.0721 51.8274 21.2711 51.7257 21.5007 51.6548C21.7303 51.5839 21.9752 51.5469 22.2355 51.5469C22.6794 51.5469 23.0223 51.6578 23.258 51.8767V51.8736ZM22.6794 54.247C22.8416 54.1484 22.958 54.0066 23.0315 53.8216V53.3685H22.1314C21.6385 53.3685 21.3905 53.535 21.3905 53.871C21.3905 54.0343 21.4548 54.1638 21.5803 54.2563C21.7058 54.3487 21.8803 54.398 22.1038 54.398C22.3273 54.398 22.5171 54.3487 22.6794 54.247Z" fill="#2A2866"/>
<path d="M26.5 54.6246C26.4143 54.6985 26.3102 54.754 26.1847 54.7941C26.0591 54.8342 25.9306 54.8527 25.7959 54.8527C25.4713 54.8527 25.2203 54.7664 25.0427 54.5907C24.8652 54.415 24.7764 54.1653 24.7764 53.8386V52.0601H24.2314V51.5761H24.7764V50.8672H25.3581V51.5761H26.2796V52.0601H25.3581V53.8139C25.3581 53.9896 25.4009 54.1252 25.4897 54.2177C25.5785 54.3102 25.701 54.3595 25.8632 54.3595C26.0408 54.3595 26.1939 54.3102 26.3194 54.2054L26.5031 54.6276L26.5 54.6246Z" fill="#2A2866"/>
<path d="M27.2134 50.841C27.1368 50.767 27.1001 50.6776 27.1001 50.5728C27.1001 50.468 27.1368 50.3755 27.2134 50.3015C27.2868 50.2276 27.3818 50.1875 27.495 50.1875C27.6083 50.1875 27.7032 50.2245 27.7767 50.2954C27.8502 50.3663 27.89 50.4557 27.89 50.5605C27.89 50.6653 27.8532 50.7639 27.7767 50.8379C27.7001 50.9118 27.6083 50.9519 27.495 50.9519C27.3818 50.9519 27.2868 50.9149 27.2134 50.841ZM27.2042 51.5746H27.7859V54.8141H27.2042V51.5746Z" fill="#2A2866"/>
<path d="M29.424 54.6385C29.1668 54.4967 28.9648 54.2994 28.8209 54.0497C28.6739 53.8001 28.6035 53.5134 28.6035 53.1959C28.6035 52.8784 28.677 52.5949 28.8209 52.3421C28.9678 52.0925 29.1668 51.8952 29.424 51.7565C29.6812 51.6147 29.972 51.5469 30.3026 51.5469C30.5935 51.5469 30.8537 51.6054 31.0833 51.7257C31.3129 51.8459 31.4905 52.0154 31.616 52.2404L31.1721 52.5271C31.0711 52.3729 30.9455 52.2558 30.7955 52.1788C30.6455 52.1017 30.4802 52.0616 30.2965 52.0616C30.0853 52.0616 29.8955 52.1079 29.7301 52.2034C29.5618 52.2959 29.4301 52.4315 29.3352 52.6041C29.2403 52.7767 29.1913 52.9771 29.1913 53.199C29.1913 53.4209 29.2403 53.6275 29.3352 53.8001C29.4301 53.9727 29.5618 54.1052 29.7301 54.2008C29.8985 54.2932 30.0883 54.3426 30.2965 54.3426C30.4802 54.3426 30.6455 54.3025 30.7955 54.2254C30.9455 54.1484 31.0711 54.0312 31.1721 53.8771L31.616 54.1576C31.4905 54.3826 31.3129 54.5552 31.0833 54.6755C30.8537 54.7957 30.5935 54.8542 30.3026 54.8542C29.9751 54.8542 29.6812 54.7833 29.424 54.6415V54.6385Z" fill="#2A2866"/>
<path d="M38.9848 51.8974C39.2205 52.1348 39.3399 52.4831 39.3399 52.9485V54.8133H38.7582V53.0163C38.7582 52.7019 38.6878 52.4677 38.5439 52.3074C38.4001 52.1471 38.1949 52.07 37.9286 52.07C37.6316 52.07 37.3989 52.1625 37.2244 52.3475C37.0499 52.5324 36.9642 52.7975 36.9642 53.1458V54.8133H36.3825V53.0163C36.3825 52.7019 36.3121 52.4677 36.1682 52.3074C36.0243 52.1471 35.8192 52.07 35.5529 52.07C35.2559 52.07 35.0232 52.1625 34.8487 52.3475C34.6742 52.5324 34.5885 52.7975 34.5885 53.1458V54.8133H34.0068V51.5738H34.564V52.0577C34.6804 51.8913 34.8365 51.7618 35.0263 51.6755C35.2161 51.5892 35.4335 51.543 35.6753 51.543C35.9172 51.543 36.1499 51.5954 36.3427 51.6971C36.5356 51.7988 36.6856 51.9468 36.7928 52.144C36.9152 51.956 37.0836 51.8111 37.301 51.7033C37.5183 51.5985 37.7602 51.543 38.0327 51.543C38.4368 51.543 38.7582 51.6601 38.994 51.8974H38.9848Z" fill="#2A2866"/>
<path d="M40.4238 50.841C40.3473 50.767 40.3105 50.6776 40.3105 50.5728C40.3105 50.468 40.3473 50.3755 40.4238 50.3015C40.4973 50.2276 40.5922 50.1875 40.7055 50.1875C40.8188 50.1875 40.9137 50.2245 40.9871 50.2954C41.0606 50.3663 41.1004 50.4557 41.1004 50.5605C41.1004 50.6653 41.0637 50.7639 40.9871 50.8379C40.9106 50.9118 40.8188 50.9519 40.7055 50.9519C40.5922 50.9519 40.4973 50.9149 40.4238 50.841ZM40.4146 51.5746H40.9963V54.8141H40.4146V51.5746Z" fill="#2A2866"/>
<path d="M42.1104 50.2793H42.692V54.8134H42.1104V50.2793Z" fill="#2A2866"/>
<path d="M45.0528 53.3031L44.3854 53.9257V54.8134H43.8037V50.2793H44.3854V53.189L46.1396 51.5739H46.8438L45.4906 52.9116L46.9785 54.8134H46.2621L45.0528 53.3031Z" fill="#2A2866"/>
<path d="M49.6999 54.6385C49.4427 54.4967 49.2406 54.2994 49.0968 54.0497C48.9498 53.8001 48.8794 53.5134 48.8794 53.1959C48.8794 52.8784 48.9529 52.5949 49.0968 52.3421C49.2437 52.0925 49.4427 51.8952 49.6999 51.7565C49.957 51.6147 50.2479 51.5469 50.5785 51.5469C50.8694 51.5469 51.1296 51.6054 51.3592 51.7257C51.5888 51.8459 51.7664 52.0154 51.8919 52.2404L51.448 52.5271C51.3469 52.3729 51.2214 52.2558 51.0714 52.1788C50.9214 52.1017 50.7561 52.0616 50.5724 52.0616C50.3611 52.0616 50.1713 52.1079 50.006 52.2034C49.8376 52.2959 49.706 52.4315 49.6111 52.6041C49.5162 52.7767 49.4672 52.9771 49.4672 53.199C49.4672 53.4209 49.5162 53.6275 49.6111 53.8001C49.706 53.9727 49.8376 54.1052 50.006 54.2008C50.1744 54.2932 50.3642 54.3426 50.5724 54.3426C50.7561 54.3426 50.9214 54.3025 51.0714 54.2254C51.2214 54.1484 51.3469 54.0312 51.448 53.8771L51.8919 54.1576C51.7664 54.3826 51.5888 54.5552 51.3592 54.6755C51.1296 54.7957 50.8694 54.8542 50.5785 54.8542C50.2509 54.8542 49.957 54.7833 49.6999 54.6415V54.6385Z" fill="#2A2866"/>
<path d="M53.1106 54.6385C52.8565 54.4967 52.6575 54.2994 52.5136 54.0497C52.3697 53.8001 52.2993 53.5134 52.2993 53.1959C52.2993 52.8784 52.3697 52.5949 52.5136 52.3421C52.6575 52.0925 52.8565 51.8952 53.1106 51.7565C53.3647 51.6147 53.6525 51.5469 53.9739 51.5469C54.2954 51.5469 54.5801 51.6178 54.8342 51.7565C55.0883 51.8983 55.2843 52.0925 55.4281 52.3421C55.572 52.5918 55.6424 52.8784 55.6424 53.1959C55.6424 53.5134 55.572 53.797 55.4281 54.0497C55.2843 54.2994 55.0853 54.4967 54.8342 54.6385C54.5832 54.7803 54.2954 54.8511 53.9739 54.8511C53.6525 54.8511 53.3678 54.7803 53.1106 54.6385ZM54.5281 54.1946C54.6934 54.0991 54.8189 53.9634 54.9138 53.7908C55.0057 53.6182 55.0546 53.4179 55.0546 53.1959C55.0546 52.974 55.0087 52.7736 54.9138 52.601C54.822 52.4284 54.6934 52.2959 54.5281 52.2003C54.3627 52.1079 54.1791 52.0585 53.9739 52.0585C53.7688 52.0585 53.5821 52.1048 53.4198 52.2003C53.2545 52.2928 53.1259 52.4284 53.031 52.601C52.9361 52.7736 52.8871 52.974 52.8871 53.1959C52.8871 53.4179 52.9361 53.6182 53.031 53.7908C53.1259 53.9634 53.2545 54.0991 53.4198 54.1946C53.5851 54.2902 53.7688 54.3395 53.9739 54.3395C54.1791 54.3395 54.3658 54.2932 54.5281 54.1946Z" fill="#2A2866"/>
<path d="M56.4507 50.2793H57.0324V54.8134H56.4507V50.2793Z" fill="#2A2866"/>
<path d="M58.1436 50.2793H58.7252V54.8134H58.1436V50.2793Z" fill="#2A2866"/>
<path d="M62.7327 53.3901H60.1212C60.158 53.6768 60.2835 53.9049 60.4947 54.0775C60.706 54.2501 60.9723 54.3364 61.2877 54.3364C61.6734 54.3364 61.9826 54.2069 62.2153 53.9449L62.5367 54.3241C62.3898 54.4967 62.2092 54.6261 61.9918 54.7155C61.7744 54.8049 61.5326 54.8511 61.2662 54.8511C60.9264 54.8511 60.6233 54.7803 60.3631 54.6415C60.1029 54.5028 59.8977 54.3056 59.7539 54.0528C59.61 53.8001 59.5396 53.5165 59.5396 53.1959C59.5396 52.8754 59.61 52.598 59.7477 52.3452C59.8886 52.0925 60.0784 51.8952 60.3233 51.7565C60.5682 51.6147 60.8437 51.5469 61.1529 51.5469C61.4622 51.5469 61.7346 51.6178 61.9765 51.7565C62.2183 51.8983 62.4051 52.0925 62.5398 52.3452C62.6745 52.598 62.7419 52.8877 62.7419 53.2144C62.7419 53.2607 62.7388 53.3192 62.7296 53.3932L62.7327 53.3901ZM60.4519 52.2959C60.2621 52.4685 60.1518 52.6904 60.1212 52.9678H62.1847C62.151 52.6935 62.0408 52.4716 61.854 52.299C61.6673 52.1264 61.4315 52.0401 61.1529 52.0401C60.8744 52.0401 60.6386 52.1264 60.4519 52.2959Z" fill="#2A2866"/>
<path d="M64.0768 54.6385C63.8197 54.4967 63.6176 54.2994 63.4737 54.0497C63.3268 53.8001 63.2563 53.5134 63.2563 53.1959C63.2563 52.8784 63.3298 52.5949 63.4737 52.3421C63.6207 52.0925 63.8197 51.8952 64.0768 51.7565C64.334 51.6147 64.6248 51.5469 64.9555 51.5469C65.2463 51.5469 65.5065 51.6054 65.7361 51.7257C65.9658 51.8459 66.1433 52.0154 66.2688 52.2404L65.8249 52.5271C65.7239 52.3729 65.5984 52.2558 65.4484 52.1788C65.2984 52.1017 65.133 52.0616 64.9493 52.0616C64.7381 52.0616 64.5483 52.1079 64.383 52.2034C64.2146 52.2959 64.0829 52.4315 63.988 52.6041C63.8931 52.7767 63.8442 52.9771 63.8442 53.199C63.8442 53.4209 63.8931 53.6275 63.988 53.8001C64.0829 53.9727 64.2146 54.1052 64.383 54.2008C64.5514 54.2932 64.7412 54.3426 64.9493 54.3426C65.133 54.3426 65.2984 54.3025 65.4484 54.2254C65.5984 54.1484 65.7239 54.0312 65.8249 53.8771L66.2688 54.1576C66.1433 54.3826 65.9658 54.5552 65.7361 54.6755C65.5065 54.7957 65.2463 54.8542 64.9555 54.8542C64.6279 54.8542 64.334 54.7833 64.0768 54.6415V54.6385Z" fill="#2A2866"/>
<path d="M68.8711 54.6246C68.7854 54.6985 68.6813 54.754 68.5558 54.7941C68.4302 54.8342 68.3017 54.8527 68.167 54.8527C67.8424 54.8527 67.5914 54.7664 67.4138 54.5907C67.2363 54.415 67.1475 54.1653 67.1475 53.8386V52.0601H66.6025V51.5761H67.1475V50.8672H67.7292V51.5761H68.6507V52.0601H67.7292V53.8139C67.7292 53.9896 67.772 54.1252 67.8608 54.2177C67.9496 54.3102 68.072 54.3595 68.2343 54.3595C68.4119 54.3595 68.5649 54.3102 68.6905 54.2054L68.8742 54.6276L68.8711 54.6246Z" fill="#2A2866"/>
<path d="M69.5845 50.841C69.5079 50.767 69.4712 50.6776 69.4712 50.5728C69.4712 50.468 69.5079 50.3755 69.5845 50.3015C69.6579 50.2276 69.7528 50.1875 69.8661 50.1875C69.9794 50.1875 70.0743 50.2245 70.1478 50.2954C70.2213 50.3663 70.2611 50.4557 70.2611 50.5605C70.2611 50.6653 70.2243 50.7639 70.1478 50.8379C70.0712 50.9118 69.9794 50.9519 69.8661 50.9519C69.7528 50.9519 69.6579 50.9149 69.5845 50.841ZM69.5753 51.5746H70.157V54.8141H69.5753V51.5746Z" fill="#2A2866"/>
<path d="M71.7854 54.6385C71.5313 54.4967 71.3323 54.2994 71.1884 54.0497C71.0445 53.8001 70.9741 53.5134 70.9741 53.1959C70.9741 52.8784 71.0445 52.5949 71.1884 52.3421C71.3323 52.0925 71.5313 51.8952 71.7854 51.7565C72.0395 51.6147 72.3273 51.5469 72.6487 51.5469C72.9702 51.5469 73.2549 51.6178 73.509 51.7565C73.7631 51.8983 73.9591 52.0925 74.1029 52.3421C74.2468 52.5918 74.3173 52.8784 74.3173 53.1959C74.3173 53.5134 74.2468 53.797 74.1029 54.0497C73.9591 54.2994 73.7601 54.4967 73.509 54.6385C73.258 54.7803 72.9702 54.8511 72.6487 54.8511C72.3273 54.8511 72.0426 54.7803 71.7854 54.6385ZM73.2029 54.1946C73.3682 54.0991 73.4937 53.9634 73.5886 53.7908C73.6805 53.6182 73.7294 53.4179 73.7294 53.1959C73.7294 52.974 73.6835 52.7736 73.5886 52.601C73.4968 52.4284 73.3682 52.2959 73.2029 52.2003C73.0376 52.1079 72.8539 52.0585 72.6487 52.0585C72.4436 52.0585 72.2569 52.1048 72.0946 52.2003C71.9293 52.2928 71.8007 52.4284 71.7058 52.601C71.6109 52.7736 71.5619 52.974 71.5619 53.1959C71.5619 53.4179 71.6109 53.6182 71.7058 53.7908C71.8007 53.9634 71.9293 54.0991 72.0946 54.1946C72.2599 54.2902 72.4436 54.3395 72.6487 54.3395C72.8539 54.3395 73.0406 54.2932 73.2029 54.1946Z" fill="#2A2866"/>
<path d="M77.8164 51.9005C78.0582 52.1379 78.1776 52.4892 78.1776 52.9485V54.8133H77.596V53.0163C77.596 52.7019 77.5194 52.4677 77.3725 52.3074C77.2225 52.1471 77.0082 52.07 76.7296 52.07C76.4142 52.07 76.1663 52.1625 75.9826 52.3475C75.7989 52.5324 75.7101 52.7975 75.7101 53.1458V54.8133H75.1284V51.5738H75.6856V52.0639C75.8019 51.8974 75.9611 51.768 76.1632 51.6786C76.3622 51.5892 76.5918 51.543 76.8459 51.543C77.2561 51.543 77.5807 51.6632 77.8195 51.9005H77.8164Z" fill="#2A2866"/>
<path d="M83.0851 51.8736C83.3209 52.0924 83.4403 52.4223 83.4403 52.8569V54.8142H82.8892V54.3857C82.7912 54.5367 82.6535 54.6508 82.4729 54.7309C82.2922 54.8111 82.0779 54.8511 81.833 54.8511C81.4717 54.8511 81.184 54.7648 80.9666 54.5892C80.7492 54.4135 80.6421 54.1823 80.6421 53.8987C80.6421 53.6151 80.7462 53.384 80.9513 53.2113C81.1564 53.0387 81.484 52.9524 81.934 52.9524H82.8555V52.8353C82.8555 52.5825 82.7821 52.3884 82.6382 52.2558C82.4943 52.1233 82.2769 52.0555 81.9953 52.0555C81.8054 52.0555 81.6187 52.0863 81.4381 52.151C81.2574 52.2157 81.1013 52.299 80.9758 52.4038L80.7339 51.963C80.8992 51.8274 81.0982 51.7257 81.3279 51.6548C81.5575 51.5839 81.8024 51.5469 82.0626 51.5469C82.5065 51.5469 82.8494 51.6578 83.0851 51.8767V51.8736ZM82.5065 54.247C82.6688 54.1484 82.7851 54.0066 82.8586 53.8216V53.3685H81.9585C81.4656 53.3685 81.2176 53.535 81.2176 53.871C81.2176 54.0343 81.2819 54.1638 81.4075 54.2563C81.533 54.3487 81.7075 54.398 81.931 54.398C82.1545 54.398 82.3443 54.3487 82.5065 54.247Z" fill="#2A2866"/>
<path d="M87.0651 51.7517C87.3131 51.8904 87.5059 52.0846 87.6437 52.3312C87.7845 52.5809 87.8519 52.8676 87.8519 53.1943C87.8519 53.521 87.7815 53.8077 87.6437 54.0604C87.5029 54.3101 87.31 54.5043 87.0651 54.643C86.8171 54.7817 86.5385 54.8495 86.2262 54.8495C85.9966 54.8495 85.7854 54.8033 85.5925 54.7139C85.3996 54.6245 85.2374 54.495 85.1027 54.3224V55.9961H84.521V51.5699H85.0782V52.0846C85.2068 51.9059 85.3721 51.7702 85.5711 51.6778C85.7701 51.5853 85.9874 51.5391 86.2262 51.5391C86.5385 51.5391 86.8171 51.61 87.0651 51.7456V51.7517ZM86.7344 54.193C86.8998 54.0974 87.0283 53.9618 87.1232 53.7892C87.2182 53.6166 87.2671 53.4162 87.2671 53.1943C87.2671 52.9724 87.2182 52.772 87.1232 52.5994C87.0283 52.4268 86.8998 52.2942 86.7344 52.1987C86.5691 52.1062 86.3854 52.0569 86.1803 52.0569C85.9752 52.0569 85.7946 52.1062 85.6323 52.2018C85.467 52.2973 85.3384 52.4299 85.2435 52.6025C85.1486 52.7751 85.0996 52.9724 85.0996 53.1943C85.0996 53.4162 85.1455 53.6166 85.2404 53.7892C85.3323 53.9618 85.4639 54.0974 85.6293 54.193C85.7946 54.2885 85.9783 54.3378 86.1803 54.3378C86.3824 54.3378 86.5722 54.2916 86.7344 54.193Z" fill="#2A2866"/>
<path d="M91.2042 51.7517C91.4522 51.8904 91.6451 52.0846 91.7829 52.3312C91.9237 52.5809 91.991 52.8676 91.991 53.1943C91.991 53.521 91.9206 53.8077 91.7829 54.0604C91.642 54.3101 91.4492 54.5043 91.2042 54.643C90.9563 54.7817 90.6777 54.8495 90.3654 54.8495C90.1358 54.8495 89.9245 54.8033 89.7317 54.7139C89.5388 54.6245 89.3765 54.495 89.2418 54.3224V55.9961H88.6602V51.5699H89.2173V52.0846C89.3459 51.9059 89.5112 51.7702 89.7102 51.6778C89.9092 51.5853 90.1266 51.5391 90.3654 51.5391C90.6777 51.5391 90.9563 51.61 91.2042 51.7456V51.7517ZM90.8736 54.193C91.0389 54.0974 91.1675 53.9618 91.2624 53.7892C91.3573 53.6166 91.4063 53.4162 91.4063 53.1943C91.4063 52.9724 91.3573 52.772 91.2624 52.5994C91.1675 52.4268 91.0389 52.2942 90.8736 52.1987C90.7083 52.1062 90.5246 52.0569 90.3195 52.0569C90.1144 52.0569 89.9337 52.1062 89.7715 52.2018C89.6062 52.2973 89.4776 52.4299 89.3827 52.6025C89.2878 52.7751 89.2388 52.9724 89.2388 53.1943C89.2388 53.4162 89.2847 53.6166 89.3796 53.7892C89.4714 53.9618 89.6031 54.0974 89.7684 54.193C89.9337 54.2885 90.1174 54.3378 90.3195 54.3378C90.5215 54.3378 90.7113 54.2916 90.8736 54.193Z" fill="#2A2866"/>
<path d="M90.2891 17.1992C91.0942 17.1992 91.0942 17.8496 91.8994 17.8496C92.7046 17.8496 92.7046 17.1992 93.5097 17.1992C94.3149 17.1992 94.3149 17.8496 95.1201 17.8496C95.9252 17.8496 95.9252 17.1992 96.7304 17.1992C97.5356 17.1992 97.5356 17.8496 98.3407 17.8496V25.053C98.3407 25.4753 98.0009 25.8174 97.5815 25.8174H91.0514C90.6319 25.8174 90.2921 25.4753 90.2921 25.053V17.1992H90.2891Z" fill="#6699D1"/>
<path d="M98.8274 28.5392H89.796C89.2174 28.5392 88.749 28.0646 88.749 27.4851V14.7735C88.749 14.6348 88.8623 14.5208 89.0001 14.5208C89.1378 14.5208 89.2511 14.6348 89.2511 14.7735V27.4851C89.2511 27.7872 89.496 28.0337 89.796 28.0337H98.8274C99.1274 28.0337 99.3723 27.7872 99.3723 27.4851V8.55025C99.3723 8.24819 99.1274 8.0016 98.8274 8.0016H91.4094C91.3298 8.0016 91.2625 8.06633 91.2625 8.14955V8.83075C91.2625 8.91089 91.3268 8.9787 91.4094 8.9787H91.7186C91.8564 8.9787 91.9697 9.09275 91.9697 9.23145V10.4027C91.9697 10.4305 91.9636 10.4582 91.9544 10.4829L90.5706 14.5824C90.5492 14.644 90.54 14.7057 90.54 14.7704V24.9946C90.54 25.309 90.7941 25.5617 91.1033 25.5617H97.5201C97.8324 25.5617 98.0835 25.3059 98.0835 24.9946V14.7704C98.0835 14.7088 98.0743 14.644 98.0528 14.5855L96.6905 10.4829C96.6813 10.4582 96.6782 10.4305 96.6782 10.4027V9.49345H93.8188C93.6811 9.49345 93.5678 9.3794 93.5678 9.2407C93.5678 9.10199 93.6811 8.98795 93.8188 8.98795H96.9293C96.9966 8.98795 97.0609 9.01569 97.1068 9.06192C97.1528 9.10816 97.1803 9.17289 97.1803 9.2407V10.3627L98.5274 14.4252C98.5641 14.5362 98.5825 14.6533 98.5825 14.7704V24.9946C98.5825 25.5864 98.1018 26.0703 97.514 26.0703H91.0972C90.5094 26.0703 90.0287 25.5894 90.0287 24.9946V14.7704C90.0287 14.6502 90.0471 14.5331 90.0869 14.419L91.4584 10.3596V9.4842H91.4033C91.0451 9.4842 90.7543 9.19138 90.7543 8.83075V8.14955C90.7543 7.78892 91.0451 7.49609 91.4033 7.49609H98.8213C99.3999 7.49609 99.8683 7.97077 99.8683 8.55025V27.482C99.8683 28.0646 99.3968 28.5362 98.8213 28.5362L98.8274 28.5392Z" fill="#2A2866"/>
<path d="M94.3116 27.7602C94.7141 27.7602 95.0403 27.4317 95.0403 27.0266C95.0403 26.6214 94.7141 26.293 94.3116 26.293C93.9092 26.293 93.583 26.6214 93.583 27.0266C93.583 27.4317 93.9092 27.7602 94.3116 27.7602Z" fill="#2A2866"/>
<path fill-rule="evenodd" clip-rule="evenodd" d="M8.0395 5.45585C8.0395 5.39112 8.02419 5.33872 8.02419 5.27399C7.99052 5.02432 7.94153 4.79314 7.89255 4.59587C7.85887 4.51265 7.82826 4.41401 7.79458 4.31538C7.7456 4.19825 7.69662 4.06571 7.62926 3.95166C7.59559 3.88693 7.5313 3.78522 7.46394 3.67117C7.26801 3.35677 7.03534 3.12559 6.87308 2.95915C6.80879 2.90983 6.75674 2.86051 6.67715 2.7927C6.19955 2.46289 5.624 2.17932 4.96884 2.1639C4.03203 2.13 3.76874 2.33035 3.04624 2.59543C2.65131 2.72797 2.45537 2.61084 2.09412 2.5307C1.4359 2.36426 0.97668 2.61393 0.829729 2.78037C0.765438 2.8636 0.713393 2.91291 0.664409 3.03004C0.450106 3.47698 0.532766 4.86712 0.532766 5.46201V10.5756C0.532766 11.1212 0.483782 11.7007 0.7287 12.1137C0.943004 12.5113 2.2227 13.0908 2.32373 11.038C2.3574 10.4739 2.25944 9.94682 2.48905 9.49988C2.8503 8.78786 3.65547 9.43515 4.34736 9.49988C5.16784 9.56461 5.90871 9.38275 6.49958 8.98821C6.53326 8.9728 6.56387 8.93889 6.59755 8.92348C6.69551 8.84026 6.79348 8.75703 6.89451 8.67381C6.92819 8.63991 6.97717 8.60908 7.01085 8.57518C7.07514 8.51045 7.12718 8.44264 7.17617 8.37791C7.30781 8.22995 7.42414 8.0481 7.53742 7.84774C7.5711 7.81384 7.5864 7.79843 7.5864 7.76452C7.65069 7.61657 7.73335 7.46553 7.78234 7.31758C7.78234 7.30217 7.79764 7.30217 7.79764 7.28367C7.99358 6.77201 8.07624 6.15862 8.04562 5.46509L8.0395 5.45585ZM2.36965 6.06923C2.2227 4.99349 3.07685 3.80371 4.01366 3.75131C5.14641 3.7174 6.10159 4.54655 6.18425 5.53907C6.41386 8.23612 2.74927 8.79711 2.37271 6.06923H2.36965Z" fill="#2A2866"/>
<path fill-rule="evenodd" clip-rule="evenodd" d="M16.7982 2.16406C14.7929 2.16406 13.1489 3.80079 13.1489 5.83821C13.1489 7.87564 14.7746 9.51237 16.7982 9.51237C18.8218 9.51237 20.4475 7.87564 20.4475 5.83821C20.4322 3.80387 18.8035 2.16406 16.7982 2.16406ZM16.7982 7.80783C15.7144 7.80783 14.8419 6.92936 14.8419 5.83821C14.8419 4.74707 15.7144 3.8686 16.7982 3.8686C17.882 3.8686 18.7545 4.74707 18.7545 5.83821C18.7545 6.92936 17.885 7.80783 16.7982 7.80783Z" fill="#2A2866"/>
<path fill-rule="evenodd" clip-rule="evenodd" d="M9.08955 5.72112C9.08955 5.72112 9.08955 3.90253 9.12322 3.42169C9.17221 2.94084 9.49979 2.31204 10.3233 2.44458C11.1438 2.57713 11.4561 2.75898 12.2459 2.32746C13.0358 1.89593 13.6756 2.47541 13.7093 2.94084C13.743 3.38778 13.4797 3.80082 12.8888 3.83472C12.298 3.88404 11.3122 4.24776 11.1316 5.15705C10.9356 6.05093 10.9846 6.84617 10.9846 7.67224C10.9846 8.49831 10.8193 9.4415 10.0325 9.49082C9.22731 9.54014 9.12935 8.69558 9.09567 8.05137C9.08036 7.38866 9.09567 5.71803 9.09567 5.71803L9.08955 5.72112Z" fill="#2A2866"/>
<path fill-rule="evenodd" clip-rule="evenodd" d="M32.5251 4.61432C32.5098 2.56148 30.6668 2.23167 30.6668 2.23167C30.3545 2.14845 29.978 2.13304 29.5647 2.18235C29.2187 2.23167 28.8422 2.39812 28.5942 2.56148C27.789 3.12555 27.4124 2.74334 26.5889 2.39503C24.7643 1.6337 24.3204 2.80807 23.2856 2.57689C22.8907 2.49367 22.5294 2.36113 22.1039 2.51216C21.7579 2.62929 21.611 2.89129 21.5283 3.2735C21.3967 3.9023 21.464 5.20921 21.464 5.93665C21.464 6.84594 21.4487 7.75523 21.4977 8.64911C21.5956 9.14536 21.9079 9.5584 22.4682 9.47517C22.9611 9.41045 23.209 8.94501 23.2397 8.41485C23.3223 7.30521 23.1233 5.98288 23.4356 4.97187C23.5519 4.4263 23.9775 3.84682 24.6173 3.83141H24.7826C24.7826 3.83141 26.1297 3.74818 26.0654 5.89966C26.1481 7.37302 25.8695 8.84638 26.5246 9.32414C26.8216 9.5399 27.4461 9.55532 27.7247 9.07447C28.0707 8.44567 27.89 6.72573 27.939 5.84726C27.9543 4.93797 28.285 3.71428 29.3351 3.84374C30.3208 3.96086 30.7005 4.83625 30.7311 5.87808C30.7464 6.44215 30.7464 7.01855 30.7464 7.58262C30.7464 8.17751 30.6974 8.67377 30.9607 9.0868C31.3556 9.7495 32.5557 9.70019 32.5374 8.01106L32.522 4.60199L32.5251 4.61432Z" fill="#2A2866"/>
<path fill-rule="evenodd" clip-rule="evenodd" d="M41.1215 5.45563C41.1215 5.3909 41.1062 5.3385 41.1062 5.27377C41.0725 5.0241 41.0419 4.79293 40.9746 4.58025C40.9409 4.49702 40.9103 4.39839 40.8766 4.31517C40.8276 4.18262 40.7786 4.0655 40.7113 3.95145C40.6623 3.86823 40.6133 3.76959 40.546 3.65246C40.35 3.35347 40.1174 3.1223 39.9551 2.95893C39.8908 2.90962 39.8388 2.8603 39.7592 2.79249C39.2816 2.44418 38.706 2.1791 38.0509 2.14828C37.1141 2.11437 36.8508 2.31473 36.1283 2.57981C35.7333 2.71235 35.5374 2.61371 35.1761 2.51508C34.5179 2.34863 34.0587 2.5983 33.9118 2.76475C33.8475 2.84797 33.7954 2.89729 33.7464 3.01442C33.5321 3.46136 33.6148 4.85149 33.6148 5.44639V10.56C33.6148 11.1056 33.5658 11.685 33.8107 12.0981C34.0403 12.4957 35.3078 13.0752 35.4211 11.0378C35.4547 10.4737 35.3568 9.94661 35.5864 9.49967C35.9476 8.78764 36.7528 9.43494 37.4447 9.49967C38.2652 9.56439 39.0061 9.38254 39.5969 8.988C39.6306 8.97258 39.6612 8.93868 39.6949 8.92327C39.7929 8.84004 39.8908 8.75682 39.9918 8.6736C40.0255 8.63969 40.0745 8.60887 40.1082 8.57496C40.1725 8.51023 40.2245 8.44242 40.2735 8.37769C40.4051 8.22974 40.5215 8.04788 40.6348 7.84753C40.6501 7.81362 40.6684 7.79821 40.6837 7.76431C40.7664 7.61635 40.8307 7.46532 40.8797 7.31737C40.8797 7.30196 40.895 7.30196 40.895 7.28346C41.0603 6.77179 41.1583 6.15841 41.1246 5.46488L41.1215 5.45563ZM35.4517 6.06902C35.3047 4.99328 36.1589 3.8035 37.0957 3.7511C38.2284 3.71719 39.1836 4.54634 39.2663 5.53886C39.4959 8.2359 35.8313 8.79689 35.4547 6.06902H35.4517Z" fill="#2A2866"/>
<path fill-rule="evenodd" clip-rule="evenodd" d="M44.0301 6.53177V5.30808C44.0301 4.84573 43.9811 4.58065 44.1954 4.24775C44.4924 3.7515 45.4292 3.58505 45.4782 3.07338C45.5608 2.19491 44.8873 2.44458 44.3271 1.80037C43.9168 1.33802 43.9658 0.527365 43.2586 0.410236C42.5177 0.277695 42.3371 0.921905 42.1902 1.31953C42.1902 1.31953 42.1902 1.33494 42.1749 1.36884C42.1412 1.43357 42.1259 1.50139 42.0922 1.53529C42.0769 1.58461 42.0432 1.61851 42.0095 1.66783C41.9942 1.70174 41.9606 1.73256 41.9269 1.76647V1.78188C41.9269 1.79729 41.9116 1.79729 41.8932 1.81578C41.8779 1.8312 41.8595 1.84969 41.8442 1.8651C41.6636 2.04696 41.385 2.27814 41.3513 2.31204C41.1033 2.54322 40.9411 2.82371 41.0544 3.22133C41.2013 3.68368 42.0401 3.86554 42.1565 4.72552C42.2391 5.43754 42.1412 6.43005 42.1902 7.2068C42.2238 7.82019 42.3861 8.39659 42.7657 8.84353C42.8974 8.99148 43.176 9.25656 43.6535 9.3891C44.3424 9.57096 45.3955 9.48773 45.4445 8.77571C45.5272 7.76779 44.0485 8.21165 44.0301 6.5256V6.53177Z" fill="#2A2866"/>
<path d="M46.0998 0.119906C46.2406 0.200047 46.3508 0.311011 46.4304 0.452799C46.51 0.594587 46.5498 0.751786 46.5498 0.924398C46.5498 1.09701 46.51 1.25421 46.4274 1.39908C46.3447 1.54087 46.2345 1.65491 46.0937 1.73814C45.9528 1.82136 45.7967 1.86143 45.6253 1.86143C45.4538 1.86143 45.2977 1.82136 45.1568 1.73814C45.016 1.65491 44.9058 1.54395 44.8231 1.40216C44.7405 1.26037 44.7007 1.10317 44.7007 0.933645C44.7007 0.764116 44.7405 0.606916 44.8231 0.465128C44.9058 0.323341 45.016 0.209294 45.1568 0.129153C45.2977 0.0459298 45.4538 0.00585938 45.6283 0.00585938C45.8028 0.00585938 45.959 0.0459298 46.0998 0.126071V0.119906ZM46.0171 1.60868C46.1335 1.53778 46.2284 1.44223 46.2957 1.32202C46.3631 1.20181 46.3967 1.06927 46.3967 0.921315C46.3967 0.773363 46.3631 0.643904 46.2988 0.523693C46.2314 0.406564 46.1396 0.311011 46.0232 0.2432C45.9069 0.175388 45.7753 0.141482 45.6283 0.141482C45.4814 0.141482 45.3497 0.175388 45.2303 0.246282C45.1109 0.317176 45.0191 0.409646 44.9517 0.529858C44.8844 0.650069 44.8507 0.78261 44.8507 0.92748C44.8507 1.07235 44.8844 1.20489 44.9517 1.3251C45.0191 1.44531 45.1109 1.53778 45.2303 1.60868C45.3467 1.67957 45.4783 1.71348 45.6253 1.71348C45.7722 1.71348 45.9008 1.67957 46.0202 1.60868H46.0171ZM46.0477 0.96755C46.011 1.02303 45.962 1.0631 45.8947 1.09084L46.1243 1.44531H45.8977L45.6926 1.12783H45.4599V1.44531H45.2334V0.409646H45.662C45.7967 0.409646 45.9038 0.443552 45.9804 0.508281C46.0569 0.57301 46.0967 0.662398 46.0967 0.773363C46.0967 0.850421 46.0783 0.915151 46.0416 0.970633L46.0477 0.96755ZM45.6528 0.955221C45.7263 0.955221 45.7814 0.939809 45.8242 0.905903C45.864 0.871998 45.8855 0.828845 45.8855 0.77028C45.8855 0.711716 45.864 0.668563 45.8242 0.634657C45.7844 0.603834 45.7263 0.588422 45.6528 0.588422H45.4599V0.955221H45.6528Z" fill="#2A2866"/>
</g>
<defs>
<clipPath id="clip0_6254_21689">
<rect width="100" height="56" fill="white"/>
</clipPath>
</defs>
</svg>
