<svg width="26" height="26" viewBox="0 0 26 26" fill="none" xmlns="http://www.w3.org/2000/svg">
<g clip-path="url(#clip0_7339_3367)">
<path d="M5.26504 14.0183C5.22171 13.6933 5.20004 13.3575 5.20004 13C5.20004 12.6533 5.22171 12.3066 5.27588 11.9816L3.07671 10.27C2.88171 10.1183 2.82754 9.82581 2.94671 9.60914L5.02671 6.01248C5.15671 5.77414 5.42754 5.69831 5.66587 5.77414L8.25504 6.81414C8.79671 6.40248 9.37088 6.05581 10.01 5.79581L10.4 3.04414C10.4434 2.78414 10.66 2.59998 10.92 2.59998H15.08C15.34 2.59998 15.5459 2.78414 15.5892 3.04414L15.9792 5.79581C16.6184 6.05581 17.2034 6.41331 17.7342 6.81414L20.3234 5.77414C20.5617 5.68748 20.8325 5.77414 20.9625 6.01248L23.0317 9.60914C23.1617 9.83664 23.1184 10.1183 22.9017 10.27L20.7025 11.9816C20.7567 12.3066 20.8 12.6641 20.8 13C20.8 13.3358 20.7784 13.6933 20.7242 14.0183L22.9234 15.73C23.1184 15.8816 23.1725 16.1741 23.0534 16.3908L20.9734 19.9875C20.8434 20.2258 20.5725 20.3016 20.3342 20.2258L17.745 19.1858C17.2034 19.5975 16.6292 19.9441 15.99 20.2041L15.6 22.9558C15.5459 23.2158 15.34 23.4 15.08 23.4H10.92C10.66 23.4 10.4434 23.2158 10.4109 22.9558L10.0209 20.2041C9.38171 19.9441 8.79671 19.5975 8.26588 19.1858L5.67671 20.2258C5.43838 20.3125 5.16754 20.2258 5.03754 19.9875L2.95754 16.3908C2.82754 16.1525 2.88171 15.8816 3.08754 15.73L5.26504 14.0183ZM13 16.9C15.145 16.9 16.9 15.145 16.9 13C16.9 10.855 15.145 9.09998 13 9.09998C10.855 9.09998 9.10004 10.855 9.10004 13C9.10004 15.145 10.855 16.9 13 16.9Z" fill="white"/>
</g>
<defs>
<clipPath id="clip0_7339_3367">
<rect width="26" height="26" fill="white" transform="matrix(-1 0 0 1 26 0)"/>
</clipPath>
</defs>
</svg>
