<svg width="24" height="18" viewBox="0 0 24 18" fill="none" xmlns="http://www.w3.org/2000/svg">
<path d="M19.583 11.1668V2.50016C19.583 1.3085 18.608 0.333496 17.4163 0.333496H2.24967C1.05801 0.333496 0.0830078 1.3085 0.0830078 2.50016V11.1668C0.0830078 12.3585 1.05801 13.3335 2.24967 13.3335H17.4163C18.608 13.3335 19.583 12.3585 19.583 11.1668ZM9.83301 10.0835C8.03467 10.0835 6.58301 8.63183 6.58301 6.8335C6.58301 5.03516 8.03467 3.5835 9.83301 3.5835C11.6313 3.5835 13.083 5.03516 13.083 6.8335C13.083 8.63183 11.6313 10.0835 9.83301 10.0835ZM23.9163 3.5835V15.5002C23.9163 16.6918 22.9413 17.6668 21.7497 17.6668H3.33301V15.5002H21.7497V3.5835H23.9163Z" fill="white"/>
</svg>
