<svg width="30" height="28" viewBox="0 0 30 28" fill="none" xmlns="http://www.w3.org/2000/svg">
<g clip-path="url(#clip0_6301_8281)">
<path fill-rule="evenodd" clip-rule="evenodd" d="M4.3902 9.62238C4.3902 9.60313 4.38565 9.58756 4.38565 9.56831C4.37564 9.49409 4.36108 9.42536 4.34651 9.36671C4.3365 9.34197 4.3274 9.31264 4.31739 9.28332C4.30282 9.2485 4.28826 9.20909 4.26824 9.17519C4.25823 9.15594 4.23911 9.1257 4.21909 9.0918C4.16084 8.99833 4.09167 8.9296 4.04343 8.88012C4.02431 8.86545 4.00884 8.85079 3.98518 8.83063C3.84319 8.73258 3.67208 8.64827 3.4773 8.64369C3.19879 8.63361 3.12052 8.69318 2.90572 8.77198C2.78831 8.81139 2.73005 8.77657 2.62265 8.75274C2.42697 8.70326 2.29044 8.77748 2.24676 8.82697C2.22764 8.85171 2.21217 8.86637 2.19761 8.90119C2.13389 9.03407 2.15847 9.44735 2.15847 9.62421V11.1445C2.15847 11.3067 2.14391 11.4789 2.21672 11.6017C2.28043 11.72 2.66088 11.8922 2.69092 11.2819C2.70093 11.1142 2.6718 10.9575 2.74007 10.8247C2.84747 10.613 3.08684 10.8054 3.29254 10.8247C3.53646 10.8439 3.75672 10.7898 3.93239 10.6725C3.9424 10.668 3.9515 10.6579 3.96151 10.6533C3.99064 10.6286 4.01976 10.6038 4.0498 10.5791C4.05981 10.569 4.07437 10.5598 4.08438 10.5497C4.1035 10.5305 4.11897 10.5103 4.13353 10.4911C4.17267 10.4471 4.20726 10.393 4.24093 10.3335C4.25095 10.3234 4.2555 10.3188 4.2555 10.3087C4.27461 10.2648 4.29918 10.2199 4.31375 10.1759C4.31375 10.1713 4.3183 10.1713 4.3183 10.1658C4.37655 10.0137 4.40112 9.83131 4.39202 9.62513L4.3902 9.62238ZM2.70457 9.80474C2.66088 9.48492 2.91482 9.1312 3.19333 9.11562C3.53009 9.10554 3.81406 9.35205 3.83864 9.64712C3.9069 10.4489 2.81743 10.6157 2.70548 9.80474H2.70457Z" fill="#2A2866"/>
<path fill-rule="evenodd" clip-rule="evenodd" d="M6.9941 8.64453C6.39794 8.64453 5.90918 9.13112 5.90918 9.73685C5.90918 10.3426 6.39248 10.8292 6.9941 10.8292C7.59572 10.8292 8.07902 10.3426 8.07902 9.73685C8.07447 9.13204 7.59026 8.64453 6.9941 8.64453ZM6.9941 10.3224C6.6719 10.3224 6.4125 10.0612 6.4125 9.73685C6.4125 9.41245 6.6719 9.15129 6.9941 9.15129C7.3163 9.15129 7.5757 9.41245 7.5757 9.73685C7.5757 10.0612 7.31721 10.3224 6.9941 10.3224Z" fill="#2A2866"/>
<path fill-rule="evenodd" clip-rule="evenodd" d="M4.70235 9.7005C4.70235 9.7005 4.70235 9.15984 4.71236 9.01689C4.72693 8.87393 4.82431 8.68699 5.06915 8.7264C5.31307 8.7658 5.40591 8.81987 5.64073 8.69158C5.87556 8.56328 6.06578 8.73556 6.07579 8.87393C6.08581 9.00681 6.00753 9.1296 5.83187 9.13968C5.65621 9.15434 5.36313 9.26248 5.30943 9.53281C5.25118 9.79855 5.26574 10.035 5.26574 10.2806C5.26574 10.5262 5.2166 10.8066 4.98268 10.8212C4.74331 10.8359 4.71418 10.5848 4.70417 10.3933C4.69962 10.1963 4.70417 9.69959 4.70417 9.69959L4.70235 9.7005Z" fill="#2A2866"/>
<path fill-rule="evenodd" clip-rule="evenodd" d="M11.6695 9.37193C11.665 8.76163 11.1171 8.66358 11.1171 8.66358C11.0242 8.63883 10.9123 8.63425 10.7894 8.64891C10.6866 8.66358 10.5746 8.71306 10.5009 8.76163C10.2615 8.92932 10.1496 8.81569 9.90472 8.71214C9.36226 8.4858 9.23028 8.83494 8.92265 8.76621C8.80524 8.74147 8.69784 8.70206 8.57132 8.74696C8.46847 8.78179 8.42479 8.85968 8.40021 8.97331C8.36107 9.16025 8.3811 9.54879 8.3811 9.76505C8.3811 10.0354 8.37655 10.3057 8.39111 10.5715C8.42024 10.719 8.51307 10.8418 8.67963 10.817C8.82617 10.7978 8.89989 10.6594 8.909 10.5018C8.93357 10.1719 8.87441 9.7788 8.96725 9.47823C9.00183 9.31603 9.12835 9.14375 9.31857 9.13917H9.36772C9.36772 9.13917 9.76819 9.11443 9.74908 9.75406C9.77366 10.1921 9.69083 10.6301 9.88561 10.7721C9.97389 10.8363 10.1596 10.8409 10.2424 10.6979C10.3452 10.511 10.2915 9.99965 10.3061 9.73848C10.3107 9.46815 10.409 9.10435 10.7211 9.14284C11.0142 9.17766 11.1271 9.43791 11.1362 9.74764C11.1407 9.91534 11.1407 10.0867 11.1407 10.2544C11.1407 10.4313 11.1262 10.5788 11.2044 10.7016C11.3219 10.8986 11.6786 10.8839 11.6732 10.3818L11.6686 9.36827L11.6695 9.37193Z" fill="#2A2866"/>
<path fill-rule="evenodd" clip-rule="evenodd" d="M14.2252 9.6211C14.2252 9.60186 14.2206 9.58628 14.2206 9.56703C14.2106 9.49281 14.2015 9.42408 14.1815 9.36085C14.1715 9.33611 14.1624 9.30678 14.1523 9.28204C14.1378 9.24264 14.1232 9.20782 14.1032 9.17391C14.0886 9.14917 14.0741 9.11984 14.0541 9.08502C13.9958 8.99613 13.9266 8.92741 13.8784 8.87884C13.8593 8.86418 13.8438 8.84951 13.8201 8.82935C13.6782 8.7258 13.507 8.647 13.3123 8.63783C13.0338 8.62775 12.9555 8.68732 12.7407 8.76612C12.6233 8.80553 12.565 8.77621 12.4576 8.74688C12.2619 8.6974 12.1254 8.77162 12.0817 8.82111C12.0626 8.84585 12.0471 8.86051 12.0326 8.89533C11.9689 9.02821 11.9934 9.44149 11.9934 9.61835V11.1386C11.9934 11.3008 11.9789 11.4731 12.0517 11.5959C12.1199 11.7141 12.4968 11.8864 12.5304 11.2807C12.5404 11.113 12.5113 10.9563 12.5796 10.8234C12.687 10.6117 12.9264 10.8041 13.132 10.8234C13.376 10.8426 13.5962 10.7886 13.7719 10.6713C13.7819 10.6667 13.791 10.6566 13.801 10.652C13.8301 10.6273 13.8593 10.6025 13.8893 10.5778C13.8993 10.5677 13.9139 10.5585 13.9239 10.5485C13.943 10.5292 13.9585 10.5091 13.973 10.4898C14.0122 10.4458 14.0468 10.3918 14.0804 10.3322C14.085 10.3221 14.0905 10.3175 14.095 10.3075C14.1196 10.2635 14.1387 10.2186 14.1533 10.1746C14.1533 10.17 14.1578 10.17 14.1578 10.1645C14.207 10.0124 14.2361 9.83003 14.2261 9.62385L14.2252 9.6211ZM12.5395 9.80346C12.4958 9.48364 12.7498 9.12992 13.0283 9.11435C13.3651 9.10427 13.649 9.35077 13.6736 9.64584C13.7419 10.4477 12.6524 10.6144 12.5404 9.80346H12.5395Z" fill="#2A2866"/>
<path fill-rule="evenodd" clip-rule="evenodd" d="M15.09 9.94235V9.57855C15.09 9.4411 15.0754 9.36229 15.1391 9.26332C15.2274 9.11578 15.5059 9.0663 15.5205 8.91418C15.545 8.65302 15.3448 8.72724 15.1782 8.53572C15.0563 8.39827 15.0708 8.15726 14.8606 8.12244C14.6403 8.08303 14.5866 8.27456 14.5429 8.39277C14.5429 8.39277 14.5429 8.39735 14.5384 8.40743C14.5284 8.42667 14.5238 8.44683 14.5138 8.45691C14.5093 8.47157 14.4993 8.48166 14.4892 8.49632C14.4847 8.5064 14.4747 8.51556 14.4647 8.52564V8.53022C14.4647 8.5348 14.4601 8.5348 14.4547 8.5403C14.4501 8.54488 14.4446 8.55038 14.4401 8.55496C14.3864 8.60903 14.3036 8.67776 14.2936 8.68784C14.2198 8.75657 14.1716 8.83996 14.2053 8.95817C14.249 9.09562 14.4983 9.14969 14.5329 9.40536C14.5575 9.61704 14.5284 9.91211 14.5429 10.143C14.553 10.3254 14.6012 10.4968 14.7141 10.6296C14.7532 10.6736 14.836 10.7524 14.978 10.7918C15.1828 10.8459 15.4959 10.8212 15.5105 10.6095C15.535 10.3098 15.0954 10.4418 15.09 9.94052V9.94235Z" fill="#2A2866"/>
<path d="M15.7055 8.03586C15.7474 8.05968 15.7801 8.09267 15.8038 8.13483C15.8275 8.17698 15.8393 8.22372 15.8393 8.27503C15.8393 8.32635 15.8275 8.37308 15.8029 8.41615C15.7783 8.45831 15.7455 8.49221 15.7037 8.51695C15.6618 8.5417 15.6154 8.55361 15.5644 8.55361C15.5135 8.55361 15.467 8.5417 15.4252 8.51695C15.3833 8.49221 15.3505 8.45922 15.326 8.41707C15.3014 8.37492 15.2896 8.32818 15.2896 8.27778C15.2896 8.22738 15.3014 8.18065 15.326 8.13849C15.3505 8.09634 15.3833 8.06243 15.4252 8.03861C15.467 8.01387 15.5135 8.00195 15.5653 8.00195C15.6172 8.00195 15.6636 8.01387 15.7055 8.03769V8.03586ZM15.6809 8.47847C15.7155 8.45739 15.7437 8.42898 15.7637 8.39324C15.7838 8.35751 15.7938 8.3181 15.7938 8.27412C15.7938 8.23013 15.7838 8.19164 15.7647 8.1559C15.7446 8.12108 15.7173 8.09267 15.6827 8.07251C15.6482 8.05235 15.609 8.04227 15.5653 8.04227C15.5216 8.04227 15.4825 8.05235 15.447 8.07343C15.4115 8.09451 15.3842 8.122 15.3642 8.15774C15.3442 8.19347 15.3341 8.23288 15.3341 8.27595C15.3341 8.31902 15.3442 8.35842 15.3642 8.39416C15.3842 8.4299 15.4115 8.45739 15.447 8.47847C15.4816 8.49954 15.5207 8.50962 15.5644 8.50962C15.6081 8.50962 15.6463 8.49954 15.6818 8.47847H15.6809ZM15.69 8.28786C15.6791 8.30436 15.6645 8.31627 15.6445 8.32452L15.7128 8.4299H15.6454L15.5844 8.33551H15.5153V8.4299H15.4479V8.122H15.5753C15.6154 8.122 15.6472 8.13208 15.67 8.15132C15.6928 8.17057 15.7046 8.19714 15.7046 8.23013C15.7046 8.25304 15.6991 8.27228 15.6882 8.28878L15.69 8.28786ZM15.5726 8.2842C15.5945 8.2842 15.6108 8.27961 15.6236 8.26953C15.6354 8.25945 15.6418 8.24662 15.6418 8.22921C15.6418 8.2118 15.6354 8.19897 15.6236 8.18889C15.6118 8.17973 15.5945 8.17515 15.5726 8.17515H15.5153V8.2842H15.5726Z" fill="#2A2866"/>
<path d="M22.3447 13.3906H23.8467L25.3415 15.7262V13.3906H26.9728V18.414H25.4709L23.9761 16.0712V18.414H22.3447V13.3906Z" fill="#6396D0"/>
<path d="M19.2611 18.5202C18.7485 18.5202 18.2838 18.41 17.867 18.1896C17.4549 17.9693 17.1291 17.6626 16.8896 17.2698C16.65 16.8721 16.5303 16.417 16.5303 15.9043C16.5303 15.3917 16.65 14.9365 16.8896 14.5389C17.1291 14.1412 17.4549 13.8322 17.867 13.6118C18.2838 13.3914 18.7485 13.2812 19.2611 13.2812C19.769 13.2812 20.2289 13.3914 20.641 13.6118C21.0578 13.8322 21.386 14.1412 21.6255 14.5389C21.8651 14.9365 21.9848 15.3917 21.9848 15.9043C21.9848 16.417 21.8651 16.8721 21.6255 17.2698C21.386 17.6626 21.0578 17.9693 20.641 18.1896C20.2289 18.41 19.769 18.5202 19.2611 18.5202ZM19.2611 16.9176C19.5486 16.9176 19.7858 16.8266 19.9726 16.6445C20.1595 16.4625 20.2529 16.2157 20.2529 15.9043C20.2529 15.5929 20.1595 15.3462 19.9726 15.1641C19.7858 14.9821 19.5486 14.891 19.2611 14.891C18.9689 14.891 18.7293 14.9821 18.5425 15.1641C18.3556 15.3462 18.2622 15.5929 18.2622 15.9043C18.2622 16.2157 18.3556 16.4625 18.5425 16.6445C18.7341 16.8266 18.9737 16.9176 19.2611 16.9176Z" fill="#6396D0"/>
<path d="M14.4707 13.3906H16.1739V18.414H14.4707V13.3906Z" fill="#6396D0"/>
<path d="M11.9764 18.5202C11.6458 18.5202 11.3128 18.4867 10.9775 18.4196C10.6421 18.3525 10.369 18.2615 10.1582 18.1465V16.6661C10.4265 16.8194 10.7092 16.9344 11.0062 17.0111C11.308 17.0877 11.5859 17.126 11.8398 17.126C11.9836 17.126 12.0866 17.1117 12.1489 17.0829C12.2112 17.0542 12.2423 17.0087 12.2423 16.9464C12.2423 16.8601 12.1944 16.7883 12.0986 16.7308C12.0027 16.6685 11.7991 16.5679 11.4877 16.4289C11.0278 16.2277 10.6924 16.0049 10.4816 15.7606C10.2756 15.5115 10.1726 15.2096 10.1726 14.8551C10.1726 14.5485 10.2564 14.2778 10.4241 14.043C10.5966 13.8035 10.8361 13.6166 11.1428 13.4825C11.4542 13.3483 11.8087 13.2812 12.2064 13.2812C12.5321 13.2812 12.822 13.3076 13.0759 13.3603C13.3299 13.413 13.5718 13.4945 13.8018 13.6046V15.0348C13.3706 14.7952 12.9442 14.6754 12.5226 14.6754C12.1824 14.6754 12.0123 14.7497 12.0123 14.8982C12.0123 14.9701 12.0507 15.03 12.1273 15.0779C12.2088 15.1258 12.3525 15.1905 12.5585 15.2719L12.8244 15.3797C13.1646 15.5234 13.4257 15.6672 13.6077 15.8109C13.7898 15.9498 13.9191 16.1103 13.9958 16.2924C14.0725 16.4697 14.1108 16.6948 14.1108 16.9679C14.1108 17.4518 13.9335 17.8327 13.579 18.1106C13.2245 18.3837 12.6903 18.5202 11.9764 18.5202Z" fill="#6396D0"/>
<path d="M8.09814 13.3906H9.80135V18.414H8.09814V13.3906Z" fill="#6396D0"/>
<path d="M2.10107 13.3906H3.88333L4.91819 16.2077L5.95305 13.3906H7.7353L5.72308 18.414H4.1133L2.10107 13.3906Z" fill="#6396D0"/>
</g>
<defs>
<clipPath id="clip0_6301_8281">
<rect width="25.8649" height="11" fill="white" transform="translate(2 8)"/>
</clipPath>
</defs>
</svg>
