<svg width="86" height="78" viewBox="0 0 86 78" fill="none" xmlns="http://www.w3.org/2000/svg">
<g clip-path="url(#clip0_6254_21539)">
<path fill-rule="evenodd" clip-rule="evenodd" d="M4.19238 67.5748V3.96289C4.50745 4.83378 5.34357 5.55748 6.44629 5.97453V65.5631C5.33146 65.9802 4.49533 66.7039 4.19238 67.5748Z" fill="#D1CEDE" stroke="#1A1A18" stroke-width="0.3" stroke-miterlimit="22.9"/>
<path fill-rule="evenodd" clip-rule="evenodd" d="M6.8588 0.0371094H7.33139C8.57952 0.0371094 9.65801 0.78534 10.167 1.85249H80.0139C80.5108 0.773074 81.5892 0.0371094 82.8495 0.0371094H7.31927C7.16174 0.0371094 7.00421 0.0371094 6.84668 0.0739076V0.0371094H6.8588Z" fill="#D1CEDE" stroke="#1A1A18" stroke-width="0.3" stroke-miterlimit="22.9"/>
<path fill-rule="evenodd" clip-rule="evenodd" d="M82.8253 71.5105H7.31927C7.16174 71.5105 7.00421 71.5105 6.84668 71.4737V71.5105H7.31927C8.51894 71.5105 9.56107 70.8236 10.0821 69.8301H80.0624C80.5835 70.8359 81.6256 71.5105 82.8253 71.5105Z" fill="#D1CEDE"/>
<path d="M7.31927 71.5105H82.8253C81.6256 71.5105 80.5835 70.8359 80.0624 69.8301H10.0821C9.56107 70.8236 8.51894 71.5105 7.31927 71.5105ZM7.31927 71.5105C7.16174 71.5105 7.00421 71.5105 6.84668 71.4737V71.5105H7.31927Z" stroke="#1A1A18" stroke-width="0.3" stroke-miterlimit="22.9"/>
<path fill-rule="evenodd" clip-rule="evenodd" d="M85.8667 67.5748V3.96289C85.6607 4.83378 85.0911 5.55748 84.3398 5.97453V65.5631C85.0911 65.9802 85.6607 66.7039 85.8667 67.5748Z" fill="#D1CEDE" stroke="#1A1A18" stroke-width="0.3" stroke-miterlimit="22.9"/>
<path fill-rule="evenodd" clip-rule="evenodd" d="M10.1549 1.85249H80.0019C80.4987 0.773074 81.5772 0.0371094 82.8375 0.0371094C84.0977 0.0371094 85.9639 1.45997 85.9639 3.20176C85.9639 4.94354 85.3095 5.43418 84.3401 5.97389V65.5625C85.3095 66.1022 85.9639 67.1448 85.9639 68.3346C85.9639 70.0887 84.5582 71.4993 82.8375 71.4993C81.1167 71.4993 80.5957 70.8124 80.0746 69.8188H10.0943C9.57326 70.8247 8.53113 71.4993 7.33147 71.4993C5.59862 71.4993 4.20508 70.0764 4.20508 68.3346C4.20508 66.5929 5.16238 65.6729 6.45899 65.2926V6.24375C5.15027 5.8635 4.20508 4.64916 4.20508 3.20176C4.20508 1.75436 5.61074 0.0371094 7.33147 0.0371094C9.0522 0.0371094 9.65809 0.78534 10.167 1.85249H10.1549Z" fill="#E0E0EA" stroke="#1A1A18" stroke-width="0.3" stroke-miterlimit="22.9"/>
<path fill-rule="evenodd" clip-rule="evenodd" d="M12.3599 2.77148H78.1959C78.1959 5.71534 80.5831 8.13176 83.4914 8.13176V63.4027C80.5831 63.4027 78.1959 65.8191 78.1959 68.763H12.3599C12.3599 65.8191 9.97272 63.4027 7.06445 63.4027V8.13176C9.97272 8.13176 12.3599 5.71534 12.3599 2.77148Z" fill="white" stroke="#1A1A18" stroke-width="0.3" stroke-miterlimit="22.9"/>
<path fill-rule="evenodd" clip-rule="evenodd" d="M12.7964 3.16406H77.7478C77.7478 6.08339 80.0986 8.46301 82.9827 8.46301V63.0961C80.0986 63.0961 77.7478 65.4757 77.7478 68.3951H12.7964C12.7964 65.4757 10.4456 63.0961 7.56152 63.0961V8.46301C10.4456 8.46301 12.7964 6.08339 12.7964 3.16406Z" fill="#241861"/>
<path d="M72.9609 51.7747C68.5863 51.1246 65.0722 51.1737 61.9094 51.8974C61.558 51.9832 61.2308 52.0568 60.9037 52.1304C58.7103 52.6579 56.82 53.0995 52.4939 53.0995C48.1679 53.0995 46.6774 52.6088 44.6779 52.0814C42.8239 51.603 40.9093 51.1001 37.2376 51.002C33.8931 51.0755 31.9664 51.5662 30.1002 52.0446C28.0644 52.5597 25.9681 53.0995 21.9934 53.0995C18.0188 53.0995 16.601 52.7437 14.5773 52.3635C12.796 52.0323 10.845 51.6766 7.57324 51.5049V51.6766C10.8329 51.836 12.7839 52.204 14.5531 52.5352C16.5889 52.9155 18.5035 53.2712 22.0055 53.2712C25.5076 53.2712 28.1129 52.7315 30.1608 52.2163C32.0148 51.7379 33.9416 51.2595 37.2618 51.1859C40.9093 51.2841 42.8118 51.787 44.6537 52.2654C46.6653 52.7928 48.5677 53.2834 52.506 53.2834C56.4443 53.2834 58.7588 52.8296 60.9521 52.3022C61.2793 52.2286 61.6065 52.1427 61.9579 52.0691C65.0964 51.3454 68.5985 51.3086 72.9488 51.9587C73.7243 52.0691 74.4271 52.204 75.1784 52.339C77.1052 52.6947 79.2258 53.0872 83.0065 53.2344V53.0627C79.2379 52.9155 77.1294 52.5229 75.2148 52.1672C74.4635 52.0323 73.7606 51.8974 72.9851 51.787L72.9609 51.7747Z" fill="#D4EDFC"/>
<path d="M72.9609 53.0267C68.5863 52.3766 65.0722 52.4256 61.9094 53.1493C61.558 53.2352 61.2308 53.3088 60.9037 53.3824C58.7103 53.9098 56.82 54.3514 52.4939 54.3514C48.1679 54.3514 46.6774 53.8608 44.6779 53.3333C42.8239 52.8549 40.9093 52.352 37.2376 52.2539C33.8931 52.3275 31.9664 52.8181 30.1002 53.2965C28.0644 53.8117 25.9681 54.3514 21.9934 54.3514C18.0188 54.3514 16.601 53.9957 14.5773 53.6154C12.796 53.2843 10.845 52.9285 7.57324 52.7568V52.9285C10.8329 53.088 12.7839 53.456 14.5531 53.7872C16.5889 54.1674 18.5035 54.5231 22.0055 54.5231C25.5076 54.5231 28.1129 53.9834 30.1608 53.4682C32.0148 52.9899 33.9416 52.5115 37.2618 52.4379C40.9093 52.536 42.8118 53.0389 44.6537 53.5173C46.6653 54.0448 48.5677 54.5354 52.506 54.5354C56.4443 54.5354 58.7588 54.0816 60.9521 53.5541C61.2793 53.4805 61.6065 53.3947 61.9579 53.3211C65.0964 52.5974 68.5985 52.5606 72.9488 53.2107C73.7243 53.3211 74.4271 53.456 75.1784 53.5909C77.1052 53.9466 79.2258 54.3391 83.0065 54.4863V54.3146C79.2379 54.1674 77.1294 53.7749 75.2148 53.4192C74.4635 53.2843 73.7606 53.1493 72.9851 53.0389L72.9609 53.0267Z" fill="#D4EDFC"/>
<path d="M72.9609 54.2903C68.5863 53.6402 65.0722 53.6893 61.9094 54.413C61.558 54.4989 61.2308 54.5725 60.9037 54.6461C58.7103 55.1735 56.82 55.6151 52.4939 55.6151C48.1679 55.6151 46.6774 55.1244 44.6779 54.597C42.8239 54.1186 40.9093 53.6157 37.2376 53.5176C33.8931 53.5912 31.9664 54.0818 30.1002 54.5602C28.0644 55.0754 25.9681 55.6151 21.9934 55.6151C18.0188 55.6151 16.601 55.2594 14.5773 54.8791C12.796 54.5479 10.845 54.1922 7.57324 54.0205V54.1922C10.8329 54.3517 12.7839 54.7197 14.5531 55.0508C16.5889 55.4311 18.5035 55.7868 22.0055 55.7868C25.5076 55.7868 28.1129 55.2471 30.1608 54.7319C32.0148 54.2535 33.9416 53.7752 37.2618 53.7016C40.9093 53.7997 42.8118 54.3026 44.6537 54.781C46.6653 55.3084 48.5677 55.7991 52.506 55.7991C56.4443 55.7991 58.7588 55.3452 60.9521 54.8178C61.2793 54.7442 61.6065 54.6583 61.9579 54.5847C65.0964 53.861 68.5985 53.8242 72.9488 54.4743C73.7243 54.5847 74.4271 54.7197 75.1663 54.8546C77.093 55.2103 79.2137 55.6028 82.9944 55.75V55.5783C79.2258 55.4311 77.1052 55.0386 75.1905 54.6829C74.4392 54.5479 73.7364 54.413 72.9609 54.3026V54.2903Z" fill="#D4EDFC"/>
<path d="M72.9609 55.554C68.5863 54.9039 65.0722 54.953 61.9094 55.6767C61.558 55.7625 61.2308 55.8361 60.9037 55.9097C58.7103 56.4372 56.82 56.8788 52.4939 56.8788C48.1679 56.8788 46.6774 56.3881 44.6779 55.8607C42.8239 55.3823 40.9093 54.8794 37.2376 54.7812C33.8931 54.8548 31.9664 55.3455 30.1002 55.8239C28.0644 56.339 25.9681 56.8788 21.9934 56.8788C18.0188 56.8788 16.601 56.523 14.5773 56.1428C12.796 55.8116 10.845 55.4559 7.57324 55.2842V55.4559C10.8329 55.6153 12.7839 55.9833 14.5531 56.3145C16.5889 56.6948 18.5035 57.0505 22.0055 57.0505C25.5076 57.0505 28.1129 56.5108 30.1608 55.9956C32.0148 55.5172 33.9416 55.0388 37.2618 54.9652C40.9093 55.0634 42.8118 55.5663 44.6537 56.0447C46.6653 56.5721 48.5677 57.0627 52.506 57.0627C56.4443 57.0627 58.7588 56.6089 60.9521 56.0815C61.2793 56.0079 61.6065 55.922 61.9579 55.8484C65.0964 55.1247 68.5985 55.0879 72.9488 55.738C73.7243 55.8484 74.4271 55.9833 75.1663 56.1183C77.093 56.474 79.2137 56.8665 82.9944 57.0137V56.8419C79.2258 56.6948 77.1052 56.3022 75.1905 55.9465C74.4392 55.8116 73.7364 55.6767 72.9609 55.5663V55.554Z" fill="#D4EDFC"/>
<path d="M72.9609 56.8157C68.5863 56.1656 65.0722 56.2147 61.9094 56.9384C61.558 57.0243 61.2308 57.0979 60.9037 57.1714C58.7103 57.6989 56.82 58.1405 52.4939 58.1405C48.1679 58.1405 46.6774 57.6498 44.6779 57.1224C42.8239 56.644 40.9093 56.1411 37.2376 56.043C33.8931 56.1166 31.9664 56.6072 30.1002 57.0856C28.0644 57.6008 25.9681 58.1405 21.9934 58.1405C18.0188 58.1405 16.601 57.7848 14.5773 57.4045C12.796 57.0733 10.845 56.7176 7.57324 56.5459V56.7176C10.8329 56.8771 12.7839 57.245 14.5531 57.5762C16.5889 57.9565 18.5035 58.3122 22.0055 58.3122C25.5076 58.3122 28.1129 57.7725 30.1608 57.2573C32.0148 56.7789 33.9416 56.3006 37.2618 56.227C40.9093 56.3251 42.8118 56.828 44.6537 57.3064C46.6653 57.8338 48.5677 58.3245 52.506 58.3245C56.4443 58.3245 58.7588 57.8706 60.9521 57.3432C61.2793 57.2696 61.6065 57.1837 61.9579 57.1101C65.0964 56.3864 68.5985 56.3496 72.9488 56.9997C73.7243 57.1101 74.4271 57.245 75.1663 57.38C77.093 57.7357 79.2137 58.1282 82.9944 58.2754V58.1037C79.2258 57.9565 77.1052 57.564 75.1905 57.2082C74.4392 57.0733 73.7364 56.9384 72.9609 56.828V56.8157Z" fill="#D4EDFC"/>
<path d="M72.9609 58.0794C68.5863 57.4293 65.0722 57.4784 61.9094 58.2021C61.558 58.2879 61.2308 58.3615 60.9037 58.4351C58.7103 58.9626 56.82 59.4041 52.4939 59.4041C48.1679 59.4041 46.6774 58.9135 44.6779 58.3861C42.8239 57.9077 40.9093 57.4048 37.2376 57.3066C33.8931 57.3802 31.9664 57.8709 30.1002 58.3493C28.0644 58.8644 25.9681 59.4041 21.9934 59.4041C18.0188 59.4041 16.601 59.0484 14.5773 58.6682C12.796 58.337 10.845 57.9813 7.57324 57.8095V57.9813C10.8329 58.1407 12.7839 58.5087 14.5531 58.8399C16.5889 59.2201 18.5035 59.5759 22.0055 59.5759C25.5076 59.5759 28.1129 59.0362 30.1608 58.521C32.0148 58.0426 33.9416 57.5642 37.2618 57.4906C40.9093 57.5888 42.8118 58.0917 44.6537 58.57C46.6653 59.0975 48.5677 59.5881 52.506 59.5881C56.4443 59.5881 58.7588 59.1343 60.9521 58.6068C61.2793 58.5332 61.6065 58.4474 61.9579 58.3738C65.0964 57.6501 68.5985 57.6133 72.9488 58.2634C73.7243 58.3738 74.4271 58.5087 75.1663 58.6436C77.093 58.9994 79.2137 59.3919 82.9944 59.5391V59.3673C79.2258 59.2201 77.1052 58.8276 75.1905 58.4719C74.4392 58.337 73.7364 58.2021 72.9609 58.0917V58.0794Z" fill="#D4EDFC"/>
<path d="M72.9609 59.3431C68.5863 58.693 65.0722 58.742 61.9094 59.4657C61.558 59.5516 61.2308 59.6252 60.9037 59.6988C58.7103 60.2262 56.82 60.6678 52.4939 60.6678C48.1679 60.6678 46.6774 60.1772 44.6779 59.6497C42.8239 59.1713 40.9093 58.6684 37.2376 58.5703C33.8931 58.6439 31.9664 59.1346 30.1002 59.6129C28.0644 60.1281 25.9681 60.6678 21.9934 60.6678C18.0188 60.6678 16.601 60.3121 14.5773 59.9318C12.796 59.6007 10.845 59.2449 7.57324 59.0732V59.2449C10.8329 59.4044 12.7839 59.7724 14.5531 60.1036C16.5889 60.4838 18.5035 60.8395 22.0055 60.8395C25.5076 60.8395 28.1129 60.2998 30.1608 59.7847C32.0148 59.3063 33.9416 58.8279 37.2618 58.7543C40.9093 58.8524 42.8118 59.3553 44.6537 59.8337C46.6653 60.3612 48.5677 60.8518 52.506 60.8518C56.4443 60.8518 58.7588 60.398 60.9521 59.8705C61.2793 59.7969 61.6065 59.7111 61.9579 59.6375C65.0964 58.9138 68.5985 58.877 72.9488 59.5271C73.7243 59.6375 74.4271 59.7724 75.1784 59.9073C77.1052 60.263 79.2258 60.6555 83.0065 60.8027V60.631C79.2379 60.4838 77.1294 60.0913 75.2148 59.7356C74.4635 59.6007 73.7606 59.4657 72.9851 59.3553L72.9609 59.3431Z" fill="#D4EDFC"/>
<path d="M72.9609 60.595C68.5863 59.9449 65.0722 59.994 61.9094 60.7177C61.558 60.8036 61.2308 60.8771 60.9037 60.9507C58.7103 61.4782 56.82 61.9198 52.4939 61.9198C48.1679 61.9198 46.6774 61.4291 44.6779 60.9017C42.8239 60.4233 40.9093 59.9204 37.2376 59.8223C33.8931 59.8959 31.9664 60.3865 30.1002 60.8649C28.0644 61.3801 25.9681 61.9198 21.9934 61.9198C18.0188 61.9198 16.601 61.564 14.5773 61.1838C12.796 60.8526 10.845 60.4969 7.57324 60.3252V60.4969C10.8329 60.6564 12.7839 61.0243 14.5531 61.3555C16.5889 61.7358 18.5035 62.0915 22.0055 62.0915C25.5076 62.0915 28.1129 61.5518 30.1608 61.0366C32.0148 60.5582 33.9416 60.0799 37.2618 60.0063C40.9093 60.1044 42.8118 60.6073 44.6537 61.0857C46.6653 61.6131 48.5677 62.1038 52.506 62.1038C56.4443 62.1038 58.7588 61.6499 60.9521 61.1225C61.2793 61.0489 61.6065 60.963 61.9579 60.8894C65.0964 60.1657 68.5985 60.1289 72.9488 60.779C73.7243 60.8894 74.4271 61.0243 75.1784 61.1593C77.1052 61.515 79.2258 61.9075 83.0065 62.0547V61.883C79.2379 61.7358 77.1294 61.3433 75.2148 60.9875C74.4635 60.8526 73.7606 60.7177 72.9851 60.6073L72.9609 60.595Z" fill="#D4EDFC"/>
<path d="M72.9609 61.8587C68.5863 61.2086 65.0722 61.2577 61.9094 61.9814C61.558 62.0672 61.2308 62.1408 60.9037 62.2144C58.7103 62.7419 56.82 63.1834 52.4939 63.1834C48.1679 63.1834 46.6774 62.6928 44.6779 62.1654C42.8239 61.687 40.9093 61.1841 37.2376 61.0859C33.8931 61.1595 31.9664 61.6502 30.1002 62.1286C28.0644 62.6437 25.9681 63.1834 21.9934 63.1834C18.0188 63.1834 16.601 62.8277 14.5773 62.4475C12.796 62.1163 10.845 61.7606 7.57324 61.5888V61.7606C10.8329 61.92 12.7839 62.288 14.5531 62.6192C16.5889 62.9994 18.5035 63.3552 22.0055 63.3552C25.5076 63.3552 28.1129 62.8155 30.1608 62.3003C32.0148 61.8219 33.9416 61.3435 37.2618 61.2699C40.9093 61.3681 42.8118 61.871 44.6537 62.3493C46.6653 62.8768 48.5677 63.3674 52.506 63.3674C56.4443 63.3674 58.7588 62.9136 60.9521 62.3861C61.2793 62.3125 61.6065 62.2267 61.9579 62.1531C65.0964 61.4294 68.5985 61.3926 72.9488 62.0427C73.7243 62.1531 74.4271 62.288 75.1663 62.4229C76.8628 62.7419 78.7168 63.0853 81.722 63.257C81.9644 63.1957 82.2189 63.1466 82.4855 63.1221C79.044 62.9626 77.0324 62.5947 75.2027 62.2512C74.4514 62.1163 73.7485 61.9814 72.973 61.871L72.9609 61.8587Z" fill="#D4EDFC"/>
<path d="M72.9609 63.1204C68.5863 62.4703 65.0722 62.5194 61.9094 63.2431C61.558 63.3289 61.2308 63.4025 60.9037 63.4761C58.7103 64.0036 56.82 64.4452 52.4939 64.4452C48.1679 64.4452 46.6774 63.9545 44.6779 63.4271C42.8239 62.9487 40.9093 62.4458 37.2376 62.3477C33.8931 62.4213 31.9664 62.9119 30.1002 63.3903C28.0644 63.9054 25.9681 64.4452 21.9934 64.4452C18.0188 64.4452 16.601 64.0894 14.5773 63.7092C12.796 63.378 10.845 63.0223 7.57324 62.8506V63.0223C10.8329 63.1817 12.7839 63.5497 14.5531 63.8809C16.5889 64.2612 18.5035 64.6169 22.0055 64.6169C25.5076 64.6169 28.1129 64.0772 30.1608 63.562C32.0148 63.0836 33.9416 62.6052 37.2618 62.5316C40.9093 62.6298 42.8118 63.1327 44.6537 63.6111C46.6653 64.1385 48.5677 64.6292 52.506 64.6292C56.4443 64.6292 58.7588 64.1753 60.9521 63.6479C61.2793 63.5743 61.6065 63.4884 61.9579 63.4148C65.0964 62.6911 68.5985 62.6543 72.9488 63.3044C73.7243 63.4148 74.4271 63.5497 75.1663 63.6847C76.4266 63.9177 77.7716 64.163 79.6135 64.347C79.6741 64.298 79.7347 64.2366 79.8074 64.1876C77.8807 64.0036 76.4872 63.746 75.1905 63.5007C74.4392 63.3657 73.7364 63.2308 72.9609 63.1204Z" fill="#D4EDFC"/>
<path d="M72.9614 64.3841C68.5869 63.734 65.0727 63.7831 61.91 64.5068C61.5585 64.5926 61.2314 64.6662 60.9042 64.7398C58.7109 65.2673 56.8205 65.7088 52.4944 65.7088C48.1684 65.7088 46.6779 65.2182 44.6785 64.6907C42.8244 64.2124 40.9098 63.7095 37.2381 63.6113C33.8936 63.6849 31.9669 64.1756 30.1008 64.6539C28.065 65.1691 25.9686 65.7088 21.9939 65.7088C18.0193 65.7088 16.6015 65.3531 14.5779 64.9729C13.5357 64.7766 12.4209 64.5681 11.0273 64.4086C11.1001 64.47 11.1728 64.5436 11.2455 64.6049C12.53 64.7643 13.5721 64.9606 14.5536 65.1446C16.5894 65.5248 18.504 65.8806 22.0061 65.8806C25.5081 65.8806 28.1134 65.3408 30.1613 64.8257C32.0154 64.3473 33.9421 63.8689 37.2624 63.7953C40.9098 63.8934 42.8123 64.3964 44.6542 64.8747C46.6658 65.4022 48.5683 65.8928 52.5066 65.8928C56.4448 65.8928 58.7593 65.439 60.9527 64.9115C61.2798 64.8379 61.607 64.7521 61.9584 64.6785C65.0969 63.9548 68.599 63.918 72.9493 64.5681C73.7248 64.6785 74.4276 64.8134 75.1668 64.9483C76.1847 65.1323 77.2632 65.3408 78.6204 65.5003C78.6568 65.4512 78.6931 65.3899 78.7295 65.3408C77.3359 65.1691 76.2453 64.9729 75.2032 64.7766C74.4519 64.6417 73.7491 64.5068 72.9735 64.3964L72.9614 64.3841Z" fill="#D4EDFC"/>
<path d="M72.9614 65.6478C68.5869 64.9977 65.0727 65.0467 61.91 65.7704C61.5585 65.8563 61.2314 65.9299 60.9042 66.0035C58.7109 66.5309 56.8205 66.9725 52.4944 66.9725C48.1684 66.9725 46.6779 66.4819 44.6785 65.9544C42.8244 65.476 40.9098 64.9731 37.2381 64.875C33.8936 64.9486 31.9669 65.4392 30.1008 65.9176C28.065 66.4328 25.9686 66.9725 21.9939 66.9725C18.0193 66.9725 16.6015 66.6168 14.5779 66.2365C13.8266 66.1016 13.051 65.9544 12.1543 65.8195C12.1907 65.8808 12.227 65.9421 12.2512 66.0157C13.0995 66.1384 13.8387 66.2856 14.5536 66.4083C16.5894 66.7885 18.504 67.1442 22.0061 67.1442C25.5081 67.1442 28.1134 66.6045 30.1613 66.0893C32.0154 65.611 33.9421 65.1326 37.2624 65.059C40.9098 65.1571 42.8123 65.66 44.6542 66.1384C46.6658 66.6658 48.5683 67.1565 52.5066 67.1565C56.4448 67.1565 58.7593 66.7026 60.9527 66.1752C61.2798 66.1016 61.607 66.0157 61.9584 65.9421C65.0969 65.2184 68.599 65.1817 72.9493 65.8318C73.7248 65.9421 74.4277 66.0771 75.1668 66.212C76.0393 66.3715 76.9482 66.5432 78.0387 66.6904C78.063 66.629 78.0751 66.58 78.0993 66.5187C76.9966 66.3715 76.0757 66.1997 75.1911 66.028C74.4398 65.8931 73.7369 65.7582 72.9614 65.6478Z" fill="#D4EDFC"/>
<path d="M72.9612 66.9114C68.5867 66.2613 65.0726 66.3104 61.9098 67.0341C61.5584 67.12 61.2312 67.1936 60.904 67.2672C58.7107 67.7946 56.8203 68.2362 52.4943 68.2362C48.1682 68.2362 46.6777 67.7455 44.6783 67.2181C42.8243 66.7397 40.9097 66.2368 37.238 66.1387C33.8935 66.2123 31.9667 66.7029 30.1006 67.1813C28.0648 67.6965 25.9684 68.2362 21.9938 68.2362C18.0192 68.2362 16.6014 67.8805 14.5777 67.5002C13.9718 67.3898 13.3538 67.2671 12.6631 67.1568C12.6752 67.2181 12.6873 67.2794 12.6994 67.3407C13.3538 67.4511 13.9597 67.5615 14.5413 67.6719C16.2621 67.9908 17.898 68.2975 20.4669 68.3834H23.4116C26.5137 68.273 28.3556 67.8069 30.1369 67.353C31.991 66.8746 33.9177 66.3963 37.238 66.3227C40.8854 66.4208 42.7879 66.9237 44.6298 67.4021C46.3748 67.8559 48.0471 68.2852 51.0401 68.3956H54.1423C57.3656 68.2975 59.0379 67.8927 60.9404 67.4389C61.2676 67.3653 61.5947 67.2794 61.9462 67.2058C65.0847 66.4821 68.5867 66.4453 72.937 67.0954C73.7125 67.2058 74.4154 67.3407 75.1546 67.4757C75.9543 67.6229 76.7905 67.7823 77.772 67.9173C77.772 67.8559 77.772 67.8069 77.7962 67.7455C76.8268 67.6106 75.9907 67.4511 75.1909 67.3039C74.4396 67.169 73.7368 67.0341 72.9612 66.9237V66.9114Z" fill="#D4EDFC"/>
<path d="M30.3184 68.3836H31.0333C32.645 67.9911 34.4384 67.6354 37.2376 67.5741C40.1944 67.6599 42.012 68.0034 43.5752 68.3836H44.2902C42.5452 67.9298 40.6548 67.5005 37.2376 67.4023C34.0264 67.4759 32.1239 67.9298 30.3184 68.3836Z" fill="#D4EDFC"/>
<path d="M61.8978 68.2855C61.7523 68.3223 61.619 68.3469 61.4736 68.3837H62.2613C65.315 67.7336 68.7201 67.7213 72.925 68.3346C73.0219 68.3469 73.1188 68.3591 73.2158 68.3837H74.27C73.8459 68.3101 73.4097 68.2365 72.9613 68.1629C68.5868 67.5128 65.0726 67.5618 61.9099 68.2855H61.8978Z" fill="#D4EDFC"/>
<path d="M12.7964 3.16406H77.7478C77.7478 6.08339 80.0986 8.46301 82.9827 8.46301V63.0961C80.0986 63.0961 77.7478 65.4757 77.7478 68.3951H12.7964C12.7964 65.4757 10.4456 63.0961 7.56152 63.0961V8.46301C10.4456 8.46301 12.7964 6.08339 12.7964 3.16406Z" stroke="#1A1A18" stroke-width="0.3" stroke-miterlimit="22.9"/>
<path fill-rule="evenodd" clip-rule="evenodd" d="M82.8256 5.44532C84.0495 5.44532 85.031 4.4395 85.031 3.2129C85.031 1.98629 84.0373 0.980469 82.8256 0.980469C81.6138 0.980469 80.6201 1.98629 80.6201 3.2129C80.6201 4.4395 81.6138 5.44532 82.8256 5.44532Z" fill="#D1CEDE" stroke="#1A1A18" stroke-width="0.3" stroke-miterlimit="22.9"/>
<path fill-rule="evenodd" clip-rule="evenodd" d="M82.8256 70.5781C84.0495 70.5781 85.031 69.5723 85.031 68.3457C85.031 67.1191 84.0373 66.1133 82.8256 66.1133C81.6138 66.1133 80.6201 67.1191 80.6201 68.3457C80.6201 69.5723 81.6138 70.5781 82.8256 70.5781Z" fill="#D1CEDE" stroke="#1A1A18" stroke-width="0.3" stroke-miterlimit="22.9"/>
<path fill-rule="evenodd" clip-rule="evenodd" d="M7.31872 5.44532C8.54262 5.44532 9.52416 4.4395 9.52416 3.2129C9.52416 1.98629 8.5305 0.980469 7.31872 0.980469C6.10694 0.980469 5.11328 1.98629 5.11328 3.2129C5.11328 4.4395 6.10694 5.44532 7.31872 5.44532Z" fill="#D1CEDE" stroke="#1A1A18" stroke-width="0.3" stroke-miterlimit="22.9"/>
<path fill-rule="evenodd" clip-rule="evenodd" d="M7.31872 70.5781C8.54262 70.5781 9.52416 69.5723 9.52416 68.3457C9.52416 67.1191 8.5305 66.1133 7.31872 66.1133C6.10694 66.1133 5.11328 67.1191 5.11328 68.3457C5.11328 69.5723 6.10694 70.5781 7.31872 70.5781Z" fill="#D1CEDE" stroke="#1A1A18" stroke-width="0.3" stroke-miterlimit="22.9"/>
<path d="M71.3255 71.5117H66.6602V72.4562H71.3255V71.5117Z" fill="#D1CEDE" stroke="#1A1A18" stroke-width="0.3" stroke-miterlimit="22.9"/>
<path d="M69.9079 72.4434H67.2178V75.7184H69.9079V72.4434Z" fill="#D1CEDE" stroke="#1A1A18" stroke-width="0.3" stroke-miterlimit="22.9"/>
<path d="M70.5743 72.4434H69.9199V75.7184H70.5743V72.4434Z" fill="#D1CEDE" stroke="#1A1A18" stroke-width="0.3" stroke-miterlimit="22.9"/>
<path fill-rule="evenodd" clip-rule="evenodd" d="M70.5742 72.4434H72.4888V75.0928C72.4888 75.4363 72.2101 75.7184 71.8708 75.7184H70.5742V72.4434Z" fill="#D1CEDE" stroke="#1A1A18" stroke-width="0.3" stroke-miterlimit="22.9"/>
<path d="M67.217 72.4434H66.708V75.7184H67.217V72.4434Z" fill="#D1CEDE" stroke="#1A1A18" stroke-width="0.3" stroke-miterlimit="22.9"/>
<path fill-rule="evenodd" clip-rule="evenodd" d="M65.5088 72.4434H66.7085V75.7184H65.9329C65.6906 75.7184 65.5088 75.5221 65.5088 75.2891V72.4434Z" fill="#D1CEDE" stroke="#1A1A18" stroke-width="0.3" stroke-miterlimit="22.9"/>
<path fill-rule="evenodd" clip-rule="evenodd" d="M66.7928 77.9629H71.1916C71.3855 77.9629 71.5309 77.8034 71.5309 77.6194V75.7305H66.4414V77.6194C66.4414 77.8157 66.5989 77.9629 66.7807 77.9629H66.7928Z" fill="#D1CEDE" stroke="#1A1A18" stroke-width="0.3" stroke-miterlimit="22.9"/>
<path d="M31.5667 71.5117H26.9014V72.4562H31.5667V71.5117Z" fill="#D1CEDE" stroke="#1A1A18" stroke-width="0.3" stroke-miterlimit="22.9"/>
<path d="M30.1491 72.4434H27.459V75.7184H30.1491V72.4434Z" fill="#D1CEDE" stroke="#1A1A18" stroke-width="0.3" stroke-miterlimit="22.9"/>
<path d="M30.8155 72.4434H30.1611V75.7184H30.8155V72.4434Z" fill="#D1CEDE" stroke="#1A1A18" stroke-width="0.3" stroke-miterlimit="22.9"/>
<path fill-rule="evenodd" clip-rule="evenodd" d="M30.8154 72.4434H32.73V75.0928C32.73 75.4363 32.4513 75.7184 32.112 75.7184H30.8154V72.4434Z" fill="#D1CEDE" stroke="#1A1A18" stroke-width="0.3" stroke-miterlimit="22.9"/>
<path d="M27.4591 72.4434H26.9502V75.7184H27.4591V72.4434Z" fill="#D1CEDE" stroke="#1A1A18" stroke-width="0.3" stroke-miterlimit="22.9"/>
<path fill-rule="evenodd" clip-rule="evenodd" d="M25.75 72.4434H26.9497V75.7184H26.1741C25.9318 75.7184 25.75 75.5221 25.75 75.2891V72.4434Z" fill="#D1CEDE" stroke="#1A1A18" stroke-width="0.3" stroke-miterlimit="22.9"/>
<path fill-rule="evenodd" clip-rule="evenodd" d="M27.035 77.9629H31.4338C31.6277 77.9629 31.7731 77.8034 31.7731 77.6194V75.7305H26.6836V77.6194C26.6836 77.8157 26.8411 77.9629 27.0229 77.9629H27.035Z" fill="#D1CEDE" stroke="#1A1A18" stroke-width="0.3" stroke-miterlimit="22.9"/>
<path d="M23.5569 71.5117H19.873V72.2477H23.5569V71.5117Z" fill="#D1CEDE" stroke="#1A1A18" stroke-width="0.3" stroke-miterlimit="22.9"/>
<path d="M22.4419 72.248H20.3213V74.8239H22.4419V72.248Z" fill="#D1CEDE" stroke="#1A1A18" stroke-width="0.3" stroke-miterlimit="22.9"/>
<path d="M22.9634 72.248H22.4424V74.8239H22.9634V72.248Z" fill="#D1CEDE" stroke="#1A1A18" stroke-width="0.3" stroke-miterlimit="22.9"/>
<path fill-rule="evenodd" clip-rule="evenodd" d="M22.9629 72.248H24.4776V74.3333C24.4776 74.6031 24.2595 74.8239 23.9929 74.8239H22.975V72.248H22.9629Z" fill="#D1CEDE" stroke="#1A1A18" stroke-width="0.3" stroke-miterlimit="22.9"/>
<path d="M20.3091 72.248H19.9092V74.8239H20.3091V72.248Z" fill="#D1CEDE" stroke="#1A1A18" stroke-width="0.3" stroke-miterlimit="22.9"/>
<path fill-rule="evenodd" clip-rule="evenodd" d="M18.9639 72.248H19.9091V74.8239H19.3032C19.1214 74.8239 18.9639 74.6645 18.9639 74.4805V72.248Z" fill="#D1CEDE" stroke="#1A1A18" stroke-width="0.3" stroke-miterlimit="22.9"/>
<path fill-rule="evenodd" clip-rule="evenodd" d="M19.9824 76.6023H23.4602C23.6056 76.6023 23.7268 76.4796 23.7268 76.3324V74.8359H19.7158V76.3324C19.7158 76.4796 19.837 76.6023 19.9824 76.6023Z" fill="#D1CEDE" stroke="#1A1A18" stroke-width="0.3" stroke-miterlimit="22.9"/>
<path fill-rule="evenodd" clip-rule="evenodd" d="M54.2663 33.7148C52.1651 33.7148 50.4383 35.3683 50.4383 37.3775C50.4383 39.3867 52.1663 41.0401 54.2663 41.0401C56.3663 41.0401 58.0943 39.3867 58.0943 37.3775C58.0943 35.3683 56.3663 33.7148 54.2663 33.7148ZM54.2663 41.7957C51.7688 41.7957 49.7148 39.8111 49.7148 37.4008C49.7148 34.9905 51.7458 33.0059 54.2663 33.0059C56.7868 33.0059 58.8177 34.9905 58.8177 37.4008C58.8177 39.8111 56.7868 41.7957 54.2663 41.7957Z" fill="#6396D0"/>
<path fill-rule="evenodd" clip-rule="evenodd" d="M57.3704 37.4237C57.3704 38.9128 56.0399 40.2829 54.4064 40.2829C52.7729 40.2829 51.4424 39.0072 51.4424 37.4237C51.4424 35.8401 52.7729 34.5645 54.4064 34.5645C56.0399 34.5645 57.3704 35.8401 57.3704 37.4237Z" fill="#6396D0"/>
<path fill-rule="evenodd" clip-rule="evenodd" d="M29.5455 19.9395L26.3706 29.8639H23.4054L21.538 23.8388L19.5774 29.8639H16.6121L13.4385 19.9395H16.2862L18.2698 26.2724L20.3238 19.9395H22.8685L24.8534 26.3436L26.9074 19.9395H29.5455Z" fill="#6396D0"/>
<path fill-rule="evenodd" clip-rule="evenodd" d="M35.9641 25.8701L34.7038 22.7042L33.4436 25.8701H35.9641ZM36.7578 27.9259H32.6256L31.8549 29.8394H29.0303L33.3491 19.9395H36.0804L40.4222 29.8394H37.5515L36.7808 27.9259H36.7578Z" fill="#6396D0"/>
<path fill-rule="evenodd" clip-rule="evenodd" d="M46.795 22.5386C46.5151 22.2786 46.0716 22.1608 45.5117 22.1608H43.9716V25.0667H45.5117C46.0716 25.0667 46.5151 24.9489 46.795 24.6889C47.0749 24.4288 47.2385 24.0743 47.2385 23.6254C47.2385 23.1765 47.0979 22.7987 46.795 22.5386ZM45.4645 27.2169H43.9473V29.8394H41.1699V19.9395H45.6523C46.5393 19.9395 47.31 20.0817 47.9632 20.3884C48.6163 20.695 49.1301 21.1207 49.4803 21.6641C49.8305 22.2075 50.0171 22.8686 50.0171 23.6021C50.0171 24.3356 49.8535 24.9489 49.5264 25.469C49.1992 26.0124 48.7326 26.4147 48.1025 26.7214L50.2037 29.8406H47.2397L45.4657 27.2181L45.4645 27.2169Z" fill="#6396D0"/>
<path fill-rule="evenodd" clip-rule="evenodd" d="M59.4011 27.6904V29.8639H51.5342V19.9395H59.2144V22.113H54.2886V23.791H58.6304V25.8701H54.2886V27.6904H59.4011Z" fill="#6396D0"/>
<path fill-rule="evenodd" clip-rule="evenodd" d="M29.5455 32.4863L26.3706 42.3875H23.4054L21.538 36.3612L19.5774 42.3875H16.6121L13.4385 32.4863H16.2862L18.2698 38.8193L20.3238 32.4863H22.8685L24.8534 38.8659L26.9074 32.4863H29.5455Z" fill="white"/>
<path fill-rule="evenodd" clip-rule="evenodd" d="M35.9641 38.3937L34.7038 35.2278L33.4436 38.3937H35.9641ZM36.7578 40.4728H32.6256L31.8549 42.3863H29.0303L33.3491 32.4863H36.0804L40.4222 42.3863H37.5515L36.7808 40.4728H36.7578Z" fill="white"/>
<path fill-rule="evenodd" clip-rule="evenodd" d="M42.7802 34.7077H39.792V32.4863H48.5459V34.7077H45.5576V42.3875H42.7802V34.7077Z" fill="white"/>
<path fill-rule="evenodd" clip-rule="evenodd" d="M51.5574 41.937C50.7407 41.4881 50.1105 40.8969 49.6428 40.0934C49.1763 39.3133 48.9424 38.4154 48.9424 37.4231C48.9424 36.4308 49.1763 35.5562 49.6428 34.7528C50.1093 33.9727 50.7395 33.3581 51.5574 32.9092C52.3741 32.4602 53.2854 32.248 54.3118 32.248C55.3382 32.248 56.0155 32.4136 56.739 32.7203C57.4624 33.0515 58.0465 33.5004 58.536 34.1149L56.785 35.7218C56.1549 34.9417 55.3842 34.5639 54.4742 34.5639C53.5641 34.5639 53.4708 34.6816 53.0503 34.9184C52.6298 35.1551 52.3039 35.4851 52.093 35.9107C51.8591 36.3363 51.7428 36.8319 51.7428 37.3998C51.7428 37.9677 51.8591 38.44 52.093 38.8889C52.3269 39.3145 52.6529 39.6445 53.0503 39.8812C53.4708 40.118 53.9373 40.2357 54.4742 40.2357C55.3842 40.2357 56.1549 39.8579 56.785 39.0778L58.536 40.6847C58.0695 41.2992 57.4624 41.7481 56.739 42.0793C56.0155 42.4105 55.2218 42.5516 54.3118 42.5516C53.4017 42.5516 52.3741 42.3393 51.5574 41.8904V41.9382V41.937Z" fill="white"/>
<path fill-rule="evenodd" clip-rule="evenodd" d="M69.0882 32.4863V42.3875H66.3107V38.536H62.5288V42.3875H59.7744V32.4863H62.5288V36.1968H66.3107V32.4863H69.0882Z" fill="white"/>
<path fill-rule="evenodd" clip-rule="evenodd" d="M14.5821 13.346C14.4888 12.6137 15.0729 11.787 15.703 11.7624C16.4737 11.7624 17.1268 12.3058 17.1971 12.9915C17.3607 14.8351 14.839 15.2362 14.5821 13.346ZM18.4574 12.9203V12.8026C18.4574 12.637 18.4101 12.4714 18.3641 12.3303C18.3641 12.2825 18.3168 12.2126 18.2938 12.1414C18.2708 12.0703 18.2235 11.9759 18.1775 11.8814C18.1775 11.8336 18.1072 11.7637 18.0611 11.6925C17.9206 11.4803 17.7582 11.3147 17.6649 11.1957C17.6176 11.1724 17.5946 11.1246 17.5243 11.078C17.1971 10.8412 16.8009 10.6523 16.3574 10.6523C15.7272 10.6523 15.5406 10.7701 15.0499 10.959C14.7699 11.0534 14.6536 10.959 14.3967 10.9112C13.9532 10.7934 13.626 10.959 13.5327 11.0767C13.4854 11.1246 13.4624 11.1712 13.4164 11.2423C13.2758 11.549 13.3231 12.4947 13.3231 12.9203V16.4407C13.3231 16.8185 13.3 17.2208 13.4636 17.5042C13.6042 17.7875 14.4912 18.1653 14.5603 16.7719C14.5603 16.3941 14.513 16.0163 14.6766 15.7084C14.9335 15.2116 15.4703 15.6606 15.9369 15.7084C16.4967 15.7563 17.0105 15.6373 17.408 15.3539C17.408 15.3539 17.4552 15.3306 17.4783 15.3061C17.5485 15.2583 17.6188 15.1883 17.6879 15.1405L17.7582 15.0694C17.8054 15.0215 17.8285 14.9749 17.8745 14.9271C17.9678 14.8326 18.0381 14.6903 18.1314 14.5726C18.1314 14.5726 18.1544 14.5493 18.1544 14.5247C18.2017 14.4303 18.2477 14.3125 18.295 14.2181C18.4356 13.8636 18.4816 13.438 18.4586 12.9657V12.9179L18.4574 12.9203Z" fill="white"/>
<path fill-rule="evenodd" clip-rule="evenodd" d="M24.433 14.5272C23.6866 14.5272 23.1025 13.9127 23.1025 13.1804C23.1025 12.4481 23.7096 11.8336 24.433 11.8336C25.1565 11.8336 25.7636 12.4481 25.7636 13.1804C25.7636 13.9127 25.1795 14.5272 24.433 14.5272ZM24.433 10.6523C23.0552 10.6523 21.9355 11.787 21.9355 13.1804C21.9355 14.5738 23.0564 15.7084 24.433 15.7084C25.8096 15.7084 26.9305 14.5738 26.9305 13.1804C26.9305 11.787 25.8096 10.6523 24.433 10.6523Z" fill="white"/>
<path fill-rule="evenodd" clip-rule="evenodd" d="M19.1797 13.0874V11.5038C19.2027 11.1726 19.4366 10.7482 19.9964 10.8427C20.5563 10.9371 20.7671 11.0549 21.3039 10.7715C21.8408 10.4649 22.2843 10.866 22.3073 11.1972C22.3073 11.5038 22.1437 11.7884 21.7474 11.8117C21.3512 11.835 20.6738 12.0951 20.5575 12.7096C20.4169 13.3241 20.4642 13.8675 20.4642 14.4342C20.4642 15.0009 20.3478 15.6387 19.811 15.6866C19.2512 15.7099 19.2039 15.1432 19.1809 14.6942V13.0874H19.1797Z" fill="white"/>
<path fill-rule="evenodd" clip-rule="evenodd" d="M35.1942 12.3295C35.1942 10.9116 33.9339 10.6994 33.9339 10.6994C33.7243 10.6515 33.4674 10.6282 33.1875 10.6761C32.9536 10.6994 32.6967 10.8184 32.5343 10.9361C31.9745 11.3139 31.7176 11.0539 31.1565 10.8184C29.9193 10.2983 29.6164 11.1017 28.8917 10.9361C28.6118 10.8883 28.3779 10.7938 28.075 10.8883C27.8411 10.9594 27.7478 11.1483 27.6787 11.4084C27.5854 11.834 27.6315 12.7319 27.6315 13.2274V15.0943C27.7018 15.4255 27.9114 15.7088 28.2846 15.661C28.6118 15.6132 28.7984 15.3065 28.8214 14.9287C28.8687 14.1731 28.7512 13.2507 28.962 12.5663C29.0323 12.1885 29.3352 11.7861 29.7788 11.7861H29.8951C29.8951 11.7861 30.8051 11.7383 30.7821 13.2041C30.8294 14.2197 30.6415 15.2366 31.085 15.5666C31.2947 15.7088 31.7152 15.7321 31.9018 15.401C32.1357 14.9753 32.0181 13.7941 32.0424 13.1796C32.0424 12.565 32.2762 11.715 32.9997 11.8095C33.677 11.8806 33.9339 12.4951 33.957 13.2041V14.3853C33.957 14.7864 33.9339 15.1409 34.0975 15.4255C34.3775 15.8744 35.1942 15.8511 35.1712 14.6932V12.3541L35.1942 12.3308V12.3295Z" fill="white"/>
<path fill-rule="evenodd" clip-rule="evenodd" d="M37.2012 13.3466C37.1079 12.6143 37.692 11.7876 38.3221 11.763C39.0928 11.763 39.746 12.3064 39.8163 12.9921C39.9799 14.8357 37.4581 15.2368 37.2012 13.3466ZM41.0765 12.9209V12.8032C41.0765 12.6376 41.0293 12.472 40.9832 12.3309C40.9832 12.2831 40.936 12.2132 40.9129 12.142C40.8899 12.0476 40.8426 11.9764 40.7966 11.882C40.7736 11.8342 40.7263 11.7642 40.6803 11.6698C40.5397 11.4576 40.3773 11.3153 40.284 11.1976C40.2368 11.1742 40.2137 11.1264 40.1435 11.0798C39.8163 10.8431 39.42 10.6542 38.9765 10.6309C38.3464 10.6309 38.1598 10.7486 37.669 10.9375C37.3891 11.032 37.2727 10.9375 37.0158 10.8897C36.5723 10.7719 36.2452 10.9375 36.1518 11.0553C36.1046 11.1031 36.0816 11.1497 36.0355 11.2209C35.895 11.5275 35.9422 12.4732 35.9422 12.8989V16.4192C35.9422 16.797 35.9192 17.1993 36.0828 17.4827C36.2464 17.766 37.1104 18.1438 37.1794 16.7504C37.1794 16.3726 37.1322 15.9948 37.2958 15.6869C37.5527 15.1902 38.0895 15.6391 38.556 15.6869C39.1159 15.7348 39.6297 15.6158 40.0271 15.3324C40.0271 15.3324 40.0744 15.3091 40.0974 15.2846C40.1677 15.2368 40.238 15.1669 40.307 15.119L40.3773 15.0479C40.4246 15 40.4476 14.9534 40.4937 14.9056C40.587 14.8111 40.6572 14.6689 40.7506 14.5511C40.7506 14.5511 40.7506 14.5278 40.7736 14.5033C40.8208 14.4088 40.8669 14.2911 40.9141 14.1966C41.0305 13.8421 41.1008 13.4165 41.0777 12.9442V12.9209H41.0765Z" fill="white"/>
<path fill-rule="evenodd" clip-rule="evenodd" d="M43.0603 13.6525V12.8024C43.0603 12.4958 43.0373 12.3057 43.1767 12.0702C43.3863 11.739 44.0164 11.6212 44.0637 11.2667C44.1109 10.6522 43.6674 10.8411 43.27 10.3922C42.99 10.0855 43.0131 9.51758 42.5465 9.44643C42.0327 9.35199 41.9164 9.80092 41.8231 10.061V10.0843C41.8231 10.1321 41.8001 10.1787 41.7758 10.202C41.7758 10.2253 41.7528 10.2499 41.7286 10.2965C41.7286 10.2965 41.7056 10.3443 41.6813 10.3676V10.3909L41.6583 10.4142C41.542 10.532 41.3554 10.6976 41.3311 10.7209C41.1675 10.8865 41.0512 11.0754 41.1215 11.3354C41.2148 11.6421 41.7989 11.7844 41.8679 12.3756C41.9152 12.8724 41.8679 13.5568 41.8679 14.0769C41.8679 14.5025 42.0085 14.9036 42.2642 15.2115C42.3575 15.3059 42.5441 15.4948 42.8713 15.5893C43.3378 15.707 44.0613 15.6604 44.0855 15.1637C44.1328 14.478 43.1282 14.7859 43.1282 13.6279L43.0579 13.6512L43.0603 13.6525Z" fill="white"/>
<path fill-rule="evenodd" clip-rule="evenodd" d="M44.1588 9.8252C44.2061 9.8252 44.2521 9.8252 44.2752 9.8019C44.2982 9.8019 44.3224 9.75406 44.3224 9.70745C44.3224 9.66084 44.3224 9.63631 44.2752 9.613C44.2521 9.613 44.2049 9.5897 44.1588 9.5897H44.0183V9.84974H44.1588V9.82643V9.8252ZM44.4388 9.8252C44.4157 9.87304 44.3685 9.89635 44.3454 9.91965L44.509 10.1564H44.3454L44.2049 9.94419H44.0413V10.1564H43.8777V9.44741H44.1806C44.2739 9.44741 44.3442 9.44741 44.3903 9.51855C44.4375 9.56639 44.4606 9.613 44.4606 9.70745C44.4606 9.8019 44.4606 9.8019 44.4133 9.84974L44.4363 9.82643L44.4388 9.8252ZM44.4157 10.2741C44.3454 10.322 44.2521 10.3453 44.1358 10.3453C44.0195 10.3453 43.9492 10.322 43.8559 10.2741C43.7856 10.2263 43.7153 10.1564 43.6693 10.0852C43.622 10.0141 43.599 9.91965 43.599 9.8019C43.599 9.68414 43.599 9.613 43.6693 9.51855C43.7165 9.44741 43.7856 9.37627 43.8559 9.32965C43.9262 9.28182 44.0195 9.25851 44.1358 9.25851C44.2521 9.25851 44.3224 9.25851 44.4157 9.32965C44.486 9.37749 44.5563 9.44741 44.6023 9.51855C44.6496 9.5897 44.6726 9.68414 44.6726 9.8019C44.6726 9.91965 44.6726 9.9908 44.6023 10.0852C44.5551 10.1797 44.486 10.2275 44.4157 10.2741ZM44.463 9.25851C44.5563 9.30635 44.6266 9.4008 44.6969 9.49525C44.7441 9.5897 44.7902 9.70745 44.7902 9.82643C44.7902 9.94541 44.7671 10.0632 44.6969 10.1576C44.6496 10.2521 44.5563 10.3232 44.463 10.3944C44.3697 10.4422 44.2533 10.4888 44.1358 10.4888C44.0183 10.4888 43.9019 10.4655 43.8086 10.3944C43.7153 10.3465 43.645 10.2521 43.5748 10.1576C43.5275 10.0632 43.4814 9.94541 43.4814 9.82643C43.4814 9.70745 43.5045 9.61423 43.5748 9.49525C43.622 9.4008 43.7153 9.32966 43.8086 9.25851C43.9019 9.21067 44.0183 9.16406 44.1358 9.16406C44.2533 9.16406 44.3697 9.18737 44.463 9.25851Z" fill="white"/>
<path d="M13.8594 44.3477H13.5322V46.0723H13.8594V44.3477Z" fill="white"/>
<path fill-rule="evenodd" clip-rule="evenodd" d="M15.4222 45.7418C15.5155 45.694 15.5858 45.6241 15.6318 45.5296C15.6791 45.4352 15.7021 45.3407 15.7021 45.223C15.7021 45.1052 15.6791 45.0108 15.6318 44.9163C15.5846 44.8219 15.5155 44.7507 15.4222 44.7041C15.3289 44.6575 15.2356 44.633 15.1193 44.633C15.0029 44.633 14.9096 44.6563 14.8163 44.7041C14.723 44.7519 14.6527 44.8219 14.6067 44.9163C14.5594 45.0108 14.5364 45.1052 14.5364 45.223C14.5364 45.3407 14.5594 45.4352 14.6067 45.5296C14.6539 45.6241 14.723 45.6952 14.8163 45.7418C14.9096 45.7884 15.0029 45.813 15.1193 45.813C15.2356 45.813 15.3289 45.7896 15.4222 45.7418ZM14.6515 45.9785C14.511 45.9074 14.3946 45.7896 14.3243 45.6719C14.2541 45.5296 14.208 45.3885 14.208 45.223C14.208 45.0574 14.2553 44.8918 14.3243 44.774C14.3946 44.6317 14.511 44.5373 14.6515 44.4674C14.7921 44.3974 14.9545 44.3496 15.1181 44.3496C15.2816 44.3496 15.4452 44.3974 15.5846 44.4674C15.7239 44.5373 15.8415 44.6563 15.9118 44.774C15.9821 44.9163 16.0281 45.0574 16.0281 45.223C16.0281 45.3885 15.9808 45.5541 15.9118 45.6719C15.8415 45.8142 15.7252 45.9086 15.5846 45.9785C15.444 46.0485 15.2816 46.0963 15.1181 46.0963C14.9545 46.0963 14.7909 46.0485 14.6515 45.9785Z" fill="white"/>
<path fill-rule="evenodd" clip-rule="evenodd" d="M16.6829 44.6077H16.123V44.3477H17.5699V44.6077H17.0101V46.0735H16.6829V44.6077Z" fill="white"/>
<path d="M18.317 45.2441H17.6396V45.5042H18.317V45.2441Z" fill="white"/>
<path fill-rule="evenodd" clip-rule="evenodd" d="M19.8576 45.5767C19.8576 45.4111 19.7413 45.3167 19.4844 45.3167H18.9706V45.8135H19.4844C19.7413 45.8135 19.8576 45.719 19.8576 45.5534V45.5767ZM18.9936 44.5844V45.0566H19.4371C19.5535 45.0566 19.6237 45.0566 19.694 44.9855C19.7643 44.9377 19.7873 44.891 19.7873 44.8199C19.7873 44.7488 19.7643 44.6776 19.694 44.631C19.6237 44.5844 19.5535 44.5599 19.4371 44.5599H18.9936V44.5832V44.5844ZM20.0903 45.3167C20.1375 45.3878 20.1836 45.4823 20.1836 45.6C20.1836 45.7178 20.1363 45.8601 20.02 45.9545C19.9037 46.0257 19.7401 46.0723 19.5292 46.0723H18.6895V44.3477H19.4832C19.6928 44.3477 19.8334 44.3955 19.9497 44.4654C20.066 44.5353 20.1133 44.6543 20.1133 44.7966C20.1133 44.9389 20.1133 44.9622 20.043 45.0333C19.9958 45.1045 19.9497 45.1511 19.8794 45.1756C19.9727 45.1989 20.043 45.2701 20.1133 45.3412L20.0903 45.3179V45.3167Z" fill="white"/>
<path fill-rule="evenodd" clip-rule="evenodd" d="M21.1422 45.8125C21.2125 45.7892 21.2355 45.718 21.2585 45.6702V45.5279H20.9556C20.769 45.5279 20.6987 45.5757 20.6987 45.6935C20.6987 45.8113 20.6987 45.7879 20.769 45.8358C20.8162 45.8591 20.8623 45.8836 20.9556 45.8836C21.0489 45.8836 21.0962 45.8836 21.1652 45.8358L21.1422 45.8125ZM21.4221 44.8668C21.5154 44.9612 21.5857 45.1035 21.5857 45.2924V46.0725H21.3058V45.9069C21.2585 45.9548 21.2125 46.0014 21.1422 46.0492C21.0719 46.0725 20.9786 46.0971 20.8853 46.0971C20.792 46.0971 20.6987 46.0971 20.6284 46.0492C20.5581 46.0259 20.4878 45.9781 20.4648 45.9069C20.4176 45.8358 20.3945 45.7892 20.3945 45.6947C20.3945 45.577 20.4418 45.4825 20.5351 45.4114C20.6284 45.3402 20.769 45.2936 20.9556 45.2936H21.2828C21.2828 45.1759 21.2597 45.1047 21.2125 45.0569C21.1652 45.009 21.0719 44.9857 20.9786 44.9857C20.8853 44.9857 20.838 44.9857 20.769 45.0091C20.6987 45.0091 20.6284 45.0569 20.5824 45.1035L20.466 44.8668C20.5363 44.8189 20.6066 44.7723 20.7229 44.749C20.8162 44.7257 20.9095 44.7012 21.0259 44.7012C21.2125 44.7012 21.353 44.749 21.4694 44.8435L21.4221 44.8668Z" fill="white"/>
<path fill-rule="evenodd" clip-rule="evenodd" d="M22.0747 46.0472C21.9814 46.0239 21.8881 45.976 21.8408 45.9527L21.9572 45.716C22.0274 45.7638 22.0977 45.7871 22.1668 45.8104C22.2601 45.8337 22.3304 45.8583 22.4007 45.8583C22.5873 45.8583 22.6806 45.8104 22.6806 45.716C22.6806 45.6215 22.6806 45.6448 22.6103 45.6215C22.563 45.6215 22.494 45.5982 22.3764 45.5737C22.2601 45.5737 22.1898 45.5504 22.1195 45.5258C22.0492 45.5258 22.0032 45.478 21.9329 45.4081C21.8857 45.3603 21.8626 45.2903 21.8626 45.1959C21.8626 45.1014 21.9099 44.9592 22.0262 44.8892C22.1195 44.8181 22.2601 44.7715 22.4467 44.7715C22.6333 44.7715 22.6333 44.7715 22.7036 44.7948C22.7969 44.7948 22.8672 44.8426 22.9132 44.8659L22.7969 45.1027C22.6806 45.0315 22.563 45.0082 22.4237 45.0082C22.2843 45.0082 22.2601 45.0082 22.214 45.0561C22.1668 45.0794 22.1438 45.1272 22.1438 45.1738C22.1438 45.2204 22.1668 45.2683 22.214 45.2683C22.2613 45.2683 22.3304 45.3161 22.4479 45.3161C22.5412 45.3161 22.6345 45.3394 22.7048 45.3639C22.7751 45.3639 22.8211 45.4118 22.8684 45.4817C22.9157 45.5295 22.9387 45.5994 22.9387 45.6939C22.9387 45.7883 22.8914 45.9061 22.7751 46.0005C22.6588 46.0717 22.5182 46.1183 22.3546 46.1183C22.191 46.1183 22.145 46.1183 22.0517 46.0705L22.0747 46.0472Z" fill="white"/>
<path fill-rule="evenodd" clip-rule="evenodd" d="M23.5461 45.0811C23.4758 45.1289 23.4297 45.2233 23.4297 45.3178H24.1762C24.1762 45.2233 24.1289 45.1522 24.0598 45.0811C23.9896 45.0332 23.9193 44.9866 23.8029 44.9866C23.6866 44.9866 23.6163 45.0099 23.5461 45.0811ZM24.4561 45.5067H23.4285C23.4285 45.6011 23.4988 45.6723 23.5691 45.7434C23.6394 45.7913 23.7327 45.8379 23.849 45.8379C23.9653 45.8379 24.1059 45.79 24.1992 45.6956L24.3628 45.8845C24.2925 45.9556 24.2222 46.0022 24.1289 46.0501C24.0356 46.0979 23.9423 46.0979 23.826 46.0979C23.7096 46.0979 23.5461 46.0746 23.4527 46.0035C23.3364 45.9556 23.2661 45.8612 23.1958 45.7667C23.1256 45.6723 23.1025 45.5545 23.1025 45.4122C23.1025 45.2699 23.1256 45.1755 23.1958 45.0577C23.2431 44.9633 23.3364 44.8688 23.4297 44.821C23.523 44.7732 23.6394 44.7266 23.7799 44.7266C23.9205 44.7266 24.0138 44.7499 24.1301 44.821C24.2234 44.8688 24.3167 44.9633 24.364 45.0577C24.4113 45.1522 24.4573 45.2699 24.4573 45.4122C24.4573 45.5545 24.4573 45.4601 24.4573 45.5067H24.4561Z" fill="white"/>
<path fill-rule="evenodd" clip-rule="evenodd" d="M25.5296 45.7641C25.5769 45.7408 25.6229 45.693 25.6702 45.6218C25.6932 45.5507 25.7174 45.4795 25.7174 45.4096C25.7174 45.3397 25.7174 45.244 25.6702 45.1974C25.6471 45.1263 25.5999 45.0796 25.5296 45.0551C25.4593 45.0318 25.4133 45.0073 25.343 45.0073C25.2727 45.0073 25.2024 45.0073 25.1564 45.0551C25.0861 45.0784 25.0631 45.1263 25.0158 45.1974C24.9928 45.2685 24.9685 45.3397 24.9685 45.4096C24.9685 45.4795 24.9685 45.5752 25.0158 45.6218C25.0388 45.693 25.0861 45.7396 25.1564 45.7641C25.2267 45.7874 25.2727 45.8119 25.343 45.8119C25.4133 45.8119 25.4836 45.8119 25.5296 45.7641ZM26.0204 44.2284V46.0474H25.7174V45.8818C25.6702 45.953 25.6011 45.9996 25.5308 46.0241C25.4605 46.0487 25.3672 46.072 25.2969 46.072C25.2267 46.072 25.0631 46.0487 24.9698 45.9775C24.8765 45.9297 24.7831 45.8352 24.7359 45.7408C24.6886 45.6463 24.6426 45.5286 24.6426 45.3863C24.6426 45.244 24.6656 45.1263 24.7359 45.0318C24.7831 44.9374 24.8765 44.8429 24.9698 44.7951C25.0631 44.7472 25.1794 44.7006 25.2969 44.7006C25.4145 44.7006 25.4605 44.7006 25.5308 44.7485C25.6011 44.7718 25.6714 44.8196 25.7174 44.8908V44.2051H26.0204V44.2284Z" fill="white"/>
<path fill-rule="evenodd" clip-rule="evenodd" d="M29.6142 44.3477L29.0544 46.0735H28.7041L28.2837 44.7966L27.8644 46.0735H27.5142L26.9531 44.3477H27.2803L27.7008 45.6479L28.1443 44.3477H28.4472L28.8677 45.6712L29.3112 44.3477H29.6142Z" fill="white"/>
<path fill-rule="evenodd" clip-rule="evenodd" d="M30.4088 45.8125C30.4791 45.7892 30.5021 45.718 30.5251 45.6702V45.5279H30.2222C30.0356 45.5279 29.9653 45.5757 29.9653 45.6935C29.9653 45.8113 29.9653 45.7879 30.0356 45.8358C30.0828 45.8591 30.1289 45.8836 30.2222 45.8836C30.3155 45.8836 30.3628 45.8836 30.4318 45.8358L30.4088 45.8125ZM30.6887 44.8668C30.782 44.9612 30.8523 45.1035 30.8523 45.2924V46.0725H30.5724V45.9069C30.5251 45.9548 30.4791 46.0014 30.4088 46.0492C30.3385 46.0725 30.2452 46.0971 30.1519 46.0971C30.0586 46.0971 29.9653 46.0971 29.895 46.0492C29.8247 46.0259 29.7544 45.9781 29.7314 45.9069C29.6842 45.8358 29.6611 45.7892 29.6611 45.6947C29.6611 45.577 29.7084 45.4825 29.8017 45.4114C29.895 45.3402 30.0356 45.2936 30.2222 45.2936H30.5494C30.5494 45.1759 30.5263 45.1047 30.4791 45.0569C30.4318 45.009 30.3385 44.9857 30.2452 44.9857C30.1519 44.9857 30.1046 44.9857 30.0356 45.0091C29.9653 45.0091 29.895 45.0569 29.849 45.1035L29.7326 44.8668C29.8029 44.8189 29.8732 44.7723 29.9895 44.749C30.0828 44.7257 30.1761 44.7012 30.2925 44.7012C30.4791 44.7012 30.6196 44.749 30.736 44.8435L30.6887 44.8668Z" fill="white"/>
<path fill-rule="evenodd" clip-rule="evenodd" d="M31.973 44.7257V45.0091H31.9027C31.7864 45.0091 31.6931 45.0324 31.6228 45.1035C31.5525 45.1746 31.5295 45.2691 31.5295 45.4102V46.048H31.2266V44.7245H31.5065V44.9134C31.5998 44.7711 31.7404 44.7012 31.973 44.7012V44.7245V44.7257Z" fill="white"/>
<path fill-rule="evenodd" clip-rule="evenodd" d="M32.5324 45.0811C32.4621 45.1289 32.416 45.2233 32.416 45.3178H33.1625C33.1625 45.2233 33.1152 45.1522 33.0462 45.0811C32.9759 45.0332 32.9056 44.9866 32.7893 44.9866C32.6729 44.9866 32.6027 45.0099 32.5324 45.0811ZM33.4424 45.5067H32.4148C32.4148 45.6011 32.4851 45.6723 32.5554 45.7434C32.6257 45.7913 32.719 45.8379 32.8353 45.8379C32.9517 45.8379 33.0922 45.79 33.1855 45.6956L33.3491 45.8845C33.2788 45.9556 33.2086 46.0022 33.1152 46.0501C33.0219 46.0979 32.9286 46.0979 32.8123 46.0979C32.696 46.0979 32.5324 46.0746 32.4391 46.0035C32.3227 45.9556 32.2525 45.8612 32.1822 45.7667C32.1119 45.6723 32.0889 45.5545 32.0889 45.4122C32.0889 45.2699 32.1119 45.1755 32.1822 45.0577C32.2294 44.9633 32.3227 44.8688 32.416 44.821C32.5094 44.7732 32.6257 44.7266 32.7663 44.7266C32.9068 44.7266 33.0001 44.7499 33.1165 44.821C33.2098 44.8688 33.3031 44.9633 33.3503 45.0577C33.3976 45.1522 33.4436 45.2699 33.4436 45.4122C33.4436 45.5545 33.4436 45.4601 33.4436 45.5067H33.4424Z" fill="white"/>
<path fill-rule="evenodd" clip-rule="evenodd" d="M34.8677 44.8909C34.961 44.9853 35.0083 45.1276 35.0083 45.3165V46.0721H34.7054V45.3631C34.7054 45.2454 34.6823 45.1509 34.6351 45.1031C34.5878 45.0552 34.4945 45.0086 34.4012 45.0086C34.3079 45.0086 34.1916 45.0319 34.1443 45.1031C34.074 45.1742 34.051 45.2687 34.051 45.3864V46.0476H33.748V44.2285H34.051V44.8897C34.0983 44.8418 34.1673 44.7952 34.2376 44.7719C34.3079 44.7486 34.4012 44.7241 34.4945 44.7241C34.6581 44.7241 34.7974 44.7719 34.8908 44.8664L34.8677 44.8897V44.8909Z" fill="white"/>
<path fill-rule="evenodd" clip-rule="evenodd" d="M36.2914 45.7182C36.3617 45.647 36.4078 45.5526 36.4078 45.4115C36.4078 45.2705 36.3605 45.1993 36.2914 45.1049C36.2212 45.0337 36.1278 44.9871 36.0115 44.9871C35.8952 44.9871 35.8019 45.0349 35.7316 45.1049C35.6613 45.176 35.6153 45.2705 35.6153 45.4115C35.6153 45.5526 35.6625 45.6237 35.7316 45.7182C35.8019 45.7893 35.8952 45.8359 36.0115 45.8359C36.1278 45.8359 36.2212 45.7881 36.2914 45.7182ZM35.6383 46.0015C35.522 45.9537 35.4517 45.8592 35.3814 45.7648C35.3111 45.6703 35.2881 45.5526 35.2881 45.4103C35.2881 45.268 35.3111 45.1735 35.3814 45.0558C35.4517 44.9613 35.522 44.8669 35.6383 44.8191C35.7546 44.7712 35.8722 44.7246 35.9885 44.7246C36.1048 44.7246 36.2454 44.7479 36.3387 44.8191C36.455 44.8669 36.5253 44.9613 36.5956 45.0558C36.6659 45.1502 36.6889 45.268 36.6889 45.4103C36.6889 45.5526 36.6659 45.647 36.5956 45.7648C36.5253 45.8592 36.455 45.9537 36.3387 46.0015C36.2224 46.0493 36.1048 46.096 35.9885 46.096C35.8722 46.096 35.7316 46.0727 35.6383 46.0015Z" fill="white"/>
<path fill-rule="evenodd" clip-rule="evenodd" d="M38.2527 44.75V46.0735H37.9727V45.9079C37.9255 45.9791 37.8564 46.0024 37.7861 46.0502C37.7159 46.0735 37.6456 46.098 37.5523 46.098C37.3887 46.098 37.2493 46.0502 37.1318 45.9558C37.0385 45.8613 36.9912 45.719 36.9912 45.5301V44.7745H37.2942V45.4835C37.2942 45.6013 37.3172 45.6957 37.3644 45.7436C37.4117 45.7914 37.4808 45.838 37.5983 45.838C37.7159 45.838 37.7849 45.8147 37.8552 45.7436C37.9255 45.6724 37.9485 45.578 37.9485 45.4602V44.7991H38.2515V44.7512L38.2527 44.75Z" fill="white"/>
<path fill-rule="evenodd" clip-rule="evenodd" d="M38.7417 46.0472C38.6484 46.0239 38.5551 45.976 38.5078 45.9527L38.6241 45.716C38.6944 45.7638 38.7647 45.7871 38.8338 45.8104C38.9271 45.8337 38.9974 45.8583 39.0677 45.8583C39.2543 45.8583 39.3476 45.8104 39.3476 45.716C39.3476 45.6215 39.3476 45.6448 39.2773 45.6215C39.23 45.6215 39.161 45.5982 39.0434 45.5737C38.9271 45.5737 38.8568 45.5504 38.7865 45.5258C38.7162 45.5258 38.6702 45.478 38.5999 45.4081C38.5526 45.3603 38.5296 45.2903 38.5296 45.1959C38.5296 45.1014 38.5769 44.9592 38.6932 44.8892C38.7865 44.8181 38.9271 44.7715 39.1137 44.7715C39.3003 44.7715 39.3003 44.7715 39.3706 44.7948C39.4639 44.7948 39.5342 44.8426 39.5802 44.8659L39.4639 45.1027C39.3476 45.0315 39.23 45.0082 39.0907 45.0082C38.9513 45.0082 38.9271 45.0082 38.881 45.0561C38.8338 45.0794 38.8108 45.1272 38.8108 45.1738C38.8108 45.2204 38.8338 45.2683 38.881 45.2683C38.9283 45.2683 38.9974 45.3161 39.1149 45.3161C39.2082 45.3161 39.3015 45.3394 39.3718 45.3639C39.4421 45.3639 39.4881 45.4118 39.5354 45.4817C39.5827 45.5295 39.6057 45.5994 39.6057 45.6939C39.6057 45.7883 39.5584 45.9061 39.4421 46.0005C39.3258 46.0717 39.1852 46.1183 39.0216 46.1183C38.858 46.1183 38.812 46.1183 38.7187 46.0705L38.7417 46.0472Z" fill="white"/>
<path fill-rule="evenodd" clip-rule="evenodd" d="M40.213 45.0811C40.1428 45.1289 40.0967 45.2233 40.0967 45.3178H40.8432C40.8432 45.2233 40.7959 45.1522 40.7268 45.0811C40.6566 45.0332 40.5863 44.9866 40.4699 44.9866C40.3536 44.9866 40.2833 45.0099 40.213 45.0811ZM41.1231 45.5067H40.0955C40.0955 45.6011 40.1658 45.6723 40.2361 45.7434C40.3064 45.7913 40.3997 45.8379 40.516 45.8379C40.6323 45.8379 40.7729 45.79 40.8662 45.6956L41.0298 45.8845C40.9595 45.9556 40.8892 46.0022 40.7959 46.0501C40.7026 46.0979 40.6093 46.0979 40.493 46.0979C40.3766 46.0979 40.213 46.0746 40.1197 46.0035C40.0034 45.9556 39.9331 45.8612 39.8628 45.7667C39.7926 45.6723 39.7695 45.5545 39.7695 45.4122C39.7695 45.2699 39.7926 45.1755 39.8628 45.0577C39.9101 44.9633 40.0034 44.8688 40.0967 44.821C40.19 44.7732 40.3063 44.7266 40.4469 44.7266C40.5875 44.7266 40.6808 44.7499 40.7971 44.821C40.8904 44.8688 40.9837 44.9633 41.031 45.0577C41.0783 45.1522 41.1243 45.2699 41.1243 45.4122C41.1243 45.5545 41.1243 45.4601 41.1243 45.5067H41.1231Z" fill="white"/>
<path fill-rule="evenodd" clip-rule="evenodd" d="M43.6911 46.0735V44.9156L43.1313 45.8601H42.9907L42.4309 44.9389V46.0735H42.1279V44.3477H42.3836L43.061 45.4823L43.7384 44.3477H43.9953V46.0735H43.6911Z" fill="white"/>
<path fill-rule="evenodd" clip-rule="evenodd" d="M45.2782 45.7182C45.3485 45.647 45.3945 45.5526 45.3945 45.4115C45.3945 45.2705 45.3473 45.1993 45.2782 45.1049C45.2079 45.0337 45.1146 44.9871 44.9983 44.9871C44.8819 44.9871 44.7886 45.0349 44.7183 45.1049C44.6481 45.176 44.602 45.2705 44.602 45.4115C44.602 45.5526 44.6493 45.6237 44.7183 45.7182C44.7886 45.7893 44.8819 45.8359 44.9983 45.8359C45.1146 45.8359 45.2079 45.7881 45.2782 45.7182ZM44.6481 46.0015C44.5317 45.9537 44.4614 45.8592 44.3912 45.7648C44.3209 45.6703 44.2979 45.5526 44.2979 45.4103C44.2979 45.268 44.3209 45.1735 44.3912 45.0558C44.4614 44.9613 44.5317 44.8669 44.6481 44.8191C44.7644 44.7712 44.8819 44.7246 44.9983 44.7246C45.1146 44.7246 45.2552 44.7479 45.3485 44.8191C45.4648 44.8669 45.5351 44.9613 45.6054 45.0558C45.6756 45.1502 45.6987 45.268 45.6987 45.4103C45.6987 45.5526 45.6756 45.647 45.6054 45.7648C45.5351 45.8592 45.4648 45.9537 45.3485 46.0015C45.2321 46.0493 45.1146 46.096 44.9983 46.096C44.8819 46.096 44.7414 46.0727 44.6481 46.0015Z" fill="white"/>
<path fill-rule="evenodd" clip-rule="evenodd" d="M47.1226 44.8906C47.2159 44.985 47.2632 45.1273 47.2632 45.3162V46.0718H46.9602V45.3628C46.9602 45.2451 46.9372 45.1506 46.89 45.1028C46.8427 45.0549 46.7494 45.0083 46.6561 45.0083C46.5628 45.0083 46.4464 45.0316 46.3992 45.1028C46.3289 45.1739 46.3059 45.2684 46.3059 45.3861V46.0473H46.0029V44.7237H46.2829V44.8893C46.3301 44.8182 46.3992 44.7716 46.4695 44.7471C46.5397 44.7225 46.6331 44.6992 46.7264 44.6992C46.89 44.6992 47.0293 44.7471 47.1226 44.8415V44.8893V44.8906Z" fill="white"/>
<path fill-rule="evenodd" clip-rule="evenodd" d="M47.659 44.7487H47.9619V46.0722H47.659V44.7487ZM47.682 44.4887C47.6348 44.4654 47.6348 44.4175 47.6348 44.3464C47.6348 44.2752 47.6348 44.2519 47.682 44.2041C47.7293 44.1808 47.7753 44.1562 47.8226 44.1562C47.8698 44.1562 47.9159 44.1563 47.9632 44.2041C48.0104 44.2274 48.0104 44.2752 48.0104 44.3218C48.0104 44.3685 48.0104 44.4163 47.9632 44.4641C47.9159 44.512 47.8698 44.512 47.8226 44.512C47.7753 44.512 47.7293 44.512 47.682 44.4641V44.4874V44.4887Z" fill="white"/>
<path fill-rule="evenodd" clip-rule="evenodd" d="M49.1536 46.0024C49.1063 46.0257 49.0833 46.0502 49.013 46.0735H48.8494C48.7089 46.0735 48.5925 46.0257 48.5223 45.9558C48.452 45.8858 48.4059 45.7669 48.4059 45.6246V44.9867H48.1963V44.75H48.4059V44.4434H48.7089V44.75H49.0591V44.9867H48.7089V45.6246C48.7089 45.6957 48.7089 45.7423 48.7561 45.7669C48.7792 45.7902 48.8264 45.8147 48.8967 45.8147C48.967 45.8147 49.013 45.8147 49.0603 45.7669L49.1536 45.9791V46.0024Z" fill="white"/>
<path fill-rule="evenodd" clip-rule="evenodd" d="M50.227 45.7182C50.2973 45.647 50.3433 45.5526 50.3433 45.4115C50.3433 45.2705 50.2961 45.1993 50.227 45.1049C50.1567 45.0337 50.0634 44.9871 49.9471 44.9871C49.8307 44.9871 49.7374 45.0349 49.6671 45.1049C49.5969 45.176 49.5508 45.2705 49.5508 45.4115C49.5508 45.5526 49.5981 45.6237 49.6671 45.7182C49.7374 45.7893 49.8307 45.8359 49.9471 45.8359C50.0634 45.8359 50.1567 45.7881 50.227 45.7182ZM49.5738 46.0015C49.4575 45.9537 49.3872 45.8592 49.3169 45.7648C49.2467 45.6703 49.2236 45.5526 49.2236 45.4103C49.2236 45.268 49.2467 45.1735 49.3169 45.0558C49.3872 44.9613 49.4575 44.8669 49.5738 44.8191C49.6902 44.7712 49.8077 44.7246 49.924 44.7246C50.0404 44.7246 50.1809 44.7479 50.2742 44.8191C50.3906 44.8669 50.4609 44.9613 50.5311 45.0558C50.6014 45.1502 50.6244 45.268 50.6244 45.4103C50.6244 45.5526 50.6014 45.647 50.5311 45.7648C50.4609 45.8592 50.3906 45.9537 50.2742 46.0015C50.1579 46.0493 50.0404 46.096 49.924 46.096C49.8077 46.096 49.6671 46.0727 49.5738 46.0015Z" fill="white"/>
<path fill-rule="evenodd" clip-rule="evenodd" d="M51.6742 44.7257V45.0091H51.6039C51.4876 45.0091 51.3943 45.0324 51.324 45.1035C51.2537 45.1746 51.2307 45.2691 51.2307 45.4102V46.048H50.9277V44.7245H51.2077V44.9134C51.301 44.7711 51.4415 44.7012 51.6742 44.7012V44.7245V44.7257Z" fill="white"/>
<path fill-rule="evenodd" clip-rule="evenodd" d="M51.9305 44.7487H52.2334V46.0722H51.9305V44.7487ZM51.9535 44.4887C51.9062 44.4654 51.9063 44.4175 51.9063 44.3464C51.9063 44.2752 51.9062 44.2519 51.9535 44.2041C52.0008 44.1808 52.0468 44.1562 52.0941 44.1562C52.1413 44.1562 52.1874 44.1563 52.2346 44.2041C52.2819 44.2274 52.2819 44.2752 52.2819 44.3218C52.2819 44.3685 52.2819 44.4163 52.2346 44.4641C52.1874 44.512 52.1413 44.512 52.0941 44.512C52.0468 44.512 52.0008 44.512 51.9535 44.4641V44.4874V44.4887Z" fill="white"/>
<path fill-rule="evenodd" clip-rule="evenodd" d="M53.775 44.8906C53.8683 44.985 53.9155 45.1273 53.9155 45.3162V46.0718H53.6126V45.3628C53.6126 45.2451 53.5896 45.1506 53.5423 45.1028C53.495 45.0549 53.4017 45.0083 53.3084 45.0083C53.2151 45.0083 53.0988 45.0316 53.0515 45.1028C52.9812 45.1739 52.9582 45.2684 52.9582 45.3861V46.0473H52.6553V44.7237H52.9352V44.8893C52.9825 44.8182 53.0515 44.7716 53.1218 44.7471C53.1921 44.7225 53.2854 44.6992 53.3787 44.6992C53.5423 44.6992 53.6816 44.7471 53.775 44.8415V44.8893V44.8906Z" fill="white"/>
<path fill-rule="evenodd" clip-rule="evenodd" d="M55.1989 45.6472C55.2692 45.576 55.3152 45.4816 55.3152 45.3638C55.3152 45.246 55.268 45.1749 55.1989 45.1038C55.1298 45.0326 55.0353 45.0093 54.919 45.0093C54.8026 45.0093 54.7093 45.0326 54.6391 45.1038C54.5688 45.1749 54.5227 45.2694 54.5227 45.3638C54.5227 45.4583 54.57 45.576 54.6391 45.6472C54.7081 45.7183 54.8026 45.7416 54.919 45.7416C55.0353 45.7416 55.1286 45.7183 55.1989 45.6472ZM55.6194 44.7493V45.8594C55.6194 46.3316 55.3855 46.545 54.919 46.545C54.4524 46.545 54.6851 46.545 54.5688 46.4972C54.4524 46.4739 54.3591 46.426 54.2889 46.3549L54.4294 46.1182C54.4767 46.166 54.57 46.2126 54.6391 46.2359C54.7324 46.2592 54.8026 46.2838 54.896 46.2838C55.0365 46.2838 55.1529 46.2605 55.1989 46.1893C55.2692 46.1182 55.2922 46.0237 55.2922 45.8827V45.8115C55.2449 45.8594 55.1759 45.906 55.1056 45.9538C55.0353 45.9771 54.942 46.0016 54.8487 46.0016C54.7554 46.0016 54.6148 45.9783 54.5215 45.9305C54.4282 45.8827 54.3349 45.8127 54.2876 45.6938C54.2404 45.5993 54.1943 45.4816 54.1943 45.3626C54.1943 45.2436 54.2174 45.1258 54.2876 45.0314C54.3349 44.9369 54.4282 44.8658 54.5215 44.8192C54.6148 44.7726 54.7312 44.748 54.8487 44.748C54.9662 44.748 55.0353 44.748 55.1056 44.7959C55.1759 44.8192 55.2462 44.867 55.2922 44.9382V44.7726H55.5721L55.6194 44.7493Z" fill="white"/>
<path fill-rule="evenodd" clip-rule="evenodd" d="M60.8952 46.0247C60.7788 45.9768 60.6855 45.9302 60.6152 45.8824L60.7316 45.6223C60.8018 45.6702 60.8952 45.7168 60.9885 45.7646C61.0818 45.7879 61.1981 45.8125 61.2914 45.8125C61.3847 45.8125 61.501 45.8125 61.5713 45.7413C61.6416 45.6935 61.6646 45.6469 61.6646 45.5757C61.6646 45.5046 61.6646 45.4813 61.6174 45.458C61.5944 45.4347 61.5471 45.4101 61.4768 45.3868C61.4295 45.3868 61.3605 45.339 61.2672 45.3157C61.1266 45.2924 61.0333 45.2445 60.94 45.2212C60.8697 45.1979 60.7994 45.1501 60.7304 45.079C60.6831 45.0078 60.637 44.9134 60.637 44.8189C60.637 44.7245 60.6601 44.63 60.7073 44.5589C60.7546 44.4877 60.8237 44.4166 60.9412 44.37C61.0345 44.3221 61.1751 44.2988 61.3144 44.2988C61.4538 44.2988 61.5241 44.2988 61.6174 44.3467C61.7107 44.37 61.804 44.4178 61.8743 44.4644L61.781 44.7245C61.7107 44.6766 61.6174 44.6533 61.5471 44.63C61.4768 44.63 61.3835 44.6067 61.3132 44.6067C61.1969 44.6067 61.1036 44.6067 61.0333 44.6778C60.963 44.7257 60.94 44.7723 60.94 44.8434C60.94 44.9146 60.94 44.9379 60.9873 44.9612C61.0103 44.9845 61.0575 45.009 61.1278 45.0323C61.1751 45.0323 61.2441 45.0802 61.3375 45.1035C61.4538 45.1268 61.5713 45.1746 61.6404 45.1979C61.7107 45.2212 61.781 45.2691 61.85 45.3402C61.8973 45.4114 61.9433 45.5058 61.9433 45.6003C61.9433 45.6947 61.9203 45.7892 61.8731 45.8603C61.8258 45.9314 61.7325 46.0026 61.6392 46.0492C61.5459 46.0958 61.4053 46.1203 61.266 46.1203C61.1266 46.1203 61.0091 46.1203 60.8927 46.0725V46.0247H60.8952Z" fill="white"/>
<path fill-rule="evenodd" clip-rule="evenodd" d="M63.4386 44.7485L62.8315 46.1665C62.7843 46.3088 62.7152 46.4032 62.6219 46.4732C62.5516 46.521 62.4353 46.5676 62.319 46.5676C62.2026 46.5676 62.1784 46.5676 62.1323 46.5443C62.0621 46.5443 62.016 46.4965 61.9688 46.4499L62.0851 46.2131C62.1081 46.2364 62.1554 46.261 62.1784 46.2843C62.2256 46.2843 62.2487 46.3076 62.2947 46.3076C62.3408 46.3076 62.388 46.3076 62.4353 46.2597C62.4583 46.2364 62.5056 46.1886 62.5286 46.1174V46.0696L61.9918 44.7461H62.319L62.7394 45.7151L63.1599 44.7461H63.4629H63.4399L63.4386 44.7485Z" fill="white"/>
<path fill-rule="evenodd" clip-rule="evenodd" d="M63.7192 46.0472C63.6259 46.0239 63.5326 45.976 63.4854 45.9527L63.6017 45.716C63.672 45.7638 63.7422 45.7871 63.8113 45.8104C63.9046 45.8337 63.9749 45.8583 64.0452 45.8583C64.2318 45.8583 64.3251 45.8104 64.3251 45.716C64.3251 45.6215 64.3251 45.6448 64.2548 45.6215C64.2076 45.6215 64.1385 45.5982 64.021 45.5737C63.9046 45.5737 63.8343 45.5504 63.7641 45.5258C63.6938 45.5258 63.6477 45.478 63.5774 45.4081C63.5302 45.3603 63.5072 45.2903 63.5072 45.1959C63.5072 45.1014 63.5544 44.9592 63.6707 44.8892C63.7641 44.8181 63.9046 44.7715 64.0912 44.7715C64.2779 44.7715 64.2779 44.7715 64.3481 44.7948C64.4414 44.7948 64.5117 44.8426 64.5578 44.8659L64.4414 45.1027C64.3251 45.0315 64.2076 45.0082 64.0682 45.0082C63.9289 45.0082 63.9046 45.0082 63.8586 45.0561C63.8113 45.0794 63.7883 45.1272 63.7883 45.1738C63.7883 45.2204 63.8113 45.2683 63.8586 45.2683C63.9058 45.2683 63.9749 45.3161 64.0924 45.3161C64.1858 45.3161 64.2791 45.3394 64.3494 45.3639C64.4196 45.3639 64.4657 45.4118 64.5129 45.4817C64.5602 45.5295 64.5832 45.5994 64.5832 45.6939C64.5832 45.7883 64.536 45.9061 64.4196 46.0005C64.3033 46.0717 64.1627 46.1183 63.9991 46.1183C63.8356 46.1183 63.7895 46.1183 63.6962 46.0705L63.7192 46.0472Z" fill="white"/>
<path fill-rule="evenodd" clip-rule="evenodd" d="M65.6565 46.0024C65.6093 46.0257 65.5862 46.0502 65.516 46.0735H65.3524C65.2118 46.0735 65.0955 46.0257 65.0252 45.9558C64.9549 45.8858 64.9089 45.7669 64.9089 45.6246V44.9867H64.6992V44.75H64.9089V44.4434H65.2118V44.75H65.562V44.9867H65.2118V45.6246C65.2118 45.6957 65.2118 45.7423 65.2591 45.7669C65.2821 45.7902 65.3293 45.8147 65.3996 45.8147C65.4699 45.8147 65.516 45.8147 65.5632 45.7669L65.6565 45.9791V46.0024Z" fill="white"/>
<path fill-rule="evenodd" clip-rule="evenodd" d="M66.1931 45.0811C66.1228 45.1289 66.0768 45.2233 66.0768 45.3178H66.8232C66.8232 45.2233 66.776 45.1522 66.7069 45.0811C66.6366 45.0332 66.5663 44.9866 66.45 44.9866C66.3337 44.9866 66.2634 45.0099 66.1931 45.0811ZM67.0801 45.5067H66.0525C66.0525 45.6011 66.1228 45.6723 66.1931 45.7434C66.2634 45.7913 66.3567 45.8379 66.473 45.8379C66.5893 45.8379 66.7299 45.79 66.8232 45.6956L66.9868 45.8845C66.9165 45.9556 66.8462 46.0022 66.7529 46.0501C66.6596 46.0979 66.5663 46.0979 66.45 46.0979C66.3337 46.0979 66.1701 46.0746 66.0768 46.0035C65.9604 45.9556 65.8901 45.8612 65.8199 45.7667C65.7496 45.6723 65.7266 45.5545 65.7266 45.4122C65.7266 45.2699 65.7496 45.1755 65.8199 45.0577C65.8671 44.9633 65.9604 44.8688 66.0537 44.821C66.147 44.7732 66.2634 44.7266 66.4039 44.7266C66.5445 44.7266 66.6378 44.7499 66.7541 44.821C66.8475 44.8688 66.9408 44.9633 66.988 45.0577C67.0353 45.1522 67.0813 45.2699 67.0813 45.4122C67.0813 45.5545 67.0813 45.4601 67.0813 45.5067H67.0801Z" fill="white"/>
<path fill-rule="evenodd" clip-rule="evenodd" d="M69.4152 44.8917C69.5086 44.9861 69.5558 45.1284 69.5558 45.3173V46.0729H69.2529V45.3639C69.2529 45.2462 69.2298 45.1517 69.1826 45.1039C69.1353 45.056 69.0662 45.0094 68.9729 45.0094C68.8796 45.0094 68.7863 45.0327 68.716 45.1039C68.6458 45.175 68.6227 45.2695 68.6227 45.3872V46.0484H68.3198V45.3394C68.3198 45.2216 68.2968 45.1272 68.2495 45.0793C68.2022 45.0315 68.1332 44.9849 68.0399 44.9849C67.9466 44.9849 67.8533 45.0082 67.783 45.0793C67.7127 45.1505 67.6897 45.2449 67.6897 45.3627V46.0238H67.3867V44.7003H67.6666V44.8659C67.7139 44.7948 67.783 44.7715 67.8533 44.7236C67.9235 44.7003 68.0168 44.6758 68.0871 44.6758C68.1574 44.6758 68.2737 44.6758 68.344 44.7236C68.4143 44.7715 68.4846 44.8181 68.5306 44.8892C68.5779 44.8181 68.647 44.7715 68.7403 44.7236C68.8336 44.6758 68.9269 44.6758 69.0202 44.6758C69.1838 44.6758 69.3231 44.7236 69.4164 44.8181V44.8892L69.4152 44.8917Z" fill="white"/>
<path fill-rule="evenodd" clip-rule="evenodd" d="M56.1328 42.3862L56.6696 43.3319L56.506 43.4742C56.506 43.4742 56.2964 43.6165 56.3655 43.8753L57.999 46.9001C57.999 46.9001 58.1395 47.1601 58.4194 47.089L59.75 46.38C59.75 46.38 60.0069 46.2623 59.8905 45.9544L58.3031 42.9063C58.3031 42.9063 58.2328 42.6695 57.9299 42.6941L57.696 42.8363L57.1362 41.8906L56.1558 42.3629L56.1328 42.3862Z" fill="#6396D0"/>
<path fill-rule="evenodd" clip-rule="evenodd" d="M0.823641 11.2227H3.40473V19.7966C3.40473 20.5203 2.82308 21.1091 2.10813 21.1091C1.39318 21.1091 0.811523 20.5203 0.811523 19.7966V11.2227H0.823641Z" fill="#E3000F" stroke="#1A1A18" stroke-width="0.3" stroke-miterlimit="22.9"/>
<path d="M4.19254 11.2227H0.0361328V12.5719H4.19254V11.2227Z" fill="#E0E0EA" stroke="#1A1A18" stroke-width="0.3" stroke-miterlimit="22.9"/>
<path fill-rule="evenodd" clip-rule="evenodd" d="M0.484491 14.1301H1.41756V12.5723H0.0361328V13.6762C0.0361328 13.9215 0.242135 14.1301 0.484491 14.1301Z" fill="#E0E0EA" stroke="#1A1A18" stroke-width="0.3" stroke-miterlimit="22.9"/>
<path d="M4.20495 12.5723H3.25977V14.2159H4.20495V12.5723Z" fill="#E0E0EA" stroke="#1A1A18" stroke-width="0.3" stroke-miterlimit="22.9"/>
<path d="M4.20507 14.2168H2.81152V15.333H4.20507V14.2168Z" fill="#E0E0EA" stroke="#1A1A18" stroke-width="0.3" stroke-miterlimit="22.9"/>
<path d="M4.19254 15.3457H0.0361328V16.695H4.19254V15.3457Z" fill="#E0E0EA" stroke="#1A1A18" stroke-width="0.3" stroke-miterlimit="22.9"/>
<path fill-rule="evenodd" clip-rule="evenodd" d="M0.423902 14.1309H1.41756V15.3452H0.0361328V14.5234C0.0361328 14.3149 0.205782 14.1309 0.423902 14.1309Z" fill="#E0E0EA" stroke="#1A1A18" stroke-width="0.3" stroke-miterlimit="22.9"/>
<path d="M4.20507 16.6816H2.81152V18.1168H4.20507V16.6816Z" fill="#E0E0EA" stroke="#1A1A18" stroke-width="0.3" stroke-miterlimit="22.9"/>
<path fill-rule="evenodd" clip-rule="evenodd" d="M0.484491 18.2394H1.41756V16.6816H0.0361328V17.7856C0.0361328 18.0309 0.242135 18.2394 0.484491 18.2394Z" fill="#E0E0EA" stroke="#1A1A18" stroke-width="0.3" stroke-miterlimit="22.9"/>
<path fill-rule="evenodd" clip-rule="evenodd" d="M0.484491 18.2388H1.41756V19.7598H0.0361328V18.6804C0.0361328 18.4351 0.242135 18.2266 0.484491 18.2266V18.2388Z" fill="#E0E0EA" stroke="#1A1A18" stroke-width="0.3" stroke-miterlimit="22.9"/>
<path d="M4.20495 18.1289H3.25977V19.7726H4.20495V18.1289Z" fill="#E0E0EA" stroke="#1A1A18" stroke-width="0.3" stroke-miterlimit="22.9"/>
<path d="M4.19254 19.7598H0.0361328V21.109H4.19254V19.7598Z" fill="#E0E0EA" stroke="#1A1A18" stroke-width="0.3" stroke-miterlimit="22.9"/>
<path fill-rule="evenodd" clip-rule="evenodd" d="M0.824219 11.224H3.40531V10.3776C3.40531 9.9115 3.02966 9.53125 2.56918 9.53125H1.66035C1.19987 9.53125 0.824219 9.9115 0.824219 10.3776V11.224Z" fill="#E3000F" stroke="#1A1A18" stroke-width="0.3" stroke-miterlimit="22.9"/>
<path fill-rule="evenodd" clip-rule="evenodd" d="M1.41797 21.1094H3.24776V23.0719L2.61763 24.2372C2.35104 24.7279 2.43586 24.7156 2.14504 24.2372L1.41797 23.0597V21.1094Z" fill="#E3000F" stroke="#1A1A18" stroke-width="0.3" stroke-miterlimit="22.9"/>
<path fill-rule="evenodd" clip-rule="evenodd" d="M0.823641 52.3398H3.40473V60.9138C3.40473 61.6375 2.82308 62.2263 2.10813 62.2263C1.39318 62.2263 0.811523 61.6375 0.811523 60.9138V52.3398H0.823641Z" fill="#E3000F" stroke="#1A1A18" stroke-width="0.3" stroke-miterlimit="22.9"/>
<path d="M4.19254 52.3398H0.0361328V53.6891H4.19254V52.3398Z" fill="#E0E0EA" stroke="#1A1A18" stroke-width="0.3" stroke-miterlimit="22.9"/>
<path fill-rule="evenodd" clip-rule="evenodd" d="M0.484491 55.2472H1.41756V53.6895H0.0361328V54.7934C0.0361328 55.0387 0.242135 55.2472 0.484491 55.2472Z" fill="#E0E0EA" stroke="#1A1A18" stroke-width="0.3" stroke-miterlimit="22.9"/>
<path d="M4.20495 53.6895H3.25977V55.3331H4.20495V53.6895Z" fill="#E0E0EA" stroke="#1A1A18" stroke-width="0.3" stroke-miterlimit="22.9"/>
<path d="M4.20507 55.332H2.81152V56.4482H4.20507V55.332Z" fill="#E0E0EA" stroke="#1A1A18" stroke-width="0.3" stroke-miterlimit="22.9"/>
<path d="M4.19254 56.4492H0.0361328V57.7985H4.19254V56.4492Z" fill="#E0E0EA" stroke="#1A1A18" stroke-width="0.3" stroke-miterlimit="22.9"/>
<path fill-rule="evenodd" clip-rule="evenodd" d="M0.423902 55.2461H1.41756V56.4604H0.0361328V55.6386C0.0361328 55.4301 0.205782 55.2461 0.423902 55.2461Z" fill="#E0E0EA" stroke="#1A1A18" stroke-width="0.3" stroke-miterlimit="22.9"/>
<path d="M4.20507 57.7969H2.81152V59.232H4.20507V57.7969Z" fill="#E0E0EA" stroke="#1A1A18" stroke-width="0.3" stroke-miterlimit="22.9"/>
<path fill-rule="evenodd" clip-rule="evenodd" d="M0.484491 59.3547H1.41756V57.7969H0.0361328V58.9008C0.0361328 59.1461 0.242135 59.3547 0.484491 59.3547Z" fill="#E0E0EA" stroke="#1A1A18" stroke-width="0.3" stroke-miterlimit="22.9"/>
<path fill-rule="evenodd" clip-rule="evenodd" d="M0.484491 59.356H1.41756V60.877H0.0361328V59.7976C0.0361328 59.5523 0.242135 59.3438 0.484491 59.3438V59.356Z" fill="#E0E0EA" stroke="#1A1A18" stroke-width="0.3" stroke-miterlimit="22.9"/>
<path d="M4.20495 59.2324H3.25977V60.8761H4.20495V59.2324Z" fill="#E0E0EA" stroke="#1A1A18" stroke-width="0.3" stroke-miterlimit="22.9"/>
<path d="M4.19254 60.877H0.0361328V62.2262H4.19254V60.877Z" fill="#E0E0EA" stroke="#1A1A18" stroke-width="0.3" stroke-miterlimit="22.9"/>
<path fill-rule="evenodd" clip-rule="evenodd" d="M0.824219 52.3392H3.40531V51.4928C3.40531 51.0267 3.02966 50.6465 2.56918 50.6465H1.66035C1.19987 50.6465 0.824219 51.0267 0.824219 51.4928V52.3392Z" fill="#E3000F" stroke="#1A1A18" stroke-width="0.3" stroke-miterlimit="22.9"/>
<path fill-rule="evenodd" clip-rule="evenodd" d="M1.41797 62.2266H3.24776V64.1891L2.61763 65.3544C2.35104 65.8451 2.43586 65.8328 2.14504 65.3544L1.41797 64.1769V62.2266Z" fill="#E3000F" stroke="#1A1A18" stroke-width="0.3" stroke-miterlimit="22.9"/>
</g>
<defs>
<clipPath id="clip0_6254_21539">
<rect width="86" height="78" fill="white"/>
</clipPath>
</defs>
</svg>
